<?xml version="1.0" encoding="utf-8"?>
<!-- Generator: Adobe Illustrator 17.1.0, SVG Export Plug-In . SVG Version: 6.00 Build 0)  -->
<!DOCTYPE svg PUBLIC "-//W3C//DTD SVG 1.1//EN" "http://www.w3.org/Graphics/SVG/1.1/DTD/svg11.dtd">
<svg version="1.1" id="Layer_1" xmlns="http://www.w3.org/2000/svg" xmlns:xlink="http://www.w3.org/1999/xlink" x="0px" y="0px"
	 viewBox="0.001 602.116 611.997 185.881" enable-background="new 0.001 602.116 611.997 185.881" xml:space="preserve">
<pattern  x="0" y="792" width="35.453" height="35.453" patternUnits="userSpaceOnUse" id="SVGID_2_" viewBox="2.659 -38.11 35.453 35.453" overflow="visible">
	<g>
		<polygon fill="none" points="2.659,-2.657 38.112,-2.657 38.112,-38.11 2.659,-38.11 		"/>
		<g>
			<polygon fill="none" points="2.659,-38.11 38.112,-38.11 38.112,-2.657 2.659,-2.657 			"/>
			<g>
				<polygon fill="none" points="2.659,-2.658 38.112,-2.658 38.112,-38.11 2.659,-38.11 				"/>
				<g>
					<polygon fill="none" points="2.659,-2.658 38.112,-2.658 38.112,-38.11 2.659,-38.11 					"/>
					<g>
						<path fill="#F4A460" d="M38.112-40.771c1.466,0,2.657,1.19,2.657,2.659c0,1.469-1.192,2.659-2.657,2.659
							c-1.469,0-2.659-1.19-2.659-2.659C35.453-39.58,36.643-40.771,38.112-40.771z"/>
						<path fill="#F4A460" d="M20.385-40.771c1.467,0,2.659,1.19,2.659,2.659c0,1.469-1.192,2.659-2.659,2.659
							c-1.469,0-2.659-1.19-2.659-2.659C17.726-39.58,18.916-40.771,20.385-40.771z"/>
						<path fill="#F4A460" d="M38.112-23.044c1.466,0,2.657,1.19,2.657,2.659c0,1.469-1.192,2.659-2.657,2.659
							c-1.469,0-2.659-1.19-2.659-2.659C35.453-21.854,36.643-23.044,38.112-23.044z"/>
						<path fill="#F4A460" d="M20.385-23.044c1.467,0,2.659,1.19,2.659,2.659c0,1.469-1.192,2.659-2.659,2.659
							c-1.469,0-2.659-1.19-2.659-2.659C17.726-21.854,18.916-23.044,20.385-23.044z"/>
						<path fill="#F4A460" d="M11.522-31.906c1.467,0,2.659,1.19,2.659,2.659c0,1.466-1.192,2.657-2.659,2.657
							c-1.469,0-2.659-1.19-2.659-2.657C8.863-30.716,10.053-31.906,11.522-31.906z"/>
						<path fill="#F4A460" d="M29.248-31.906c1.466,0,2.659,1.19,2.659,2.659c0,1.466-1.193,2.657-2.659,2.657
							c-1.469,0-2.659-1.19-2.659-2.657C26.589-30.716,27.779-31.906,29.248-31.906z"/>
						<path fill="#F4A460" d="M11.522-14.179c1.467,0,2.659,1.19,2.659,2.657c0,1.469-1.192,2.659-2.659,2.659
							c-1.469,0-2.659-1.19-2.659-2.659C8.863-12.99,10.053-14.179,11.522-14.179z"/>
						<path fill="#F4A460" d="M29.248-14.179c1.466,0,2.659,1.19,2.659,2.657c0,1.469-1.193,2.659-2.659,2.659
							c-1.469,0-2.659-1.19-2.659-2.659C26.589-12.99,27.779-14.179,29.248-14.179z"/>
					</g>
					<g>
						<path fill="#F4A460" d="M2.659-40.771c1.467,0,2.657,1.19,2.657,2.659c0,1.469-1.192,2.659-2.657,2.659
							C1.19-35.453,0-36.642,0-38.112C0-39.58,1.19-40.771,2.659-40.771z"/>
						<path fill="#F4A460" d="M2.659-23.044c1.467,0,2.657,1.19,2.657,2.659c0,1.469-1.192,2.659-2.657,2.659
							C1.19-17.726,0-18.917,0-20.385C0-21.854,1.19-23.044,2.659-23.044z"/>
					</g>
					<g>
						<path fill="#F4A460" d="M38.112-5.318c1.466,0,2.657,1.19,2.657,2.659C40.769-1.19,39.577,0,38.112,0
							c-1.469,0-2.659-1.19-2.659-2.659C35.453-4.128,36.643-5.318,38.112-5.318z"/>
						<path fill="#F4A460" d="M20.385-5.318c1.467,0,2.659,1.19,2.659,2.659C23.044-1.19,21.853,0,20.385,0
							c-1.469,0-2.659-1.19-2.659-2.659S18.916-5.318,20.385-5.318z"/>
					</g>
					<g>
						<path fill="#F4A460" d="M2.659-5.318c1.467,0,2.657,1.19,2.657,2.659C5.316-1.19,4.125,0,2.659,0C1.19,0,0-1.191,0-2.659
							C0-4.128,1.19-5.318,2.659-5.318z"/>
					</g>
				</g>
			</g>
		</g>
	</g>
</pattern>
<g>
	<circle fill="#5E3517" cx="306.444" cy="695.057" r="92.94"/>
</g>
<g opacity="0.55">
	
		<pattern  id="SVGID_1_" xlink:href="#SVGID_2_" patternTransform="matrix(1.231 0 0 -1.231 8828.3369 -40089.332)"  opacity="0.55">
	</pattern>
	<circle fill="url(#SVGID_1_)" cx="306.444" cy="695.057" r="92.94"/>
</g>
<circle fill="#008080" cx="306.444" cy="695.057" r="67.705"/>
<ellipse fill="#8B5E3C" cx="306.637" cy="684.612" rx="43.811" ry="26.081"/>
<ellipse fill="#8B5E3C" cx="284.059" cy="670.169" rx="14.023" ry="13.041"/>
<ellipse fill="#8B5E3C" cx="276.849" cy="679.949" rx="14.023" ry="13.041"/>
<ellipse fill="#8B5E3C" cx="301.282" cy="666.908" rx="14.023" ry="13.041"/>
<ellipse fill="#8B5E3C" cx="319.428" cy="666.908" rx="14.023" ry="13.041"/>
<ellipse fill="#8B5E3C" cx="333.451" cy="673.893" rx="14.023" ry="13.041"/>
<ellipse fill="#603913" cx="294.52" cy="673.545" rx="3.561" ry="3.377"/>
<ellipse fill="#603913" cx="279.254" cy="661.906" rx="3.561" ry="3.377"/>
<ellipse fill="#603913" cx="301.282" cy="658.529" rx="3.561" ry="3.377"/>
<ellipse fill="#603913" cx="344.792" cy="668.455" rx="3.561" ry="3.377"/>
<ellipse fill="#603913" cx="315.865" cy="696.374" rx="3.561" ry="3.377"/>
<ellipse fill="#603913" cx="279.254" cy="695.54" rx="3.561" ry="3.377"/>
<ellipse fill="#603913" cx="348.355" cy="688.339" rx="3.561" ry="3.377"/>
<ellipse fill="#603913" cx="262.826" cy="681.586" rx="3.561" ry="3.377"/>
<ellipse fill="#603913" cx="300.92" cy="689.612" rx="3.561" ry="3.377"/>
<ellipse fill="#603913" cx="333.451" cy="690.311" rx="3.561" ry="3.377"/>
<ellipse fill="#603913" cx="315.305" cy="666.908" rx="3.561" ry="3.377"/>
<ellipse fill="#603913" cx="319.428" cy="653.868" rx="3.561" ry="3.377"/>
<ellipse fill="#603913" cx="329.432" cy="673.545" rx="3.561" ry="3.377"/>
<ellipse fill="#603913" cx="279.254" cy="679.949" rx="3.561" ry="3.377"/>
<path fill="#F4A460" d="M339.536,695.123l-4.406,5.87c-0.002,0-0.002,0-0.004,0l-5.694-5.453l-6.236,6.602c-0.002,0-0.002,0-0.004,0
	l-5.217-5.768l-6.742,6.401c-0.019,0-0.036,0.002-0.054,0.002l-7.056-6.507l-6.037,6.528c-0.002,0-0.005,0-0.008,0l-5.935-6.839
	l-5.746,6.157c-0.002,0-0.002,0-0.004,0l-2.79-6.574l-5.122,5.634c-0.053-0.008-0.106-0.016-0.16-0.025l-3.468-5.61l-4.375,4.106
	l0.056,0.104c-0.166-0.036-0.335-0.066-0.501-0.104l9.708,36.65c0,0,30.583-9.951,53.156,0l11.892-36.65L339.536,695.123z"/>
<polygon fill="#C17236" points="283.126,735.337 286.142,734.599 278.395,701.268 274.854,695.54 272.365,697.877 "/>
<polygon fill="#C17236" points="286.396,702.118 290.423,733.71 295.521,732.871 292.144,695.957 "/>
<polygon fill="#C17236" points="298.081,702.801 299.685,732.365 304.482,731.998 304.121,696.269 "/>
<polygon fill="#C17236" points="311.205,702.801 311.205,731.902 315.222,732.112 317.976,696.374 "/>
<polygon fill="#C17236" points="323.193,702.143 319.428,732.365 323.193,733.237 329.432,695.54 "/>
<polygon fill="#C17236" points="335.128,700.993 326.911,734.153 329.432,734.943 339.536,695.123 "/>
<g>
	<path fill="#F3A460" d="M450.966,642.259c-1.285,0.74-2.385,1.796-3.304,3.176c-0.916,1.38-1.199,2.572-0.845,3.568l0.133,0.376
		c0.442,1.251,1.066,1.91,1.862,1.977c0.799,0.07,1.617,0.095,2.455,0.077l0.266,0.75l-0.743,3.852
		c-0.41,0.428-0.756,0.937-1.04,1.529c-0.282,0.593-0.733,0.998-1.36,1.221l-0.376,0.131c-1.874,0.664-3.353,0.556-4.439-0.324
		c-1.086-0.882-2.019-2.026-2.802-3.437c-0.75,0.266-1.382,1.16-1.898,2.677c-0.516,1.521-0.787,2.637-0.818,3.35
		c1.225,0.272,2.505,1.011,3.848,2.223c1.347,1.209,2.306,2.63,2.881,4.253c0.747,1.708,0.937,3.326,0.565,4.864
		c-0.368,1.538-0.685,3.126-0.947,4.766c1.825,1.181,3.219,2.728,4.178,4.637c0.96,1.91,1.318,4.106,1.069,6.584
		c-0.18,1.471-0.373,2.42-0.576,2.842c-0.199,0.423-0.582,1.229-1.148,2.412c-0.27,1.223-0.752,2.238-1.453,3.048
		c-0.693,0.81-1.142,1.532-1.341,2.165c0.907,1.364,2.001,2.667,3.283,3.898c1.281,1.232,2.749,2.294,4.401,3.186
		c1.654,0.891,3.371,1.477,5.159,1.758c1.786,0.282,3.496,0.131,5.116-0.444c0.75-0.266,1.262-0.903,1.536-1.916
		c0.274-1.013,0.28-1.893,0.012-2.642c0.185-1.471,1.045-2.409,2.589-2.818c1.544-0.406,2.932-0.264,4.158,0.423
		c1.358,0.646,2.265,1.623,2.73,2.936c0.465,1.311,0.27,2.541-0.59,3.69c0.488,1.375,0.909,2.457,1.256,3.247
		c0.353,0.79,0.183,1.8-0.507,3.028l4.442-1.154l1.312-0.465c0.627-0.223,1.414-0.677,2.364-1.365
		c0.953-0.689,1.945-1.463,2.975-2.321c1.034-0.858,2.014-1.664,2.941-2.416c0.93-0.751,1.602-1.339,2.01-1.768
		c1.399-1.62,2.931-3.045,4.604-4.272c1.674-1.227,3.464-2.528,5.366-3.908c1.529-1.246,3.474-2.499,5.839-3.759
		c2.368-1.262,4.7-2.019,7.001-2.273c1.384-0.069,2.514-0.154,3.391-0.255c0.882-0.1,1.97-0.097,3.271,0.002
		c1.008,0.064,2.125,0.231,3.344,0.502c1.223,0.27,2.229,0.335,3.022,0.193c1.11-1.239,2.467-2.563,4.076-3.977
		c1.608-1.414,3.238-2.763,4.891-4.058c0.913-0.604,1.708-1.133,2.391-1.586c0.685-0.452,1.647-1.11,2.888-1.974
		c0.332-0.255,0.737-0.505,1.212-0.746c0.479-0.237,1.008-0.533,1.588-0.88c0.207-0.212,0.413-0.321,0.622-0.326
		c0.21-0.002,0.501-0.073,0.876-0.206c0.585-0.345,0.913-0.603,0.992-0.774c0.081-0.168,0.247-0.298,0.496-0.386
		c2.126-0.753,4.031-1.326,5.722-1.714c1.691-0.389,3.415-0.685,5.171-0.888c1.09-0.104,1.989-0.141,2.702-0.114
		c0.716,0.029,1.553,0.012,2.515-0.049c0.125-0.044,0.407-0.039,0.848,0.016c0.44,0.054,0.959,0.118,1.545,0.191l2.14,0.083
		l0.937-0.332l0.164-1.322c-0.31-0.875-0.405-1.44-0.283-1.694c0.122-0.253,0.093-0.631-0.083-1.13l-0.467-1.312
		c-1.063-2.999-3.008-5.119-5.845-6.367c-2.831-1.243-5.749-1.335-8.746-0.272c-1.623,0.576-3.144,1.642-4.562,3.201
		c-1.416,1.559-1.837,3.151-1.26,4.774c0.133,0.376,0.243,0.583,0.328,0.623c0.087,0.041,0.257,0.224,0.513,0.555
		c0.341,0.162,0.739,0.301,1.204,0.417c0.464,0.12,0.948,0.087,1.445-0.09c0.875-0.31,1.539-0.72,1.988-1.233
		c0.453-0.51,0.882-1.084,1.289-1.722c0.406-0.637,0.806-1.2,1.194-1.69c0.39-0.488,0.957-0.866,1.708-1.133
		c0.875-0.31,1.692-0.389,2.447-0.235c0.76,0.153,1.269,0.604,1.536,1.355c0.179,0.5,0.139,1.183-0.118,2.045
		c-0.255,0.865-0.694,1.408-1.322,1.63l-0.749,0.266c-1.125,0.399-1.886,0.036-2.285-1.09c0.5-0.177,0.827-0.151,0.976,0.077
		c0.154,0.229,0.54,0.231,1.163,0.01l0.187-0.068c0.253-0.089,0.457-0.301,0.617-0.641c0.164-0.338,0.198-0.631,0.11-0.884
		l-0.199-0.561c-0.089-0.249-0.262-0.539-0.521-0.872c-0.256-0.331-0.637-0.406-1.136-0.229l-0.376,0.133
		c-0.75,0.266-1.339,0.685-1.769,1.258c-0.43,0.575-0.815,1.169-1.161,1.783c-0.341,0.616-0.73,1.209-1.16,1.783
		c-0.43,0.575-1.079,1.017-1.955,1.328c-0.75,0.266-1.727,0.189-2.931-0.229c-1.202-0.417-1.892-0.874-2.071-1.375
		c-0.665-1.872-0.409-3.827,0.77-5.863c1.177-2.034,2.766-3.409,4.762-4.118l0.938-0.332c1.872-0.666,3.715-0.93,5.519-0.797
		c1.807,0.133,3.261,0.567,4.365,1.3c1.65,0.682,2.975,1.55,3.98,2.596c1.005,1.051,1.864,2.576,2.572,4.575
		c0.488,1.378,0.622,2.734,0.393,4.079c-0.226,1.347-0.274,2.207-0.139,2.582l2.672,1.584c1.614,0.977,2.633,1.669,3.058,2.078
		c1.15,0.859,1.994,1.651,2.53,2.373c0.542,0.725,1.284,1.833,2.234,3.323c0.607,0.912,1.49,1.617,2.65,2.12
		c1.163,0.502,2.169,0.954,3.014,1.358c0.634,0.197,1.212,0.343,1.737,0.437c0.529,0.096,1.005,0.349,1.43,0.758
		c0.848,0.405,1.418,0.625,1.711,0.66c0.297,0.036,0.821,0.131,1.577,0.284c0.805,0.278,1.91,0.519,3.315,0.722
		c1.411,0.204,2.597,0.277,3.559,0.216c1.09-0.104,2.458-0.413,4.103-0.927c1.648-0.512,2.734-1.214,3.259-2.109
		c0.529-0.889,1.215-1.834,2.053-2.837c0.842-1,1.209-2.045,1.103-3.134c0.147-1.177,0.133-2.402-0.039-3.68
		c-0.169-1.274-0.224-2.416-0.16-3.423c-1.324-1.357-2.437-2.511-3.337-3.46c-0.896-0.947-2.518-1.354-4.866-1.226
		c-2.255,0.379-4.137,1.119-5.649,2.215c-1.509,1.1-2.395,2.468-2.657,4.106c-0.153,0.76-0.156,1.638-0.012,2.642
		c0.145,1.003,0.583,1.94,1.312,2.806c0.773,0.992,1.33,1.569,1.668,1.729c0.34,0.161,1.181,0.355,2.528,0.58
		c2.061,0.255,3.726-0.301,4.999-1.668c1.275-1.365,1.556-3.047,0.847-5.048c-0.309-0.872-0.885-1.513-1.735-1.916
		c-0.845-0.403-1.706-0.449-2.582-0.139c-1.372,0.488-2.094,1.237-2.159,2.243c-0.355,0.971-0.367,1.539-0.029,1.698
		c0.342,0.165,0.664,0.683,0.974,1.555c0.839-0.014,1.384-0.069,1.631-0.156c0.253-0.089,0.409-0.144,0.469-0.168
		c0.065-0.023,0.166-0.128,0.309-0.32c0.143-0.189,0.59-0.421,1.339-0.687c0.133,0.376,0.143,0.794,0.025,1.256
		c-0.117,0.464-0.299,0.74-0.55,0.83c-1.621,0.575-2.912,0.61-3.865,0.106c-0.951-0.507-1.565-1.241-1.835-2.2
		c-0.268-0.959-0.203-1.965,0.193-3.021c0.401-1.055,1.1-1.763,2.098-2.117l0.938-0.332c1.376-0.488,2.73-0.335,4.065,0.457
		c1.337,0.793,2.249,1.875,2.736,3.249l0.133,0.376c0.399,1.125,0.141,2.483-0.77,4.073c-0.913,1.59-1.994,2.606-3.245,3.051
		c-0.872,0.309-1.929,0.51-3.164,0.594c-1.235,0.087-2.213-0.092-2.936-0.542c-0.552-0.365-1.287-0.949-2.204-1.75
		c-0.916-0.797-1.529-1.636-1.841-2.511c-0.93-2.624-0.994-4.886-0.192-6.79c0.801-1.899,2.282-3.374,4.442-4.424
		c0.957-0.479,2.104-0.816,3.439-1.009c1.341-0.191,2.472-0.171,3.398,0.062c0.463,0.118,0.97,0.255,1.515,0.41
		c0.552,0.159,1.055,0.295,1.518,0.413c0.59,0.074,1.098,0.316,1.523,0.725c0.43,0.413,0.811,0.697,1.15,0.859l0.077,0.815
		l1.069,0.042l2.171,4.928c-0.026,0.714,0.056,1.141,0.245,1.285c0.192,0.141,0.253,0.51,0.179,1.096
		c-0.116,0.464-0.214,0.888-0.291,1.264c-0.077,0.38-0.148,0.863-0.224,1.45c-0.151,0.76-0.44,1.529-0.867,2.313
		c-0.425,0.784-0.758,1.43-1.001,1.936c-0.401,0.848-0.951,1.571-1.657,2.171c-0.699,0.603-1.382,1.161-2.043,1.675
		c-0.909,0.606-1.719,0.998-2.43,1.178c-0.708,0.181-1.725,0.58-3.059,1.192c-1.499,0.532-3.268,0.598-5.31,0.195
		c-2.04-0.4-3.692-0.8-4.959-1.195c-1.264-0.395-2.096-0.66-2.499-0.8c-0.399-0.139-1.131-0.512-2.191-1.121
		c-0.382-0.287-1.06-0.712-2.036-1.281c-0.974-0.569-1.774-0.743-2.4-0.521c-0.624,0.222-0.826,0.646-0.604,1.269
		c0.223,0.627,0.299,1.233,0.224,1.82c0.107,1.09,0.02,2.034-0.26,2.836c0.106,1.09-0.026,2.013-0.386,2.773
		c-0.363,0.763-0.743,1.565-1.15,2.412c-0.474,1.434-1.546,2.975-3.213,4.622c-1.665,1.644-3.498,2.823-5.499,3.533
		c-1.621,0.576-3.192,0.816-4.704,0.718c-1.511-0.096-2.898-0.343-4.164-0.737c-0.8-0.277-1.937-1.001-3.408-2.167
		c-1.47-1.167-2.425-2.375-2.868-3.622l-0.864-2.437c-0.266-0.747-0.289-1.617-0.081-2.607c0.213-0.99,0.602-1.972,1.171-2.947
		c0.571-0.975,1.214-1.837,1.932-2.586c0.72-0.746,1.453-1.254,2.202-1.519l1.312-0.465c0.627-0.223,1.233-0.297,1.821-0.224
		c0.59,0.074,1.179,0.145,1.765,0.216c0.633,0.198,1.307,0.313,2.02,0.339c0.125-0.044,0.755-0.546,1.889-1.513
		c1.135-0.964,2.12-1.665,2.948-2.1c1.161-0.693,2.3-0.955,3.412-0.791c1.113,0.168,2.233,0.052,3.357-0.347
		c-0.61-1.33-1.161-2.188-1.652-2.579c-0.488-0.386-1.266-1.096-2.337-2.125c-0.426-0.41-1.236-1.108-2.43-2.093
		c-1.193-0.981-2.1-1.364-2.727-1.142l-0.376,0.133c-0.733,1.103-1.509,2.084-2.334,2.937c-0.693,0.811-1.487,1.55-2.378,2.215
		c-0.889,0.668-1.77,1.154-2.644,1.466c-1.623,0.575-3.337,0.797-5.146,0.664c-1.804-0.131-3.464-0.351-4.982-0.658
		c-1.513-0.307-2.841-0.575-3.976-0.804c-1.135-0.229-1.993-0.171-2.576,0.176c0.355,1.001,0.741,1.883,1.152,2.65
		c0.415,0.77,0.278,1.769-0.415,2.997c-0.484,1.015-1.066,1.75-1.75,2.202c-0.682,0.454-1.774,0.947-3.273,1.478l-0.507-0.241
		c0.037-0.293,0.053-0.546,0.048-0.755c-0.002-0.212-0.093-0.564-0.272-1.065l-0.068-0.187c-0.309-0.872-0.969-1.45-1.982-1.722
		c-1.011-0.274-2.015-0.234-3.016,0.122l-1.875,0.665c-0.998,0.353-1.962,0.906-2.893,1.659c-0.927,0.751-1.614,1.49-2.065,2.209
		c0.552,0.368,1.179,0.743,1.876,1.127c0.699,0.384,1.326,0.762,1.877,1.127c0.722,0.448,1.362,0.961,1.916,1.535
		c0.558,0.577,1.071,1.133,1.542,1.668c0.431,0.413,0.943,0.967,1.542,1.669c0.602,0.702,1.233,1.391,1.895,2.071
		c0.664,0.682,1.345,1.209,2.042,1.596c0.7,0.384,1.362,0.467,1.986,0.243c0.376-0.131,0.666-0.411,0.865-0.833
		c0.203-0.422,0.553-0.725,1.051-0.901c0.75-0.266,1.584,0.002,2.5,0.8c0.917,0.803,1.508,1.576,1.773,2.325l0.068,0.187
		c0.266,0.75,0.262,1.63-0.012,2.642c-0.274,1.015-0.677,1.754-1.215,2.225c-0.409,0.43-1.142,1.039-2.198,1.834
		c-1.052,0.795-1.491,1.447-1.314,1.943l0.133,0.376c0.223,0.627,0.706,1.194,1.447,1.702c0.743,0.511,1.43,0.654,2.052,0.433
		c0.128-0.044,0.209-0.107,0.249-0.193c0.042-0.083,0.164-0.233,0.368-0.447l-0.532-1.499c0.316-1.096,0.972-1.822,1.972-2.177
		c0.5-0.179,1.079-0.031,1.737,0.437c0.661,0.471,1.033,0.831,1.121,1.079l0.199,0.563c0.177,0.5,0.002,1.092-0.533,1.771
		c-0.529,0.681-1.108,1.131-1.735,1.354l-0.938,0.332c-0.624,0.222-1.347,0.267-2.167,0.135c-0.818-0.131-1.396-0.276-1.738-0.438
		c-1.148-0.858-2.132-2.055-2.96-3.591c-0.409,0.428-0.536,0.965-0.379,1.611c0.161,0.649,0.206,1.266,0.129,1.854
		c-0.116,0.463-0.198,1.019-0.25,1.671c-0.049,0.65-0.154,1.146-0.318,1.484c-0.153,0.76-0.268,1.327-0.346,1.705
		c-0.076,0.38-0.334,0.93-0.785,1.65c-0.117,0.464-0.357,0.971-0.726,1.524c-0.364,0.55-0.629,0.998-0.791,1.335
		c-0.401,0.847-0.699,1.304-0.888,1.368c-0.186,0.066-0.588,0.421-1.205,1.06l-1.233,1.283c-0.407,0.427-0.842,0.794-1.3,1.094
		c-0.249,0.087-0.728,0.331-1.433,0.72c-0.704,0.39-1.47,0.804-2.302,1.239c-0.83,0.434-1.566,0.835-2.211,1.205
		c-0.641,0.367-1.087,0.597-1.339,0.687l-2.623,0.93c-0.498,0.179-1.557,0.374-3.165,0.594c-1.61,0.223-2.538,0.374-2.79,0.463
		c-0.376,0.133-1.136,0.159-2.293,0.076c-1.154-0.081-1.986-0.246-2.493-0.488c-0.337-0.161-0.658-0.469-0.961-0.926
		c-0.299-0.453-0.643-0.828-1.028-1.112c-0.089-0.25-0.282-0.496-0.581-0.743c-0.297-0.243-0.637-0.512-1.021-0.797
		c-0.764-0.573-1.46-1.239-2.082-2.003c-0.619-0.764-1.167-1.413-1.641-1.95l-1.97-4.365c-0.471-0.537-0.957-0.718-1.459-0.539
		l-0.749,0.267c-1.248,0.442-2.239,1.216-2.974,2.321c0.258,0.332,0.591,0.777,1,1.333c0.41,0.56,0.725,1.152,0.947,1.774
		c0.223,0.628,0.328,1.221,0.318,1.787c-0.01,0.567-0.325,0.959-0.951,1.182l-0.937,0.334c-0.249,0.087-0.586,0.032-1.011-0.171
		c-0.42-0.199-0.8-0.382-1.142-0.543c-0.426-0.409-0.643-0.828-0.652-1.246c-0.006-0.42-0.122-0.939-0.343-1.565
		c0.037-0.293,0.158-0.652,0.355-1.077c0.203-0.421,0.259-0.757,0.17-1.008c-0.222-0.625-0.779-0.811-1.678-0.566
		c-0.894,0.249-1.632,0.546-2.215,0.893c-0.703,0.392-1.218,0.821-1.547,1.289c-0.325,0.467-0.755,0.937-1.294,1.408
		c-0.528,0.893-1.326,1.914-2.395,3.064c-1.067,1.154-2.225,1.95-3.475,2.394l-0.75,0.266c-1.247,0.442-2.426,0.299-3.531-0.436
		c-1.103-0.732-1.899-1.785-2.387-3.161c-0.222-0.623-0.128-1.359,0.272-2.207c0.406-0.845,0.875-1.503,1.409-1.974
		c0.662-0.515,1.416-0.573,2.261-0.17c0.849,0.404,1.502,0.664,1.965,0.78c0.355,1.001,0.654,1.844,0.897,2.531
		c0.243,0.688-0.129,1.416-1.12,2.19c0.34,0.162,0.694,0.176,1.069,0.043l0.563-0.199c0.253-0.089,0.963-0.658,2.136-1.71
		c1.178-1.051,1.783-1.719,1.818-2.015c0.449-0.72,0.969-1.433,1.563-2.137c0.594-0.702,1.455-1.254,2.579-1.653l0.374-0.133
		c1.002-0.355,1.848-0.443,2.542-0.268c0.695,0.176,1.295,0.174,1.792-0.004l0.563-0.199c0.5-0.179,0.853-0.372,1.057-0.586
		c0.208-0.213,0.539-0.471,0.992-0.774c0.286-0.382,0.704-0.598,1.246-0.652c0.546-0.05,1.067-0.169,1.565-0.345
		c0.788-0.559,1.29-1.229,1.503-2.009c0.218-0.782,0.401-1.547,0.554-2.307c0.272-1.221,0.938-2.512,2.001-3.875
		c1.066-1.36,2.24-2.41,3.524-3.149c1.493-0.951,3.13-1.497,4.905-1.635c1.781-0.138,3.326,0.053,4.635,0.571
		c1.435,0.478,2.647,1.312,3.633,2.509c0.99,1.2,1.791,2.671,2.412,4.419c0.355,1.001,0.461,2.194,0.321,3.58
		c-0.141,1.387-0.455,2.377-0.949,2.974c-0.967,2.03-2.698,3.489-5.2,4.376c-1.372,0.488-2.767,0.527-4.18,0.114
		c-1.411-0.413-2.763-0.951-4.056-1.621c-1.291-0.666-2.424-1.283-3.4-1.854c-0.974-0.567-1.712-0.763-2.213-0.586
		c-0.249,0.087-0.315,0.394-0.203,0.916c0.117,0.522,0.239,0.969,0.373,1.345c0.089,0.253,0.542,0.937,1.36,2.051
		c0.818,1.115,1.334,1.776,1.546,1.982c0.597,0.494,0.889,0.812,0.868,0.957c-0.017,0.147,0.353,0.297,1.108,0.451
		c0.761,0.153,1.16,0.293,1.205,0.417c0.043,0.127,0.32,0.308,0.827,0.549c0.384,0.286,1.005,0.455,1.866,0.498
		c0.861,0.048,1.804,0.029,2.829-0.054c1.027-0.08,2.074-0.208,3.136-0.374c1.069-0.168,1.853-0.34,2.35-0.517l1.499-0.532
		l6.723-3.653c0.782-0.978,1.535-1.526,2.265-1.647c0.733-0.118,1.553-0.48,2.463-1.084c0.539-0.473,0.947-1.108,1.221-1.912
		c0.28-0.8,0.665-1.501,1.154-2.096c0.362-0.973,0.835-2.511,1.42-4.62c0.59-2.107,0.64-3.847,0.151-5.223
		c-0.266-0.749-0.695-1.368-1.294-1.862c-0.33,0.259-0.753,0.55-1.272,0.872c-0.519,0.326-0.899,0.531-1.152,0.62l-1.312,0.465
		c-1.748,0.62-3.16,0.208-4.237-1.24c-1.073-1.445-1.417-3.012-1.033-4.696c0.044,0.126,0.392,0.213,1.042,0.262
		c0.651,0.052,1.042,0.053,1.163,0.01c0.75-0.266,1.356-0.937,1.817-2.018c0.463-1.076,0.649-1.738,0.559-1.992
		c-0.22-0.623-0.31-1.082-0.277-1.378c0.037-0.293-0.033-0.691-0.212-1.19c-0.222-0.625-0.76-1.453-1.62-2.487
		c-0.855-1.03-1.499-1.753-1.928-2.164c-0.426-0.41-1.245-0.93-2.452-1.557c-1.205-0.627-2.121-0.831-2.746-0.608
		c-0.749,0.266-1.636,1.04-2.66,2.317c-1.023,1.279-2.18,2.671-3.473,4.184c-1.29,1.513-2.616,2.933-3.975,4.259
		c-1.358,1.324-2.723,2.232-4.1,2.721c0.056,0.544-0.33,1.245-1.154,2.098c-0.821,0.855-1.791,1.689-2.908,2.508
		c-1.114,0.818-2.254,1.575-3.415,2.267c-1.158,0.694-2.117,1.173-2.866,1.439l-5.059,1.795c-0.25,0.089-0.8,0.216-1.661,0.379
		c-0.855,0.165-1.721,0.294-2.603,0.395c-0.876,0.101-1.725,0.189-2.542,0.27c-0.815,0.077-1.368,0.1-1.664,0.063
		c-0.542,0.054-1.108,0.149-1.694,0.283c-0.583,0.138-1.254,0.128-2.014-0.025c-0.71-0.026-1.307-0.026-1.792,0.004
		c-0.48,0.032-1.076,0.031-1.793,0.002c-2.603-0.201-5.071-0.523-7.408-0.957c-2.334-0.438-4.619-1.032-6.858-1.787
		c0.216,0.208,0.417,0.38,0.607,0.523c0.192,0.143,0.353,0.403,0.488,0.778c0.089,0.251,0.206,0.876,0.349,1.878
		c0.144,1.003,0.118,1.615-0.09,1.825c-0.187,1.051-1.051,1.992-2.589,2.817c-0.998,0.355-1.611,0.61-1.841,0.76
		c-0.226,0.153-0.826,0.049-1.798-0.313c-0.463-0.116-0.994-0.419-1.59-0.913c-0.594-0.488-0.96-0.923-1.094-1.299l-0.131-0.376
		c-0.177-0.498-0.195-0.845-0.052-1.038c0.143-0.189,0.297-0.454,0.457-0.795c0.162-0.338,0.251-0.685,0.263-1.042
		c0.015-0.355,0.079-0.768,0.195-1.231c-0.222-0.625-0.616-1.54-1.185-2.744c-0.566-1.205-1.19-1.968-1.868-2.291
		c-0.552-0.367-1.212-0.944-1.983-1.723c-0.77-0.783-1.492-1.333-2.171-1.657c-1.744-1.351-3.358-2.535-4.847-3.555
		c-0.043-0.124-0.278-0.392-0.706-0.803c-0.426-0.411-0.853-0.824-1.281-1.236c-0.426-0.407-0.842-0.789-1.249-1.137
		c-0.403-0.348-0.67-0.502-0.795-0.458l-7.243,2.781l2.049,5.181l0.743,2.691l0.133,0.374c0.177,0.501,1.045,0.863,2.599,1.083
		c1.556,0.223,2.63,0.369,3.217,0.442c0.882,0.107,1.831,0.405,2.846,0.888c1.015,0.485,1.947,0.928,2.793,1.331
		c0.894,0.528,1.657,1.1,2.297,1.719c0.641,0.617,1.391,1.335,2.243,2.158c1.025,0.901,1.779,2.042,2.266,3.415
		c0.488,1.378,0.948,2.269,1.372,2.678l-0.363,0.762c0.384,0.284,0.656,0.752,0.812,1.399c0.161,0.649,0.28,1.378,0.357,2.195
		c0.077,0.815,0.135,1.569,0.17,2.26c0.033,0.693-0.027,1.206-0.191,1.545c-0.026,0.716-0.141,1.284-0.343,1.705
		c-0.201,0.423-0.337,0.93-0.411,1.518c0.062,0.964-0.022,1.519-0.251,1.669c-0.228,0.153-0.502,0.567-0.826,1.243
		c-0.511,1.731-1.704,3.525-3.576,5.384c-1.871,1.86-3.993,3.209-6.369,4.052l-1.311,0.465c-0.376,0.133-1.324,0.226-2.858,0.276
		c-1.526,0.049-2.586,0.039-3.176-0.033c-0.838,0.017-1.7-0.135-2.588-0.453c-0.885-0.321-1.708-0.555-2.467-0.708
		c-1.69-0.804-3.157-1.868-4.4-3.187c-1.239-1.318-2.283-3.161-3.126-5.537c-0.419,0.01-0.972,0.027-1.667,0.064
		c-0.691,0.032-1.287,0.139-1.786,0.316c-0.123,0.044-0.265,0.446-0.417,1.204c-0.154,0.76-0.357,1.571-0.614,2.435
		c-0.255,0.863-0.583,1.719-0.99,2.565c-0.401,0.848-1.04,1.424-1.916,1.736l-0.937,0.332c-0.624,0.222-1.347,0.266-2.167,0.134
		c-0.818-0.131-1.341-0.506-1.563-1.133l-0.334-0.938c-0.266-0.75-0.158-1.631,0.328-2.647c0.484-1.017,1.056-1.779,1.719-2.297
		c0.616-0.641,1.37-1.189,2.264-1.647c0.894-0.457,1.796-0.988,2.706-1.593c-0.133-0.376-0.189-0.637-0.174-0.784
		c0.022-0.145-0.017-0.343-0.106-0.594c-0.087-0.249-0.496-0.805-1.227-1.674c-0.729-0.865-1.284-1.444-1.668-1.729
		c-0.89-0.529-1.472-0.882-1.749-1.067c-0.277-0.182-0.917-0.309-1.926-0.372c-1.559-0.432-2.926-0.72-4.105-0.865
		c-1.175-0.143-2.615,0.156-4.322,0.9c-1.705,0.746-2.877,1.902-3.518,3.464c-0.639,1.565-0.852,3.045-0.639,4.445
		c0.216,1.401,0.794,2.535,1.732,3.395c0.939,0.863,2.158,1.028,3.657,0.496l0.187-0.066c0.5-0.179,0.913-0.5,1.239-0.969
		c0.328-0.467,0.4-0.949,0.224-1.45c-0.222-0.624-0.59-1.269-1.106-1.928c-0.515-0.661-1.085-0.882-1.711-0.658l-0.187,0.066
		c-0.624,0.222-1.048,0.618-1.266,1.188c-0.219,0.573-0.24,1.107-0.064,1.605l-0.749,0.266c-0.376,0.133-0.718-0.235-1.028-1.112
		c0.119-0.464,0.328-0.961,0.633-1.491c0.305-0.532,0.831-0.928,1.58-1.194l0.561-0.199c0.876-0.31,1.829-0.295,2.862,0.039
		c1.036,0.337,1.684,0.88,1.95,1.63l0.533,1.498c0.399,1.125-0.058,2.31-1.379,3.55c-1.318,1.242-2.601,2.082-3.852,2.526
		c-0.75,0.266-1.588,0.178-2.521-0.266c-0.928-0.442-1.653-0.997-2.171-1.658c-0.515-0.66-0.909-1.575-1.185-2.744
		c-0.274-1.168-0.396-2.109-0.37-2.823c0.362-0.971,0.598-1.794,0.708-2.467c0.114-0.673,0.561-1.497,1.335-2.478
		c0.824-0.853,1.46-1.536,1.912-2.049c0.452-0.51,1.405-1.096,2.86-1.753c1.708-0.743,3.715-1.034,6.022-0.87
		c2.31,0.166,3.998,0.763,5.064,1.79c0.767,0.573,1.467,0.955,2.099,1.154c0.634,0.199,1.318,0.942,2.055,2.225
		c0.741,1.287,1.294,2.252,1.659,2.893c0.37,0.644,1.368,0.676,2.99,0.1l0.187-0.066c0.127-0.044,0.271-0.233,0.43-0.573
		c-0.442-1.248-0.271-2.752,0.511-4.508c0.785-1.756,1.739-2.833,2.862-3.23l1.125-0.399c1.375-0.488,2.351,0.083,2.926,1.706
		l0.266,0.747c0.179,0.501,0.106,1.09-0.218,1.768c-0.32,0.677-0.782,1.366-1.375,2.069c-0.593,0.706-1.252,1.324-1.977,1.862
		c-0.722,0.539-1.46,0.94-2.21,1.206l-0.274,2.206c0.857,0.824,1.542,1.668,2.063,2.538c0.519,0.87,1.374,1.589,2.557,2.153
		c0.848,0.404,1.892,0.772,3.134,1.103c1.246,0.334,2.366,0.32,3.363-0.033l3.09,0.382l-2.068-2.854
		c0.147-1.175,0.168-2.202,0.068-3.082c-0.1-0.878,0.432-1.663,1.59-2.358c0.538-0.471,1.066-0.764,1.586-0.88
		c0.525-0.114,1.181-0.24,1.974-0.384c1.465-0.236,2.011-0.186,1.638,0.158c-0.371,0.341-0.444,0.826-0.224,1.451l0.066,0.186
		c0.399,1.125,1.254,1.844,2.557,2.153c1.307,0.311,2.518,0.056,3.633-0.762c0.788-0.559,1.464-1.432,2.026-2.617
		c0.566-1.185,0.988-2.178,1.263-2.98c0.272-1.221,0.404-2.43,0.401-3.624c0-1.194-0.224-2.416-0.667-3.667
		c0.031-0.714-0.015-1.437-0.135-2.168c-0.118-0.73-0.266-1.345-0.443-1.847c-0.343-0.581-0.724-1.147-1.134-1.708
		c-0.409-0.556-0.747-1.212-1.013-1.962c-1.314-0.938-2.435-1.912-3.358-2.924c-0.918-1.008-2.181-1.791-3.786-2.349
		c-1.264-0.394-2.603-0.795-4.018-1.212c-1.412-0.411-2.936-0.54-4.567-0.384c-0.777,0.981-1.567,2.422-2.371,4.323
		c-0.8,1.904-1.825,3.075-3.078,3.518l-0.561,0.199c-1.374,0.488-2.483,0.037-3.327-1.351c-0.843-1.39-0.75-2.616,0.276-3.684
		c1.232-1.281,2.389-2.182,3.469-2.708c1.081-0.523,2.452-1.22,4.112-2.09c-0.222-0.625-0.229-1.045-0.025-1.258
		c0.208-0.213,0.264-0.443,0.176-0.694c-0.222-0.624-0.627-1.465-1.212-2.524c-0.587-1.056-1.03-1.814-1.333-2.27
		c-0.596-0.491-1.413-1.008-2.451-1.557c-1.038-0.546-1.578-0.882-1.623-1.007c-0.133-0.375-0.107-0.594,0.08-0.661
		c0.187-0.068,0.447-0.229,0.778-0.488c0.59,0.075,1.715,0.168,3.369,0.282c1.661,0.117,2.862,0.039,3.613-0.226
		c0.75-0.267,1.438-0.616,2.055-1.048c0.622-0.431,1.202-0.882,1.735-1.354l-0.199-0.563l-5.729-10.205l0.495-0.386l-0.133-0.376
		l-0.864-2.436c-0.596-0.491-1.154-0.679-1.677-0.566c-0.521,0.114-1.137,0.16-1.853,0.129c-0.712-0.027-1.409-0.203-2.086-0.525
		c-0.675-0.322-1.057-0.608-1.147-0.859c-0.666-1.874-0.618-3.225,0.141-4.06c0.76-0.83,2.015-1.559,3.763-2.179l1.688-0.598
		c-0.223-0.624-0.295-1.125-0.219-1.505c0.076-0.378,0.131-0.923,0.158-1.64c-0.102-1.087-0.17-1.766-0.195-2.038
		c-0.025-0.273-0.046-0.828-0.064-1.667l0.762-6.179c-0.177-0.498-0.537-0.618-1.076-0.357c-0.539,0.264-0.872,0.415-0.998,0.459
		c-0.498,0.177-0.816,0.077-0.949-0.295l-2.812,0.997c-1.248,0.443-2.181,0.986-2.798,1.626s-1.721,0.895-3.319,0.755
		c0.234-0.927,0.477-1.434,0.725-1.521c0.253-0.09,0.689-0.245,1.312-0.467c0.251-0.089,0.996-0.564,2.236-1.426
		c1.245-0.863,1.945-1.463,2.104-1.801c1.154-1.112,1.733-2.653,1.736-4.625c-1.05-0.189-2.146-0.011-3.292,0.536
		c-1.142,0.546-2.323,0.685-3.547,0.413c-1.131-0.021-1.962-0.18-2.493-0.488c-0.529-0.303-0.901-0.664-1.121-1.079
		c-0.216-0.413-0.393-0.81-0.525-1.185c-0.133-0.375-0.389-0.706-0.774-0.992c0.274-1.221,0.504-2.253,0.694-3.096
		c0.197-0.841,1.042-1.529,2.538-2.061c1.753-0.621,3.537-0.444,5.357,0.525c1.822,0.972,3.021,2.273,3.597,3.894l0.199,0.561
		c2.052-0.164,3.797-0.995,5.237-2.489c1.44-1.494,2.756-2.736,3.952-3.722c1.324-1.03,2.627-2.02,3.906-2.968
		c1.283-0.947,2.694-1.833,4.228-2.661L450.966,642.259z M421.673,743.171c0.295-0.949,0.519-2.011,0.661-3.191
		c-0.292-0.035-0.451-0.083-0.474-0.147c-0.022-0.063-0.156-0.052-0.409,0.038l-0.563,0.199c-0.998,0.353-1.93,0.895-2.798,1.625
		c-0.865,0.73-1.102,1.657-0.702,2.782l0.133,0.376c0.133,0.376,0.348,0.581,0.641,0.617c0.297,0.036,0.567,0.008,0.818-0.079
		C420.478,744.859,421.376,744.118,421.673,743.171z M430.166,654.703c0.518-0.322,0.688-0.736,0.511-1.237l-0.199-0.561
		c-0.355-1-1.272-1.903-2.756-2.715c-1.481-0.81-2.536-1.106-3.163-0.884l-0.937,0.332c-0.624,0.222-1.129,0.58-1.52,1.067
		c-0.386,0.49-0.661,0.903-0.825,1.242l0.665,1.875c0.178,0.5,0.679,0.918,1.503,1.26c0.826,0.34,1.407,0.592,1.744,0.752
		c0.749-0.266,1.387-0.351,1.914-0.256c0.528,0.095,1.102,0.029,1.725-0.191C429.201,655.257,429.649,655.027,430.166,654.703z
		 M429.324,737.08c1.168-0.273,2.352-0.903,3.549-1.891c1.2-0.988,1.574-2.105,1.13-3.357c-0.176-0.496-0.507-0.839-0.994-1.018
		c-0.485-0.179-0.895-0.349-1.237-0.511c-0.864,0.729-1.563,1.436-2.096,2.116c-0.531,0.682-0.554,1.71-0.068,3.082l-0.376,0.133
		L429.324,737.08z M432.248,682.872c0.927,0.234,1.743,0.156,2.449-0.236c1.124-0.399,1.405-1.096,0.841-2.09
		c-0.564-0.995-0.831-1.849-0.805-2.564l-1.829-0.405l-0.913,1.59l-1.62,0.787c-0.16,0.34-0.131,0.82,0.09,1.445
		C430.723,682.146,431.321,682.64,432.248,682.872z M435.7,716.988c0.543-1.248,0.868-2.313,0.976-3.196
		c-0.292-0.033-0.556-0.083-0.789-0.141c-0.231-0.056-0.471-0.044-0.723,0.046l-1.311,0.465c-0.873,0.309-1.669,0.945-2.385,1.901
		c-0.716,0.959-0.917,1.875-0.608,2.748l0.133,0.376c0.179,0.5,0.496,0.703,0.954,0.61c0.463-0.09,0.816-0.182,1.063-0.27
		C434.262,719.082,435.159,718.234,435.7,716.988z M436.159,660.595c0.253-0.09,0.567-0.482,0.953-1.182
		c0.384-0.698,0.768-1.503,1.148-2.412c0.384-0.907,0.743-1.773,1.082-2.6c0.341-0.822,0.677-1.362,1.007-1.623
		c0.208-0.212,0.554-0.724,1.04-1.529c0.488-0.805,1.06-1.674,1.711-2.611c0.736-1.106,1.508-2.292,2.323-3.566
		c-0.58,0.347-1.357,0.939-2.325,1.774c-0.969,0.838-1.72,1.491-2.259,1.961c-0.694,0.811-1.343,1.463-1.943,1.956
		c-0.594,0.496-1.328,1.104-2.198,1.834c-0.739,0.685-1.559,1.258-2.451,1.715c-0.894,0.458-1.328,1.104-1.314,1.943
		c-0.137,1.598-0.399,2.64-0.791,3.128c-0.386,0.49-0.638,1.175-0.745,2.059L436.159,660.595z M442.735,675.562
		c0.876-0.31,1.295-1.408,1.256-3.296c-0.036-1.885-0.276-3.453-0.719-4.702c-0.266-0.75-1.112-1.749-2.542-3.001
		c-1.426-1.251-2.518-1.743-3.266-1.478c-0.498,0.178-0.828,1.033-0.99,2.567c-0.159,1.534-0.128,2.615,0.093,3.238
		c-0.351,1.391-0.542,2.338-0.575,2.842c-0.031,0.505,0.139,1.674,0.507,3.514c0.171,0.08,0.569,0.114,1.198,0.102
		c0.629-0.012,1.301-0.004,2.014,0.025L442.735,675.562z M440.14,679.543c1.177-1.051,1.653-1.886,1.43-2.512
		c-0.176-0.498-0.911-0.694-2.212-0.587c-1.296,0.111-2.195,0.251-2.696,0.43c-0.033,0.295-0.131,0.716-0.289,1.263
		c-0.155,0.549-0.191,0.949-0.104,1.198l0.465,1.311c0.09,0.253,0.189,0.428,0.293,0.531c0.11,0.102,0.204,0.28,0.293,0.528
		C438.025,681.316,438.965,680.593,440.14,679.543z M447.934,684.268c-0.851-0.821-1.482-1.901-1.885-3.235
		c-0.401-1.334-1.384-2.215-2.945-2.647c-0.58,0.347-1.125,0.788-1.642,1.32c-0.512,0.535-1.015,1.1-1.509,1.696
		c-0.82,0.855-1.337,1.287-1.547,1.287c-0.209,0.005-0.679,0.558-1.414,1.663c0.171,0.081,0.44,0.443,0.806,1.086
		c0.37,0.643,0.719,1.327,1.046,2.055c0.332,0.727,0.627,1.466,0.893,2.217c0.267,0.75,0.443,1.251,0.532,1.498
		c0.09,0.253,0.299,0.739,0.627,1.466c0.332,0.727,0.719,1.433,1.172,2.117c0.454,0.682,0.906,1.26,1.355,1.735
		c0.451,0.474,0.799,0.664,1.049,0.577c0.627-0.223,1.222-0.818,1.79-1.795c0.571-0.975,1.032-2.055,1.385-3.235
		c0.355-1.181,0.552-2.412,0.59-3.691c0.041-1.28-0.119-2.416-0.475-3.419L447.934,684.268z M443.891,653.843l2.371-1.051
		l-1.215-1.046l-2.864,1.439c0.266,0.749,0.65,1.034,1.148,0.857L443.891,653.843z M447.108,657.555
		c1.625-0.577,2.572-1.474,2.842-2.696l-3.302-1.572l-0.858,1.148c-0.293-0.033-0.565-0.01-0.816,0.079l-0.75,0.267
		c-0.374,0.131-0.788,0.351-1.246,0.651l1.028,1.113l0.122-0.255l4.123-1.463l0.199,0.563l-2.37,1.051l-0.186,0.066
		c-0.376,0.131-0.667,0.203-0.878,0.204c-0.209,0.005-0.437,0.05-0.689,0.139c0.481,0.957,1.281,1.233,2.405,0.835L447.108,657.555z
		 M443.106,740.84c0.386,0.284,0.949,0.295,1.7,0.029c0.251-0.089,0.308-0.32,0.175-0.694c-0.292-0.033-0.627,0.014-1.002,0.147
		C443.604,740.454,443.316,740.629,443.106,740.84z M445.023,650.487c-0.133-0.376-0.282-0.496-0.447-0.369
		c-0.165,0.131-0.372,0.236-0.623,0.328l-0.186,0.066l-0.563,0.199l-0.043,1.069c0.376-0.133,0.639-0.191,0.784-0.172
		c0.148,0.019,0.407-0.039,0.783-0.174C445.101,651.303,445.2,650.988,445.023,650.487z M443.276,743.101l0.949,0.297l-0.068-0.187
		L443.276,743.101z M446.311,743.924l-1.433,0.719l0.066,0.186l1.125-0.399l1.378-0.277l-0.133-0.376L446.311,743.924z
		 M445.216,742.625l0.882,0.11c-0.131-0.376-0.386-0.495-0.76-0.363C445.215,742.414,445.173,742.503,445.216,742.625z
		 M472.127,706.069c-0.293-0.035-0.879,0.101-1.754,0.411c-0.873,0.309-1.499,0.533-1.874,0.665
		c-1.087,0.106-1.61,0.222-1.565,0.345c0.044,0.127-0.432,0.365-1.433,0.719c-1.248,0.442-2.383,0.812-3.408,1.103
		c-1.019,0.292-2.094,0.639-3.219,1.036l0.351-1.391l-2.008,0.291c0.348,0.583,0.757,1.139,1.227,1.674
		c0.474,0.538,1.066,0.818,1.777,0.847c0.025,1.257,0.162,1.946,0.417,2.068c0.253,0.121,0.413,0.664,0.471,1.626
		c-0.035,0.295,0.023,0.66,0.179,1.096c0.155,0.44,0.216,0.804,0.178,1.098c0.09,0.253,0.023,0.555-0.203,0.916
		c-0.222,0.362-0.313,0.606-0.268,0.729c0.089,0.251,0.365,0.328,0.821,0.235c0.464-0.091,0.971-0.239,1.534-0.438
		c0.561-0.199,1.147-0.438,1.746-0.725c0.604-0.284,1.029-0.471,1.279-0.559c0.162-0.338,0.22-0.569,0.175-0.694
		c-0.087-0.249-0.216-0.415-0.386-0.496c-0.043-0.123-0.128-0.165-0.253-0.121l-0.145-1.003l-1.524-0.726
		c0.332-0.255,0.407-0.637,0.231-1.136c-0.177-0.498-0.394-0.915-0.652-1.246l9.116-3.446l-1.789-1.474L472.127,706.069z
		 M467.6,709.364l-4.124,1.463l-2.503,0.678l-0.133-0.376l6.064-1.94l2.182-0.986l0.187-0.066c0.251-0.089,0.346-0.123,0.282-0.1
		c-0.063,0.022,0.076,0.114,0.413,0.276c-0.123,0.044-0.176,0.098-0.154,0.16c0.023,0.065-0.027,0.116-0.154,0.16L467.6,709.364z
		 M461.087,720.746c0.133,0.376,0.452,0.58,0.955,0.61c0.506,0.032,1.018-0.008,1.539-0.123c0.523-0.114,1.013-0.324,1.465-0.625
		c0.457-0.301,0.66-0.726,0.604-1.272L461.087,720.746z M461.131,713.138l1.311-0.467c0.054,0.544-0.295,0.949-1.046,1.216
		L461.131,713.138z M462.539,717.7l-0.75,0.267l-0.133-0.376l1.311-0.467l2.503-0.676c-0.158,0.338-0.364,0.55-0.617,0.64
		L462.539,717.7z M461.929,715.385l-0.012-0.629l0.374-0.133l0.563-0.199l1.136,0.23c-0.123,0.043-0.176,0.097-0.154,0.16
		c0.023,0.065-0.029,0.114-0.154,0.16L461.929,715.385z M469.933,712.968c0.411-0.427,1.129-0.788,2.148-1.079
		c1.025-0.291,1.423-0.747,1.202-1.375c-0.043-0.123-0.233-0.268-0.575-0.431l-5.059,1.796l-0.122,0.255L469.933,712.968z
		 M467.725,706.155c0.59,0.074,1.604-0.147,3.039-0.656c1.438-0.51,2.067-1.013,1.889-1.514c-0.222-0.623-0.841-0.685-1.86-0.185
		c-1.015,0.504-1.715,0.82-2.088,0.953l-0.563,0.199L467.725,706.155z M471.922,701.921c-0.133-0.374-0.471-0.535-1.015-0.484
		c-0.54,0.054-0.94,0.122-1.191,0.21l-0.75,0.267c-0.624,0.222-1.015,0.607-1.173,1.154c-0.154,0.55,0.038,0.797,0.581,0.745
		c0.59,0.074,1.142-0.054,1.659-0.379c0.519-0.321,1.09-0.597,1.715-0.818C471.998,702.529,472.056,702.297,471.922,701.921z
		 M511.549,705.377c0.128-0.044,0.496-0.386,1.113-1.028c0.617-0.641,1.306-1.376,2.065-2.21c0.76-0.83,1.48-1.579,2.158-2.242
		c0.682-0.665,1.123-1.102,1.327-1.314c0.208-0.213,0.639-0.682,1.294-1.409c0.66-0.725,1.337-1.493,2.032-2.304
		c0.698-0.807,1.27-1.575,1.717-2.296c0.451-0.72,0.627-1.205,0.538-1.459c-0.131-0.374-0.668-0.606-1.615-0.692
		c-0.945-0.087-2.003-0.097-3.177-0.033c-1.169,0.065-2.323,0.191-3.452,0.382c-1.127,0.187-1.943,0.372-2.443,0.549
		c-1.168,0.277-2.086,0.461-2.756,0.556c-0.667,0.097-1.605,0.431-2.811,0.998c-0.704,0.392-1.671,0.838-2.898,1.345
		c-1.225,0.507-2.045,0.974-2.458,1.399c-1.652,1.291-3.15,2.42-4.493,3.388c-1.345,0.971-2.8,2.015-4.375,3.135
		c-0.332,0.259-0.865,0.729-1.609,1.414c-0.739,0.685-1.492,1.445-2.252,2.275c-0.76,0.833-1.477,1.58-2.159,2.243
		c-0.678,0.662-1.117,1.103-1.326,1.314c-0.874,0.309-1.765,0.874-2.672,1.686c-0.903,0.815-2.046,1.464-3.422,1.953l-2.062,0.731
		c-0.374,0.133-1.156,0.305-2.348,0.517c-1.192,0.212-1.871,0.278-2.041,0.195c0.216,0.208,1.154,0.471,2.814,0.795
		c1.667,0.328,2.914,0.481,3.751,0.463c1.092-0.102,2.273-0.135,3.553-0.1c1.28,0.042,2.464,0.008,3.552-0.098
		c1.257-0.025,2.596-0.216,4.013-0.58c1.422-0.363,2.691-0.848,3.81-1.457c1.123-0.608,1.966-1.401,2.534-2.376
		c0.571-0.975,0.608-2.149,0.122-3.524l-0.399-1.125c-0.177-0.498-0.436-1.038-0.787-1.62c-0.343-0.58-0.268-0.959,0.23-1.136
		c0.876-0.311,1.783-0.031,2.722,0.828c0.939,0.864,2.096,1.051,3.469,0.562l0.376-0.131c0.75-0.267,0.969-0.836,0.658-1.712
		l-0.131-0.374c-0.223-0.624-0.576-1.025-1.061-1.205c-0.485-0.179-0.838-0.58-1.061-1.206c-0.087-0.247,0.22-0.675,0.92-1.275
		c0.704-0.598,1.177-0.947,1.426-1.034l0.561-0.199c1.251-0.443,2.552-0.446,3.9-0.011c1.352,0.436,2.204,1.154,2.557,2.152
		c0.355,1,0.522,1.962,0.496,2.885c-0.023,0.923-0.114,1.764-0.267,2.521L511.549,705.377z M482.821,729.073
		c-0.089-0.247-0.355-0.506-0.801-0.77c-0.442-0.264-0.791-0.353-1.042-0.264l-0.187,0.068c-1,0.353-1.3,1.094-0.899,2.219
		l0.64,0.617c0.216,0.208,0.386,0.495,0.521,0.87l1.192-0.212c0.164-0.337,0.355-0.685,0.577-1.049
		c0.226-0.361,0.247-0.791,0.07-1.291L482.821,729.073z M501.528,712.519c1.731-0.474,2.777-1.196,3.135-2.167
		c-0.376,0.133-0.967,0.342-1.78,0.631c-0.811,0.288-1.623,0.576-2.436,0.865c-0.811,0.287-1.538,0.618-2.181,0.984
		c-0.641,0.37-0.981,0.7-1.019,0.996C498.371,713.429,499.799,712.995,501.528,712.519z M498.285,728.65l0.066,0.187
		c0.131,0.376,0.386,0.495,0.76,0.362c0.253-0.089,0.365-0.266,0.335-0.539c-0.025-0.272-0.06-0.469-0.106-0.596
		c-0.176-0.496-0.641-0.616-1.39-0.349L498.285,728.65z M507.429,708.632c0.722-0.747,1.034-1.457,0.934-2.126
		c-0.712-0.027-1.451,0.165-2.222,0.579c-0.766,0.413-1.65,0.795-2.65,1.151c-0.749,0.266-1.58,0.598-2.497,0.992
		c-0.915,0.396-1.239,0.967-0.974,1.717l4.311-1.529c0.376-0.131,0.627-0.118,0.756,0.048c0.131,0.166,0.301,0.351,0.513,0.555
		C506.102,709.842,506.712,709.381,507.429,708.632z M509.357,705.732c0.25-0.089,0.444-0.332,0.583-0.733
		c0.141-0.4,0.141-0.791,0.008-1.164l-5.93,2.316c-0.498,0.177-1.334,0.404-2.504,0.677c-1.167,0.277-1.641,0.725-1.419,1.349
		l0.199,0.562L509.357,705.732z M504.326,699.289c-0.376,0.133-0.519,0.325-0.43,0.573c0.089,0.253,0.282,0.395,0.573,0.43
		c0.295,0.037,0.567,0.01,0.816-0.077c0.253-0.09,0.365-0.162,0.341-0.226c-0.022-0.063,0.093-0.139,0.342-0.229l0.937-0.332
		c-0.471-0.534-1.144-0.649-2.02-0.337L504.326,699.289z M509.911,701.95c-0.376,0.131-0.65-0.05-0.828-0.55
		c-0.087-0.249-0.039-0.407,0.148-0.474c0.187-0.068,0.237-0.224,0.149-0.477c-0.043-0.123-0.171-0.182-0.382-0.18
		c-0.21,0.004-0.359-0.118-0.447-0.371c-0.366,0.552-0.612,0.849-0.739,0.895l-0.376,0.133c-0.249,0.089-0.573,0.066-0.975-0.075
		c-0.399-0.139-0.912-0.098-1.54,0.124l1.281,1.233c0.011,0.419,0.102,0.88,0.278,1.378l0.133,0.376l3.187-1.13L509.911,701.95z
		 M521.62,725.436c1.375-0.488,2.43-1.775,3.164-3.867c0.736-2.088,0.838-3.884,0.307-5.383c-0.753-2.123-2.212-3.857-4.377-5.2
		c-2.165-1.341-4.183-1.68-6.057-1.015l-2.248,0.797c-2.125,0.753-3.908,2.266-5.355,4.539c-1.441,2.271-1.812,4.408-1.103,6.404
		c0.09,0.253,0.564,0.401,1.424,0.446c0.859,0.047,1.526,0.338,1.997,0.872c0.341,0.162,0.953,0.4,1.838,0.72
		c0.888,0.318,1.517,0.411,1.892,0.278c-0.471-0.536-0.708-1.401-0.709-2.596c-0.002-1.194,0.056-2.026,0.172-2.488
		c0.052-1.844,1.073-3.124,3.07-3.832l0.376-0.133c0.75-0.266,1.708-0.148,2.869,0.353c1.163,0.504,1.876,1.127,2.142,1.877
		l0.158,1.631c0.107,1.09,0.033,1.677-0.218,1.766c-0.409,0.43-0.673,0.872-0.793,1.335c-0.117,0.464-0.463,0.87-1.046,1.216
		l0.949,0.295c-0.241,0.507-0.486,0.805-0.737,0.895l-0.187,0.066c-0.873,0.31-1.613,0.012-2.219-0.9
		c-0.293-0.035-0.662-0.081-1.103-0.137c-0.44-0.053-0.787-0.037-1.038,0.052c-0.249,0.087-0.286,0.28-0.114,0.569
		c0.176,0.291,0.667,0.785,1.475,1.481c0.384,0.286,1.108,0.451,2.18,0.494c1.069,0.041,1.978-0.071,2.729-0.336L521.62,725.436z
		 M518.452,717.698c-0.266-0.749-0.939-0.859-2.02-0.338c-1.079,0.525-1.929,0.897-2.557,1.119l-0.108,0.882
		c0.34,0.164,0.413,0.277,0.226,0.342c-0.187,0.065-0.029,0.011,0.469-0.168l0.938-0.332L518.452,717.698z M516.56,720.691
		c0.297,0.036,0.649-0.159,1.056-0.588c0.413-0.426,0.87-0.729,1.368-0.905c-0.168-0.08-0.305-0.174-0.415-0.276
		c-0.104-0.102-0.282-0.112-0.535-0.023l-0.187,0.068c-0.498,0.177-1.175,0.453-2.028,0.825c-0.849,0.376-1.229,0.895-1.134,1.563
		L516.56,720.691z M536.012,710.097c0.978-0.416,1.623-1.173,1.937-2.27c0.191-1.051,0.849-1.673,1.976-1.862
		c1.13-0.189,2.212-0.607,3.246-1.256c-0.631-0.197-1.032-0.231-1.198-0.102c-0.164,0.131-0.667-0.008-1.515-0.411
		c-0.383-0.287-0.764-0.573-1.15-0.858c-0.382-0.287-0.76-0.363-1.136-0.23l-1.499,0.532c-0.249,0.089-0.425,0.292-0.523,0.608
		c-0.098,0.318-0.249,0.583-0.457,0.794l2.637-0.301l0.561-0.199c0.089,0.251,0.01,0.417-0.243,0.506l-1.685,0.598
		c-0.498,0.177-0.833,0.228-1.003,0.145c-0.168-0.079-0.376-0.076-0.629,0.012c-0.123,0.044-0.42,0.396-0.893,1.055
		c-0.467,0.66-1.079,1.121-1.828,1.387c0.384,0.284,0.94,0.267,1.665-0.064c0.729-0.328,1.428-0.539,2.095-0.638
		c0.133,0.376-0.131,0.716-0.797,1.022c-0.662,0.307-1.247,0.546-1.747,0.725C534.307,710.246,535.036,710.516,536.012,710.097z
		 M539.953,684.329c0.625-0.223,1.216-0.538,1.773-0.947c0.561-0.409,0.836-0.824,0.826-1.242c-0.212-0.206-0.706-0.206-1.478-0.004
		c-0.772,0.204-1.594,0.461-2.47,0.77c-0.873,0.31-1.664,0.662-2.371,1.051c-0.704,0.392-1.096,0.672-1.178,0.841
		c0.464,0.12,1.178,0.145,2.14,0.085c0.965-0.059,1.632-0.158,2.008-0.291L539.953,684.329z M536.638,701.752l-0.241,0.506
		c0.133,0.376,0.64,0.407,1.511,0.097l-0.199-0.563c-0.176-0.498-0.513-0.661-1.015-0.484
		C536.737,701.437,536.72,701.584,536.638,701.752z M543.482,684.765c0.501-0.179,0.661-0.515,0.484-1.015
		c-0.176-0.498-0.64-0.618-1.39-0.351l-1.501,0.532l-1.619,0.787c0.311,0.876,0.841,1.179,1.59,0.913L543.482,684.765z
		 M546.583,705.397c-0.212-0.206-0.331-0.337-0.355-0.403c-0.022-0.062-0.22-0.027-0.594,0.106l-4.31,1.529
		c-0.624,0.222-0.826,0.646-0.604,1.27l3.56-1.263c0.165-0.337,0.682-0.664,1.555-0.973L546.583,705.397z M560.759,680.532
		c0.501-0.177,1.113-0.532,1.835-1.071c0.726-0.538,1.426-1.14,2.104-1.801c0.682-0.665,1.222-1.311,1.629-1.951
		c0.407-0.637,0.523-1.204,0.346-1.705c-0.133-0.376-0.745-0.613-1.839-0.719c-1.092-0.104-2.338-0.154-3.745-0.149
		c-1.403,0.006-2.817,0.087-4.241,0.237c-1.42,0.156-2.443,0.341-3.07,0.564c-0.75,0.266-1.821,0.612-3.219,1.036
		c-1.396,0.426-2.769,0.912-4.124,1.463c-1.351,0.55-2.557,1.117-3.616,1.704c-1.059,0.586-1.708,1.134-1.95,1.641
		c1.295-0.318,2.729-0.335,4.307-0.05c1.578,0.283,3.199,0.59,4.86,0.913c1.665,0.325,3.398,0.555,5.202,0.687
		c1.808,0.131,3.522-0.09,5.146-0.666L560.759,680.532z M544.768,709.205c1.124-0.399,1.511-1.096,1.154-2.098
		c-0.623,0.222-1.04,0.336-1.251,0.338c-0.209,0.005-0.625,0.116-1.253,0.337l-1.994,0.92c0.855,0.824,1.719,1.077,2.593,0.767
		L544.768,709.205z M541.686,686.245c0.392,0.704,0.828,0.94,1.304,0.698c0.479-0.239,1.007-0.533,1.586-0.879
		c-0.266-0.75-0.563-0.996-0.895-0.739L541.686,686.245z M545.796,703.777c0.164-0.338,0.253-0.475,0.276-0.413
		c0.023,0.065,0.071-0.199,0.141-0.789l-1.982,1.547l-0.309,0.32l1.312-0.465L545.796,703.777z M548.789,712.212
		c-0.376,0.131-0.559,0.303-0.556,0.513c0.006,0.209-0.011,0.461-0.048,0.756l1.124-0.399c0.376-0.133,0.496-0.386,0.363-0.762
		c-0.087-0.249-0.32-0.308-0.694-0.176L548.789,712.212z M570.759,703.361c1.375-0.488,2.739-1.499,4.092-3.034
		c1.353-1.535,2.273-2.81,2.756-3.826c0.362-0.973,0.61-1.658,0.746-2.059c0.141-0.4,0.305-1.127,0.492-2.18
		c0.362-0.971,0.522-1.801,0.488-2.493c-0.034-0.692,0.026-1.413,0.178-2.174l-0.187,0.068l-0.544-2.128
		c-0.089-0.25-0.542-0.44-1.362-0.571c-0.818-0.131-1.314-0.236-1.486-0.318c-0.756-0.154-1.324-0.164-1.698-0.031
		c-0.376,0.133-0.849,0.375-1.433,0.719c-0.784,0.562-1.959,1.117-3.522,1.671c-1.561,0.552-2.21,1.205-1.943,1.956l0.264,0.749
		c0.224,0.627,0.431,1.007,0.62,1.154c0.192,0.141,0.399,0.527,0.62,1.152l0.199,0.561c0.31,0.876,0.393,1.795,0.24,2.763
		c-0.147,0.97-0.721,1.627-1.722,1.982l-0.563,0.199c-0.498,0.177-1.076,0.032-1.737-0.438c-0.658-0.468-1.077-0.951-1.254-1.453
		l-0.201-0.563c-0.353-0.998-0.268-2.047,0.255-3.15c0.525-1.1,0.928-2.049,1.202-2.854c-0.933-0.65-1.998-0.977-3.194-0.976
		c-1.193,0.002-2.266,0.454-3.213,1.353c-0.865,0.73-1.493,1.341-1.882,1.828c-0.386,0.488-0.634,0.894-0.731,1.208
		c-0.098,0.319-0.198,0.634-0.297,0.949c-0.098,0.319-0.332,0.75-0.698,1.304c0.399,1.124,0.532,1.889,0.389,2.287
		c-0.138,0.401,0.206,1.37,1.032,2.904c0.606,0.912,1.06,1.596,1.359,2.049c0.305,0.457,1.088,0.88,2.352,1.275
		c0.34,0.164,0.982,0.389,1.932,0.687c0.949,0.297,1.698,0.42,2.238,0.367c0.59,0.074,1.555,0.012,2.892-0.181
		c1.339-0.192,2.132-0.334,2.382-0.423L570.759,703.361z M567.822,694.486c0.075-0.587,0.008-1.163-0.191-1.726
		c-0.199-0.561-0.448-1.069-0.752-1.526c-0.299-0.453-0.515-0.661-0.641-0.617c-0.624,0.222-1.001,0.743-1.134,1.563
		c-0.131,0.821-0.085,1.544,0.137,2.167c0.089,0.253,0.274,0.573,0.552,0.965c0.282,0.393,0.546,0.544,0.795,0.455
		C567.336,695.502,567.749,695.076,567.822,694.486z"/>
</g>
<g>
	<path fill="#F3A460" d="M162.438,638.973c1.532,0.828,2.945,1.715,4.228,2.66c1.279,0.949,2.582,1.937,3.906,2.968
		c1.196,0.988,2.512,2.229,3.952,3.722c1.439,1.496,3.184,2.327,5.237,2.489l0.199-0.561c0.576-1.621,1.774-2.921,3.597-3.894
		c1.821-0.969,3.604-1.147,5.357-0.525c1.498,0.532,2.341,1.22,2.538,2.061c0.191,0.843,0.422,1.874,0.694,3.096
		c-0.384,0.284-0.641,0.617-0.774,0.992c-0.131,0.374-0.31,0.77-0.525,1.185c-0.22,0.416-0.592,0.777-1.121,1.08
		c-0.532,0.307-1.362,0.467-2.493,0.488c-1.223,0.271-2.404,0.133-3.547-0.413c-1.146-0.546-2.242-0.724-3.292-0.535
		c0.002,1.972,0.581,3.514,1.736,4.625c0.159,0.338,0.859,0.938,2.104,1.801c1.241,0.863,1.984,1.338,2.236,1.426
		c0.624,0.222,1.06,0.376,1.312,0.467c0.249,0.087,0.49,0.594,0.725,1.521c-1.598,0.139-2.702-0.114-3.319-0.755
		c-0.617-0.64-1.551-1.183-2.798-1.626l-2.812-0.997c-0.131,0.374-0.451,0.473-0.949,0.295c-0.127-0.044-0.458-0.195-0.998-0.459
		c-0.539-0.261-0.899-0.141-1.076,0.357l0.762,6.179c-0.019,0.838-0.039,1.393-0.064,1.667c-0.026,0.274-0.094,0.951-0.196,2.038
		c0.025,0.716,0.08,1.262,0.158,1.64c0.076,0.38,0.004,0.882-0.219,1.505l1.688,0.598c1.748,0.621,3.002,1.349,3.763,2.179
		c0.76,0.835,0.807,2.185,0.141,4.06c-0.089,0.251-0.473,0.538-1.147,0.859c-0.679,0.322-1.374,0.498-2.086,0.525
		c-0.716,0.029-1.332-0.016-1.853-0.129c-0.523-0.114-1.081,0.075-1.677,0.566l-0.864,2.436l-0.133,0.376l0.495,0.386l-5.729,10.205
		l-0.199,0.563c0.534,0.473,1.113,0.923,1.735,1.354c0.618,0.432,1.306,0.78,2.055,1.048c0.75,0.266,1.953,0.342,3.613,0.226
		c1.656-0.114,2.779-0.207,3.369-0.282c0.331,0.259,0.59,0.42,0.778,0.488c0.187,0.066,0.214,0.286,0.08,0.661
		c-0.044,0.127-0.586,0.461-1.623,1.007c-1.038,0.548-1.855,1.065-2.451,1.557c-0.303,0.455-0.746,1.212-1.333,2.27
		c-0.586,1.059-0.991,1.901-1.212,2.524c-0.089,0.251-0.032,0.482,0.176,0.694c0.204,0.214,0.197,0.634-0.025,1.258
		c1.659,0.87,3.031,1.567,4.112,2.09c1.079,0.525,2.237,1.426,3.469,2.708c1.025,1.069,1.118,2.294,0.276,3.684
		c-0.845,1.387-1.953,1.838-3.327,1.351l-0.561-0.198c-1.252-0.444-2.277-1.615-3.078-3.518c-0.803-1.901-1.594-3.342-2.371-4.323
		c-1.631-0.156-3.153-0.025-4.567,0.384c-1.413,0.416-2.752,0.818-4.018,1.212c-1.605,0.558-2.868,1.341-3.786,2.349
		c-0.923,1.011-2.043,1.986-3.358,2.923c-0.266,0.75-0.604,1.406-1.013,1.962c-0.41,0.561-0.79,1.127-1.134,1.708
		c-0.179,0.501-0.326,1.117-0.443,1.847c-0.122,0.731-0.168,1.453-0.135,2.167c-0.443,1.251-0.667,2.473-0.667,3.667
		c-0.002,1.195,0.129,2.403,0.401,3.624c0.276,0.803,0.697,1.796,1.263,2.98c0.561,1.185,1.239,2.059,2.026,2.617
		c1.114,0.818,2.327,1.073,3.633,0.762c1.304-0.309,2.158-1.028,2.557-2.153l0.066-0.186c0.222-0.625,0.147-1.109-0.224-1.451
		c-0.373-0.343,0.174-0.394,1.638-0.158c0.794,0.143,1.451,0.27,1.974,0.384c0.519,0.116,1.049,0.409,1.586,0.88
		c1.158,0.694,1.69,1.48,1.59,2.358c-0.101,0.88-0.079,1.907,0.068,3.082l-2.068,2.854l3.09-0.382
		c0.998,0.353,2.119,0.367,3.363,0.033c1.242-0.332,2.285-0.699,3.134-1.103c1.183-0.564,2.038-1.283,2.557-2.153
		c0.521-0.87,1.205-1.716,2.063-2.538l-0.274-2.206c-0.75-0.267-1.488-0.667-2.21-1.206c-0.726-0.538-1.384-1.156-1.977-1.862
		c-0.593-0.702-1.055-1.392-1.375-2.069c-0.324-0.677-0.395-1.266-0.218-1.768l0.266-0.747c0.575-1.623,1.551-2.194,2.926-1.706
		l1.125,0.399c1.123,0.398,2.078,1.474,2.862,3.23c0.782,1.756,0.953,3.259,0.511,4.508c0.159,0.34,0.303,0.529,0.43,0.573
		l0.187,0.066c1.621,0.576,2.62,0.544,2.99-0.1c0.365-0.641,0.918-1.605,1.659-2.893c0.736-1.284,1.42-2.026,2.055-2.225
		c0.631-0.199,1.332-0.583,2.099-1.154c1.066-1.027,2.754-1.623,5.064-1.79c2.307-0.164,4.315,0.127,6.022,0.87
		c1.457,0.658,2.408,1.243,2.86,1.753c0.452,0.513,1.087,1.196,1.912,2.049c0.774,0.981,1.221,1.804,1.335,2.478
		c0.11,0.673,0.346,1.496,0.708,2.467c0.025,0.716-0.096,1.656-0.37,2.824c-0.276,1.168-0.668,2.083-1.185,2.744
		c-0.517,0.661-1.242,1.215-2.171,1.658c-0.933,0.443-1.77,0.532-2.521,0.266c-1.251-0.443-2.535-1.284-3.852-2.526
		c-1.321-1.241-1.777-2.425-1.379-3.55l0.533-1.498c0.266-0.75,0.913-1.293,1.95-1.63c1.033-0.335,1.986-0.349,2.862-0.039
		l0.561,0.199c0.75,0.266,1.275,0.662,1.58,1.194c0.304,0.531,0.513,1.027,0.633,1.491c-0.31,0.876-0.652,1.246-1.028,1.112
		l-0.749-0.266c0.177-0.498,0.155-1.033-0.064-1.605c-0.22-0.57-0.643-0.967-1.266-1.188l-0.187-0.066
		c-0.627-0.224-1.195-0.002-1.711,0.658c-0.517,0.658-0.885,1.305-1.106,1.928c-0.177,0.5-0.104,0.984,0.224,1.45
		c0.326,0.469,0.739,0.791,1.239,0.969l0.187,0.066c1.499,0.532,2.718,0.367,3.657-0.496c0.939-0.861,1.515-1.994,1.732-3.395
		c0.214-1.401,0-2.881-0.639-4.445c-0.641-1.563-1.814-2.718-3.518-3.464c-1.708-0.743-3.147-1.044-4.322-0.9
		c-1.179,0.145-2.547,0.434-4.105,0.865c-1.008,0.063-1.65,0.189-1.926,0.372c-0.277,0.185-0.859,0.539-1.749,1.067
		c-0.384,0.284-0.94,0.863-1.668,1.729c-0.731,0.869-1.14,1.426-1.227,1.674c-0.089,0.251-0.128,0.449-0.106,0.594
		c0.017,0.148-0.039,0.409-0.174,0.784c0.91,0.606,1.814,1.136,2.706,1.593c0.894,0.458,1.648,1.006,2.264,1.647
		c0.661,0.519,1.235,1.28,1.719,2.297c0.485,1.015,0.592,1.897,0.328,2.647l-0.334,0.938c-0.222,0.627-0.743,1.001-1.563,1.133
		c-0.821,0.131-1.544,0.087-2.167-0.134l-0.937-0.332c-0.876-0.311-1.514-0.888-1.916-1.736c-0.406-0.847-0.735-1.702-0.99-2.565
		c-0.257-0.863-0.461-1.674-0.614-2.435c-0.151-0.757-0.293-1.158-0.416-1.204c-0.5-0.177-1.096-0.283-1.787-0.316
		c-0.693-0.036-1.248-0.054-1.667-0.064c-0.843,2.376-1.886,4.22-3.126,5.537c-1.242,1.32-2.709,2.383-4.4,3.187
		c-0.76,0.153-1.582,0.386-2.467,0.708c-0.888,0.318-1.749,0.471-2.588,0.453c-0.59,0.074-1.65,0.083-3.176,0.033
		c-1.532-0.05-2.483-0.141-2.857-0.276l-1.311-0.465c-2.376-0.843-4.498-2.192-6.369-4.052c-1.872-1.859-3.065-3.653-3.576-5.384
		c-0.324-0.676-0.598-1.09-0.826-1.243c-0.23-0.15-0.313-0.706-0.251-1.669c-0.074-0.59-0.21-1.096-0.411-1.518
		c-0.203-0.421-0.318-0.99-0.343-1.705c-0.164-0.337-0.226-0.851-0.191-1.545c0.033-0.691,0.091-1.445,0.17-2.26
		c0.077-0.818,0.196-1.546,0.357-2.195c0.156-0.646,0.428-1.114,0.812-1.399l-0.363-0.762c0.426-0.41,0.885-1.301,1.372-2.678
		c0.488-1.372,1.241-2.514,2.266-3.415c0.852-0.822,1.603-1.541,2.243-2.158c0.641-0.618,1.405-1.19,2.297-1.719
		c0.845-0.403,1.776-0.847,2.793-1.331c1.015-0.482,1.966-0.78,2.846-0.888c0.587-0.074,1.662-0.22,3.217-0.442
		c1.555-0.22,2.422-0.583,2.599-1.083l0.133-0.374l0.743-2.691l2.049-5.181l-7.244-2.781c-0.125-0.044-0.392,0.11-0.795,0.458
		c-0.407,0.349-0.824,0.73-1.249,1.137c-0.428,0.413-0.855,0.824-1.281,1.236c-0.43,0.411-0.664,0.679-0.706,0.803
		c-1.491,1.021-3.103,2.205-4.847,3.555c-0.678,0.324-1.401,0.874-2.171,1.657c-0.772,0.78-1.432,1.358-1.983,1.723
		c-0.678,0.324-1.302,1.086-1.868,2.291c-0.569,1.205-0.963,2.12-1.185,2.744c0.117,0.463,0.181,0.875,0.196,1.231
		c0.012,0.355,0.101,0.702,0.264,1.042c0.16,0.34,0.314,0.606,0.457,0.795c0.143,0.192,0.125,0.539-0.052,1.038l-0.131,0.376
		c-0.133,0.376-0.498,0.809-1.094,1.299c-0.597,0.495-1.127,0.797-1.59,0.913c-0.972,0.362-1.572,0.465-1.798,0.313
		c-0.23-0.15-0.843-0.405-1.841-0.76c-1.536-0.825-2.4-1.765-2.589-2.817c-0.208-0.212-0.234-0.822-0.09-1.825
		c0.144-1.002,0.261-1.627,0.349-1.879c0.133-0.376,0.294-0.635,0.488-0.778c0.189-0.143,0.392-0.315,0.607-0.523
		c-2.239,0.756-4.524,1.349-6.858,1.787c-2.337,0.436-4.805,0.757-7.408,0.957c-0.716,0.029-1.312,0.029-1.792-0.002
		c-0.485-0.029-1.082-0.029-1.792-0.004c-0.76,0.153-1.43,0.162-2.014,0.025c-0.586-0.134-1.152-0.23-1.694-0.283
		c-0.295,0.037-0.848,0.016-1.664-0.063c-0.818-0.079-1.667-0.169-2.542-0.27c-0.882-0.101-1.748-0.231-2.603-0.395
		c-0.859-0.164-1.411-0.289-1.661-0.379l-5.059-1.795c-0.749-0.266-1.708-0.743-2.866-1.439c-1.161-0.692-2.3-1.45-3.415-2.267
		c-1.117-0.818-2.086-1.653-2.908-2.508c-0.825-0.853-1.209-1.553-1.154-2.098c-1.378-0.488-2.744-1.396-4.1-2.721
		c-1.359-1.326-2.684-2.745-3.975-4.259c-1.293-1.513-2.45-2.905-3.473-4.184c-1.024-1.277-1.912-2.051-2.66-2.317
		c-0.627-0.223-1.542-0.019-2.746,0.608c-1.208,0.627-2.026,1.147-2.452,1.557c-0.43,0.411-1.073,1.134-1.928,2.164
		c-0.861,1.034-1.399,1.862-1.62,2.487c-0.178,0.5-0.249,0.897-0.212,1.19c0.033,0.295-0.056,0.755-0.277,1.378
		c-0.09,0.253,0.096,0.916,0.559,1.992c0.461,1.081,1.066,1.752,1.817,2.018c0.123,0.043,0.512,0.042,1.163-0.01
		c0.65-0.049,0.998-0.137,1.042-0.262c0.384,1.684,0.039,3.252-1.033,4.696c-1.077,1.447-2.489,1.86-4.237,1.239l-1.312-0.465
		c-0.251-0.09-0.634-0.294-1.152-0.621c-0.519-0.322-0.943-0.614-1.272-0.872c-0.597,0.492-1.028,1.112-1.294,1.862
		c-0.488,1.376-0.438,3.116,0.151,5.223c0.587,2.109,1.059,3.647,1.42,4.62c0.488,0.596,0.874,1.296,1.154,2.096
		c0.276,0.803,0.683,1.439,1.221,1.912c0.91,0.604,1.729,0.967,2.463,1.084c0.73,0.121,1.484,0.668,2.265,1.648l6.723,3.653
		l1.499,0.532c0.498,0.177,1.28,0.349,2.35,0.517c1.062,0.166,2.11,0.293,3.136,0.374c1.025,0.083,1.968,0.102,2.829,0.054
		c0.861-0.043,1.481-0.213,1.866-0.498c0.507-0.241,0.784-0.423,0.828-0.549c0.044-0.124,0.444-0.264,1.205-0.417
		c0.755-0.154,1.125-0.304,1.108-0.451c-0.021-0.145,0.27-0.464,0.868-0.957c0.212-0.206,0.729-0.867,1.546-1.982
		c0.818-1.114,1.272-1.798,1.36-2.051c0.133-0.376,0.256-0.822,0.373-1.345c0.112-0.522,0.046-0.828-0.203-0.916
		c-0.501-0.179-1.239,0.019-2.213,0.586c-0.976,0.571-2.109,1.188-3.4,1.854c-1.293,0.67-2.644,1.208-4.056,1.621
		c-1.413,0.413-2.808,0.376-4.18-0.114c-2.5-0.888-4.232-2.345-5.2-4.376c-0.494-0.597-0.809-1.586-0.949-2.974
		c-0.141-1.386-0.033-2.579,0.321-3.58c0.62-1.748,1.422-3.219,2.412-4.419c0.986-1.196,2.198-2.031,3.633-2.509
		c1.307-0.518,2.852-0.709,4.635-0.571c1.776,0.138,3.412,0.683,4.905,1.635c1.284,0.739,2.458,1.787,3.524,3.149
		c1.062,1.363,1.729,2.654,2.001,3.875c0.153,0.76,0.336,1.525,0.554,2.307c0.213,0.78,0.716,1.45,1.503,2.009
		c0.498,0.177,1.019,0.294,1.565,0.345c0.54,0.054,0.959,0.272,1.246,0.652c0.453,0.303,0.784,0.561,0.992,0.774
		c0.204,0.214,0.558,0.407,1.057,0.586l0.563,0.199c0.498,0.177,1.097,0.18,1.792,0.004c0.694-0.176,1.54-0.087,2.542,0.268
		l0.374,0.133c1.124,0.399,1.983,0.95,2.579,1.653c0.593,0.704,1.113,1.417,1.563,2.137c0.033,0.295,0.64,0.964,1.818,2.015
		c1.173,1.051,1.883,1.62,2.136,1.71l0.563,0.199c0.374,0.131,0.729,0.12,1.069-0.043c-0.991-0.774-1.364-1.503-1.12-2.19
		c0.243-0.687,0.542-1.529,0.897-2.531c0.463-0.117,1.114-0.376,1.965-0.78c0.845-0.404,1.599-0.346,2.261,0.17
		c0.534,0.473,1.002,1.13,1.409,1.974c0.4,0.848,0.492,1.584,0.272,2.207c-0.488,1.376-1.284,2.43-2.387,3.161
		c-1.104,0.736-2.283,0.879-3.531,0.436l-0.75-0.266c-1.251-0.444-2.408-1.242-3.475-2.394c-1.069-1.151-1.868-2.173-2.394-3.064
		c-0.539-0.471-0.969-0.942-1.294-1.408c-0.33-0.467-0.845-0.897-1.547-1.289c-0.583-0.345-1.322-0.643-2.215-0.893
		c-0.899-0.245-1.457-0.059-1.678,0.566c-0.089,0.251-0.033,0.588,0.17,1.008c0.198,0.425,0.319,0.784,0.355,1.077
		c-0.223,0.627-0.337,1.146-0.343,1.565c-0.01,0.419-0.228,0.837-0.652,1.246c-0.341,0.162-0.722,0.343-1.142,0.543
		c-0.426,0.203-0.762,0.259-1.011,0.171l-0.937-0.334c-0.627-0.223-0.943-0.614-0.951-1.182c-0.011-0.565,0.095-1.158,0.318-1.786
		c0.222-0.623,0.537-1.214,0.947-1.774c0.409-0.556,0.743-1.002,1-1.333c-0.735-1.104-1.725-1.879-2.974-2.321l-0.749-0.267
		c-0.501-0.179-0.988,0.004-1.459,0.539l-1.97,4.365c-0.474,0.537-1.022,1.185-1.641,1.95c-0.624,0.763-1.318,1.43-2.083,2.003
		c-0.384,0.286-0.724,0.555-1.021,0.797c-0.299,0.247-0.491,0.494-0.581,0.743c-0.384,0.284-0.729,0.658-1.028,1.112
		c-0.303,0.457-0.624,0.764-0.961,0.926c-0.507,0.24-1.341,0.405-2.493,0.488c-1.157,0.083-1.919,0.058-2.293-0.076
		c-0.253-0.089-1.181-0.24-2.79-0.463c-1.609-0.222-2.667-0.417-3.165-0.594l-2.623-0.93c-0.253-0.089-0.697-0.32-1.339-0.687
		c-0.644-0.371-1.381-0.77-2.211-1.205c-0.832-0.436-1.598-0.848-2.302-1.239c-0.705-0.389-1.185-0.633-1.433-0.72
		c-0.458-0.301-0.892-0.667-1.3-1.094l-1.239-1.28c-0.618-0.64-1.019-0.994-1.205-1.06c-0.187-0.066-0.486-0.522-0.888-1.368
		c-0.162-0.337-0.427-0.785-0.791-1.335c-0.369-0.552-0.61-1.06-0.726-1.524c-0.451-0.72-0.709-1.269-0.785-1.65
		c-0.077-0.378-0.193-0.945-0.346-1.705c-0.164-0.338-0.268-0.835-0.318-1.484c-0.052-0.651-0.134-1.208-0.25-1.671
		c-0.076-0.588-0.031-1.206,0.129-1.854c0.156-0.645,0.029-1.183-0.379-1.611c-0.828,1.536-1.814,2.733-2.96,3.591
		c-0.342,0.164-0.921,0.307-1.738,0.438c-0.821,0.131-1.544,0.085-2.167-0.135l-0.938-0.332c-0.627-0.223-1.205-0.673-1.735-1.354
		c-0.534-0.681-0.709-1.272-0.533-1.771l0.199-0.562c0.089-0.249,0.461-0.608,1.121-1.08c0.658-0.469,1.237-0.616,1.737-0.437
		c1,0.353,1.656,1.081,1.972,2.176l-0.532,1.499c0.204,0.214,0.326,0.363,0.368,0.447c0.039,0.087,0.122,0.149,0.249,0.193
		c0.623,0.222,1.307,0.077,2.052-0.433c0.743-0.508,1.225-1.075,1.447-1.702l0.133-0.376c0.176-0.496-0.262-1.147-1.314-1.943
		c-1.055-0.795-1.789-1.406-2.198-1.834c-0.539-0.471-0.942-1.21-1.215-2.225c-0.274-1.011-0.278-1.891-0.012-2.642l0.068-0.187
		c0.266-0.749,0.855-1.521,1.773-2.325c0.916-0.797,1.75-1.066,2.5-0.8c0.498,0.177,0.847,0.48,1.051,0.901
		c0.199,0.422,0.49,0.7,0.865,0.833c0.623,0.223,1.285,0.141,1.986-0.243c0.697-0.386,1.379-0.915,2.042-1.596
		c0.662-0.679,1.294-1.368,1.895-2.071c0.598-0.702,1.11-1.256,1.541-1.669c0.471-0.537,0.984-1.092,1.541-1.668
		c0.554-0.575,1.194-1.087,1.916-1.535c0.552-0.365,1.178-0.743,1.877-1.127c0.697-0.386,1.324-0.76,1.876-1.127
		c-0.45-0.72-1.137-1.459-2.065-2.21c-0.93-0.752-1.895-1.306-2.893-1.659l-1.875-0.665c-1.001-0.355-2.005-0.395-3.016-0.122
		c-1.013,0.274-1.673,0.849-1.982,1.722l-0.068,0.187c-0.179,0.501-0.27,0.853-0.272,1.065c-0.005,0.208,0.011,0.461,0.048,0.755
		l-0.507,0.241c-1.499-0.533-2.591-1.024-3.273-1.478c-0.685-0.452-1.266-1.188-1.75-2.202c-0.692-1.227-0.83-2.227-0.415-2.996
		c0.411-0.767,0.795-1.65,1.152-2.65c-0.583-0.346-1.44-0.405-2.576-0.176c-1.136,0.229-2.463,0.498-3.976,0.804
		c-1.517,0.308-3.178,0.528-4.982,0.658c-1.808,0.134-3.522-0.089-5.146-0.664c-0.875-0.311-1.756-0.797-2.644-1.466
		c-0.891-0.666-1.684-1.405-2.378-2.215c-0.826-0.852-1.603-1.833-2.334-2.937l-0.376-0.133c-0.627-0.223-1.534,0.161-2.727,1.142
		c-1.194,0.984-2.004,1.683-2.43,2.093c-1.071,1.028-1.85,1.737-2.337,2.125c-0.49,0.389-1.042,1.249-1.652,2.579
		c1.123,0.399,2.243,0.516,3.357,0.347c1.113-0.166,2.252,0.096,3.412,0.79c0.828,0.436,1.814,1.136,2.948,2.1
		c1.134,0.967,1.764,1.469,1.889,1.513c0.712-0.026,1.387-0.141,2.02-0.338c0.586-0.071,1.175-0.143,1.765-0.216
		c0.587-0.074,1.194,0.002,1.821,0.224l1.312,0.465c0.749,0.266,1.482,0.773,2.202,1.519c0.718,0.749,1.36,1.611,1.931,2.586
		c0.569,0.975,0.957,1.957,1.171,2.947c0.208,0.99,0.183,1.86-0.081,2.607l-0.864,2.437c-0.444,1.25-1.399,2.457-2.868,3.623
		c-1.469,1.166-2.606,1.891-3.408,2.167c-1.266,0.393-2.653,0.641-4.164,0.737c-1.513,0.098-3.082-0.141-4.704-0.718
		c-2.001-0.71-3.833-1.889-5.499-3.533c-1.667-1.647-2.74-3.188-3.213-4.622c-0.405-0.847-0.787-1.65-1.15-2.412
		c-0.362-0.76-0.492-1.684-0.386-2.773c-0.28-0.801-0.367-1.747-0.26-2.836c-0.076-0.587,0.002-1.193,0.224-1.821
		c0.222-0.623,0.019-1.049-0.604-1.269c-0.627-0.223-1.426-0.048-2.4,0.521c-0.976,0.569-1.656,0.995-2.036,1.281
		c-1.06,0.61-1.792,0.982-2.191,1.121c-0.403,0.141-1.235,0.405-2.499,0.8c-1.268,0.394-2.92,0.795-4.959,1.195
		c-2.042,0.403-3.813,0.335-5.31-0.195c-1.333-0.612-2.351-1.009-3.059-1.192c-0.71-0.18-1.52-0.573-2.43-1.178
		c-0.661-0.515-1.345-1.073-2.043-1.675c-0.704-0.598-1.256-1.321-1.657-2.171c-0.243-0.506-0.577-1.154-1.001-1.936
		c-0.427-0.784-0.716-1.553-0.867-2.313c-0.076-0.587-0.148-1.069-0.224-1.45c-0.076-0.378-0.176-0.8-0.291-1.264
		c-0.076-0.587-0.015-0.954,0.178-1.096c0.189-0.144,0.272-0.571,0.245-1.285l2.171-4.928l1.069-0.042l0.077-0.815
		c0.337-0.162,0.72-0.447,1.15-0.859c0.426-0.409,0.933-0.651,1.523-0.725c0.463-0.117,0.967-0.253,1.518-0.413
		c0.546-0.155,1.052-0.292,1.515-0.41c0.927-0.231,2.059-0.253,3.398-0.062c1.335,0.193,2.483,0.532,3.439,1.009
		c2.161,1.05,3.641,2.524,4.442,4.424c0.801,1.904,0.739,4.166-0.192,6.79c-0.311,0.875-0.924,1.714-1.841,2.511
		c-0.917,0.801-1.652,1.386-2.204,1.75c-0.722,0.449-1.702,0.631-2.936,0.542c-1.235-0.085-2.292-0.286-3.164-0.594
		c-1.251-0.443-2.331-1.461-3.245-3.051c-0.911-1.59-1.169-2.948-0.77-4.073l0.133-0.375c0.488-1.372,1.399-2.456,2.736-3.249
		c1.334-0.793,2.688-0.947,4.065-0.457l0.938,0.332c1,0.355,1.696,1.061,2.098,2.117c0.396,1.056,0.461,2.062,0.193,3.021
		c-0.27,0.959-0.884,1.692-1.835,2.2c-0.953,0.505-2.243,0.469-3.865-0.106c-0.251-0.09-0.434-0.366-0.55-0.83
		c-0.12-0.464-0.11-0.882,0.025-1.256c0.75,0.266,1.196,0.498,1.339,0.687c0.143,0.192,0.243,0.297,0.309,0.32
		c0.06,0.023,0.216,0.077,0.469,0.168c0.247,0.087,0.793,0.143,1.631,0.156c0.31-0.872,0.631-1.39,0.974-1.555
		c0.336-0.159,0.326-0.726-0.029-1.698c-0.065-1.006-0.787-1.756-2.159-2.243c-0.875-0.31-1.736-0.264-2.582,0.139
		c-0.849,0.403-1.426,1.045-1.735,1.916c-0.709,2.001-0.43,3.682,0.847,5.048c1.272,1.368,2.939,1.923,4.999,1.668
		c1.347-0.226,2.186-0.419,2.528-0.58c0.338-0.161,0.896-0.739,1.668-1.729c0.73-0.865,1.167-1.802,1.312-2.806
		c0.144-1.003,0.141-1.881-0.012-2.642c-0.262-1.638-1.15-3.007-2.657-4.106c-1.511-1.096-3.394-1.837-5.649-2.215
		c-2.349-0.128-3.971,0.281-4.866,1.226c-0.899,0.949-2.013,2.104-3.337,3.46c0.064,1.007,0.009,2.149-0.16,3.423
		c-0.174,1.278-0.186,2.503-0.039,3.68c-0.106,1.09,0.262,2.133,1.103,3.134c0.838,1.002,1.524,1.949,2.053,2.837
		c0.527,0.895,1.613,1.596,3.259,2.109c1.644,0.515,3.012,0.824,4.103,0.927c0.96,0.062,2.147-0.011,3.559-0.216
		c1.406-0.202,2.51-0.444,3.315-0.722c0.756-0.154,1.28-0.249,1.577-0.284c0.292-0.035,0.862-0.255,1.711-0.66
		c0.426-0.409,0.901-0.662,1.43-0.758c0.525-0.094,1.103-0.24,1.737-0.437c0.845-0.403,1.85-0.855,3.014-1.358
		c1.161-0.501,2.043-1.206,2.65-2.12c0.95-1.49,1.692-2.597,2.234-3.323c0.535-0.723,1.38-1.513,2.53-2.373
		c0.426-0.409,1.445-1.102,3.058-2.078l2.673-1.584c0.133-0.376,0.085-1.236-0.139-2.582c-0.229-1.347-0.096-2.702,0.393-4.079
		c0.708-1.998,1.565-3.522,2.572-4.575c1.005-1.048,2.331-1.916,3.98-2.596c1.103-0.733,2.558-1.166,4.365-1.3
		c1.804-0.131,3.646,0.131,5.519,0.797l0.938,0.332c1.997,0.709,3.586,2.082,4.763,4.118c1.178,2.035,1.434,3.99,0.77,5.863
		c-0.178,0.501-0.868,0.957-2.071,1.375c-1.204,0.419-2.18,0.494-2.931,0.229c-0.875-0.311-1.525-0.753-1.955-1.328
		c-0.431-0.573-0.818-1.167-1.16-1.783c-0.346-0.614-0.733-1.209-1.161-1.783c-0.43-0.573-1.018-0.994-1.769-1.258l-0.376-0.133
		c-0.5-0.178-0.88-0.102-1.136,0.229c-0.259,0.332-0.432,0.623-0.521,0.872l-0.199,0.561c-0.089,0.253-0.054,0.544,0.11,0.884
		c0.16,0.338,0.365,0.552,0.617,0.641l0.187,0.068c0.623,0.222,1.009,0.219,1.163-0.01c0.149-0.229,0.477-0.253,0.976-0.076
		c-0.399,1.125-1.16,1.488-2.285,1.09l-0.749-0.266c-0.627-0.223-1.067-0.764-1.322-1.63c-0.257-0.862-0.295-1.545-0.118-2.045
		c0.267-0.75,0.777-1.202,1.536-1.355c0.756-0.154,1.572-0.075,2.447,0.235c0.75,0.266,1.318,0.645,1.708,1.133
		c0.386,0.49,0.788,1.054,1.194,1.69c0.406,0.639,0.836,1.212,1.289,1.722c0.449,0.513,1.113,0.923,1.988,1.233
		c0.498,0.177,0.981,0.209,1.445,0.09c0.464-0.117,0.862-0.255,1.204-0.417c0.256-0.332,0.427-0.515,0.513-0.555
		c0.083-0.041,0.193-0.247,0.328-0.623c0.576-1.623,0.155-3.215-1.26-4.774c-1.418-1.559-2.939-2.624-4.562-3.201
		c-2.999-1.063-5.916-0.971-8.746,0.272c-2.836,1.247-4.781,3.368-5.845,6.366l-0.467,1.312c-0.177,0.5-0.206,0.876-0.083,1.13
		c0.122,0.253,0.026,0.818-0.283,1.694l0.164,1.322l0.937,0.332l2.14-0.083c0.586-0.074,1.103-0.137,1.545-0.191
		c0.44-0.056,0.724-0.06,0.848-0.016c0.961,0.062,1.8,0.077,2.515,0.049c0.712-0.029,1.613,0.01,2.702,0.114
		c1.756,0.202,3.48,0.498,5.171,0.888c1.69,0.386,3.597,0.959,5.721,1.714c0.25,0.087,0.415,0.218,0.496,0.386
		c0.077,0.171,0.407,0.43,0.992,0.774c0.376,0.133,0.666,0.203,0.876,0.206c0.209,0.005,0.415,0.114,0.621,0.326
		c0.58,0.347,1.109,0.641,1.588,0.88c0.475,0.241,0.882,0.491,1.212,0.746c1.241,0.862,2.204,1.52,2.888,1.974
		c0.683,0.454,1.477,0.984,2.391,1.586c1.652,1.294,3.283,2.642,4.891,4.058c1.609,1.414,2.964,2.74,4.076,3.977
		c0.794,0.141,1.798,0.076,3.022-0.193c1.219-0.27,2.334-0.438,3.344-0.502c1.301-0.098,2.389-0.101,3.271-0.002
		c0.878,0.101,2.008,0.186,3.391,0.255c2.3,0.255,4.632,1.011,7.001,2.273c2.366,1.26,4.311,2.514,5.839,3.759
		c1.902,1.38,3.692,2.681,5.366,3.908c1.673,1.227,3.205,2.65,4.604,4.272c0.409,0.428,1.079,1.015,2.01,1.768
		c0.927,0.751,1.907,1.557,2.941,2.416c1.03,0.859,2.022,1.634,2.975,2.321c0.949,0.689,1.737,1.144,2.364,1.365l1.312,0.465
		l4.442,1.154c-0.692-1.229-0.861-2.238-0.507-3.028c0.349-0.791,0.77-1.872,1.257-3.247c-0.859-1.15-1.055-2.379-0.59-3.691
		c0.465-1.312,1.372-2.288,2.73-2.936c1.226-0.689,2.615-0.83,4.158-0.423c1.544,0.409,2.403,1.347,2.589,2.818
		c-0.267,0.749-0.262,1.63,0.012,2.642s0.787,1.65,1.536,1.916c1.62,0.576,3.33,0.726,5.116,0.444
		c1.787-0.281,3.506-0.867,5.159-1.758c1.652-0.891,3.119-1.953,4.401-3.186c1.283-1.232,2.376-2.535,3.283-3.898
		c-0.199-0.633-0.648-1.355-1.341-2.165c-0.699-0.809-1.183-1.823-1.453-3.048c-0.566-1.183-0.949-1.988-1.148-2.412
		c-0.203-0.422-0.395-1.37-0.576-2.842c-0.247-2.478,0.11-4.673,1.069-6.584c0.957-1.909,2.351-3.456,4.178-4.637
		c-0.262-1.641-0.579-3.229-0.947-4.766c-0.372-1.538-0.182-3.157,0.565-4.864c0.575-1.623,1.534-3.044,2.881-4.253
		c1.343-1.212,2.623-1.951,3.848-2.223c-0.031-0.712-0.301-1.827-0.818-3.35c-0.515-1.517-1.148-2.412-1.898-2.677
		c-0.784,1.411-1.717,2.555-2.802,3.437c-1.087,0.88-2.565,0.988-4.439,0.324l-0.376-0.131c-0.627-0.224-1.08-0.627-1.36-1.221
		c-0.283-0.592-0.631-1.102-1.04-1.529l-0.743-3.852l0.266-0.75c0.838,0.017,1.656-0.008,2.455-0.077
		c0.795-0.068,1.418-0.727,1.861-1.977l0.133-0.376c0.355-0.998,0.073-2.188-0.845-3.568c-0.917-1.38-2.019-2.436-3.304-3.176
		L162.438,638.973z M193.022,743.084c0.25,0.087,0.521,0.116,0.818,0.079c0.292-0.036,0.507-0.241,0.641-0.617l0.133-0.376
		c0.399-1.125,0.164-2.052-0.702-2.782c-0.868-0.731-1.801-1.272-2.798-1.625l-0.563-0.199c-0.253-0.09-0.386-0.101-0.409-0.038
		c-0.023,0.064-0.181,0.112-0.474,0.147c0.141,1.179,0.365,2.24,0.661,3.191C190.627,741.812,191.524,742.552,193.022,743.084z
		 M183.175,653.082c0.624,0.222,1.198,0.286,1.725,0.191c0.527-0.095,1.165-0.01,1.914,0.256c0.337-0.16,0.918-0.413,1.744-0.752
		c0.824-0.341,1.324-0.76,1.503-1.26l0.665-1.875c-0.164-0.337-0.438-0.751-0.824-1.242c-0.392-0.488-0.897-0.847-1.52-1.067
		l-0.937-0.332c-0.627-0.223-1.681,0.074-3.163,0.884c-1.484,0.811-2.402,1.716-2.756,2.715l-0.199,0.561
		c-0.177,0.501-0.008,0.915,0.511,1.237C182.354,652.721,182.801,652.949,183.175,653.082z M182.77,733.328l-0.376-0.133
		c0.488-1.372,0.463-2.4-0.068-3.082c-0.534-0.681-1.232-1.387-2.096-2.116c-0.342,0.162-0.752,0.334-1.237,0.511
		c-0.488,0.18-0.818,0.522-0.994,1.018c-0.444,1.252-0.07,2.368,1.13,3.357c1.196,0.988,2.381,1.617,3.549,1.891L182.77,733.328z
		 M181.546,679.09c0.222-0.625,0.25-1.104,0.09-1.445l-1.62-0.787l-0.913-1.59l-1.829,0.405c0.025,0.716-0.241,1.569-0.805,2.564
		c-0.564,0.996-0.283,1.692,0.841,2.09c0.705,0.393,1.521,0.471,2.449,0.236C180.682,680.333,181.279,679.839,181.546,679.09z
		 M178.991,717.218c0.247,0.087,0.6,0.18,1.063,0.27c0.458,0.094,0.777-0.11,0.954-0.61l0.133-0.376
		c0.309-0.872,0.107-1.789-0.608-2.748c-0.716-0.955-1.513-1.592-2.385-1.901l-1.311-0.465c-0.253-0.09-0.491-0.102-0.722-0.046
		c-0.231,0.059-0.496,0.108-0.789,0.141c0.108,0.882,0.434,1.947,0.976,3.196C176.843,715.927,177.74,716.775,178.991,717.218z
		 M180.606,659.134c-0.108-0.882-0.359-1.567-0.745-2.059c-0.392-0.488-0.654-1.53-0.791-3.128c0.015-0.839-0.421-1.486-1.314-1.943
		c-0.894-0.455-1.712-1.029-2.451-1.715c-0.869-0.73-1.603-1.338-2.198-1.834c-0.6-0.492-1.249-1.145-1.943-1.956
		c-0.539-0.471-1.29-1.123-2.259-1.961c-0.969-0.836-1.746-1.426-2.325-1.774c0.815,1.274,1.586,2.461,2.323,3.566
		c0.65,0.937,1.221,1.806,1.711,2.611c0.486,0.805,0.832,1.318,1.04,1.529c0.331,0.26,0.666,0.8,1.007,1.623
		c0.34,0.828,0.698,1.692,1.082,2.6c0.38,0.91,0.763,1.715,1.148,2.412c0.386,0.699,0.7,1.092,0.953,1.182L180.606,659.134z
		 M172.288,673.062c0.712-0.027,1.385-0.036,2.014-0.025c0.629,0.011,1.027-0.022,1.198-0.102c0.368-1.838,0.539-3.007,0.507-3.514
		c-0.032-0.504-0.224-1.451-0.575-2.842c0.222-0.623,0.253-1.704,0.093-3.238c-0.161-1.534-0.49-2.388-0.99-2.567
		c-0.749-0.264-1.841,0.229-3.266,1.478c-1.43,1.253-2.277,2.252-2.542,3.001c-0.444,1.251-0.683,2.818-0.719,4.702
		c-0.037,1.887,0.382,2.985,1.256,3.296L172.288,673.062z M174.684,679.397c0.089-0.249,0.183-0.426,0.293-0.528
		c0.104-0.102,0.203-0.278,0.293-0.531l0.465-1.311c0.087-0.249,0.052-0.648-0.104-1.198c-0.159-0.546-0.256-0.967-0.289-1.263
		c-0.501-0.178-1.401-0.319-2.696-0.43c-1.301-0.108-2.036,0.089-2.212,0.587c-0.224,0.627,0.253,1.463,1.43,2.512
		C173.038,678.285,173.978,679.009,174.684,679.397z M164.244,682.657c-0.355,1.002-0.516,2.138-0.475,3.419
		c0.037,1.279,0.234,2.51,0.59,3.691c0.353,1.181,0.814,2.26,1.385,3.235c0.567,0.976,1.163,1.572,1.79,1.795
		c0.249,0.087,0.597-0.104,1.049-0.577c0.448-0.474,0.9-1.052,1.355-1.735c0.453-0.685,0.842-1.39,1.172-2.117
		c0.328-0.729,0.537-1.214,0.627-1.466c0.087-0.247,0.264-0.747,0.532-1.498c0.266-0.75,0.561-1.49,0.893-2.217
		c0.328-0.727,0.676-1.411,1.046-2.055c0.365-0.641,0.637-1.003,0.806-1.086c-0.736-1.104-1.205-1.658-1.414-1.663
		c-0.21-0.002-0.727-0.434-1.547-1.287c-0.494-0.597-0.997-1.161-1.509-1.696c-0.517-0.533-1.062-0.973-1.642-1.32
		c-1.561,0.432-2.542,1.312-2.945,2.647c-0.403,1.334-1.034,2.414-1.885,3.235L164.244,682.657z M168.673,651.734
		c0.498,0.177,0.882-0.108,1.148-0.857l-2.864-1.439l-1.215,1.046l2.371,1.051L168.673,651.734z M165.269,655.38
		c1.124,0.399,1.924,0.123,2.406-0.835c-0.251-0.089-0.48-0.135-0.689-0.139c-0.21-0.002-0.502-0.073-0.878-0.204l-0.186-0.066
		l-2.37-1.051l0.199-0.563l4.122,1.463l0.122,0.255l1.028-1.113c-0.458-0.301-0.872-0.519-1.246-0.651l-0.75-0.267
		c-0.251-0.089-0.523-0.114-0.816-0.079l-0.858-1.148l-3.302,1.572c0.27,1.222,1.216,2.12,2.842,2.696L165.269,655.38z
		 M168.024,738.015c-0.376-0.133-0.71-0.18-1.002-0.147c-0.133,0.376-0.076,0.606,0.175,0.694c0.75,0.267,1.314,0.256,1.7-0.029
		C168.687,738.322,168.399,738.148,168.024,738.015z M167.276,649.13c0.376,0.133,0.635,0.192,0.783,0.174
		c0.145-0.019,0.409,0.038,0.784,0.172l-0.043-1.069l-0.563-0.199l-0.186-0.066c-0.251-0.09-0.458-0.195-0.623-0.328
		c-0.166-0.128-0.314-0.006-0.447,0.369C166.802,648.681,166.902,648.997,167.276,649.13z M167.844,740.904l-0.068,0.187
		l0.949-0.297L167.844,740.904z M164.688,741.472l-0.133,0.376l1.378,0.277l1.125,0.399l0.066-0.186l-1.433-0.719L164.688,741.472z
		 M166.665,740.064c-0.376-0.131-0.629-0.012-0.76,0.363l0.882-0.11C166.83,740.195,166.787,740.107,166.665,740.064z
		 M140.854,705.165l-1.789,1.474l9.116,3.446c-0.259,0.331-0.477,0.747-0.652,1.246c-0.177,0.5-0.101,0.882,0.231,1.136
		l-1.524,0.726l-0.145,1.003c-0.125-0.044-0.209-0.002-0.253,0.121c-0.172,0.081-0.299,0.247-0.386,0.496
		c-0.046,0.127,0.012,0.356,0.175,0.694c0.25,0.089,0.675,0.274,1.279,0.559c0.6,0.286,1.185,0.525,1.747,0.725
		c0.563,0.199,1.069,0.347,1.534,0.438c0.457,0.092,0.733,0.016,0.821-0.235c0.044-0.123-0.047-0.367-0.268-0.729
		c-0.226-0.361-0.293-0.664-0.203-0.916c-0.038-0.293,0.023-0.658,0.179-1.098c0.155-0.436,0.213-0.8,0.178-1.097
		c0.059-0.963,0.218-1.507,0.471-1.626c0.255-0.122,0.393-0.81,0.417-2.068c0.712-0.027,1.305-0.309,1.777-0.847
		c0.471-0.537,0.879-1.093,1.227-1.674l-2.008-0.291l0.351,1.391c-1.125-0.398-2.2-0.743-3.219-1.036
		c-1.024-0.291-2.159-0.661-3.408-1.103c-1.001-0.355-1.477-0.592-1.433-0.719c0.044-0.124-0.479-0.239-1.565-0.345
		c-0.376-0.131-1.001-0.355-1.874-0.665c-0.875-0.31-1.461-0.446-1.754-0.411L140.854,705.165z M142.341,706.325
		c-0.127-0.044-0.177-0.095-0.154-0.16c0.022-0.062-0.031-0.116-0.154-0.16c0.336-0.161,0.477-0.253,0.413-0.276
		c-0.065-0.023,0.029,0.011,0.282,0.1l0.187,0.066l2.182,0.986l6.064,1.94l-0.133,0.376l-2.503-0.678l-4.124-1.463L142.341,706.325z
		 M146.35,717.031c-0.056,0.546,0.148,0.971,0.604,1.272c0.452,0.301,0.943,0.511,1.465,0.625c0.521,0.116,1.033,0.155,1.538,0.123
		c0.504-0.031,0.822-0.235,0.955-0.61L146.35,717.031z M150.606,711.58c-0.75-0.267-1.1-0.672-1.046-1.216l1.311,0.467
		L150.606,711.58z M147.149,714.783c-0.253-0.089-0.458-0.301-0.617-0.64l2.503,0.676l1.311,0.467l-0.133,0.376l-0.75-0.267
		L147.149,714.783z M148.32,712.667c-0.125-0.046-0.177-0.095-0.154-0.16c0.022-0.063-0.031-0.117-0.154-0.16l1.136-0.23
		l0.563,0.199l0.374,0.133l-0.012,0.629L148.32,712.667z M144.476,709.827l-0.122-0.255l-5.059-1.796
		c-0.341,0.162-0.532,0.308-0.575,0.431c-0.223,0.628,0.176,1.084,1.202,1.375c1.019,0.291,1.737,0.651,2.148,1.079L144.476,709.827
		z M143.857,702.645l-0.563-0.199c-0.374-0.133-1.073-0.449-2.088-0.953c-1.019-0.498-1.638-0.437-1.86,0.185
		c-0.177,0.501,0.452,1.005,1.889,1.514c1.435,0.51,2.449,0.73,3.039,0.656L143.857,702.645z M140.256,700.312
		c0.624,0.222,1.195,0.498,1.715,0.818c0.517,0.325,1.069,0.452,1.659,0.379c0.542,0.053,0.735-0.195,0.581-0.745
		c-0.158-0.546-0.549-0.933-1.173-1.154l-0.75-0.267c-0.251-0.089-0.649-0.156-1.19-0.21c-0.546-0.052-0.882,0.11-1.015,0.484
		C139.947,699.99,140.005,700.221,140.256,700.312z M100.828,703.203c-0.154-0.757-0.243-1.598-0.267-2.521
		c-0.026-0.922,0.141-1.883,0.496-2.885c0.353-1,1.205-1.717,2.557-2.152c1.348-0.436,2.649-0.433,3.9,0.011l0.561,0.199
		c0.25,0.087,0.722,0.436,1.426,1.034c0.699,0.6,1.007,1.028,0.92,1.275c-0.224,0.627-0.577,1.029-1.061,1.206
		c-0.486,0.18-0.839,0.583-1.061,1.205l-0.131,0.374c-0.31,0.876-0.091,1.445,0.658,1.712l0.376,0.131
		c1.372,0.488,2.531,0.301,3.469-0.562c0.939-0.859,1.845-1.14,2.722-0.828c0.498,0.177,0.573,0.556,0.23,1.136
		c-0.349,0.583-0.61,1.123-0.787,1.62l-0.399,1.125c-0.488,1.375-0.449,2.549,0.122,3.524c0.567,0.975,1.411,1.768,2.534,2.376
		c1.119,0.608,2.387,1.094,3.81,1.457c1.416,0.363,2.755,0.555,4.013,0.58c1.088,0.106,2.273,0.141,3.553,0.098
		c1.279-0.036,2.461-0.002,3.553,0.1c0.837,0.018,2.084-0.135,3.751-0.463c1.662-0.324,2.599-0.587,2.814-0.795
		c-0.171,0.081-0.849,0.016-2.041-0.195c-1.192-0.212-1.974-0.384-2.348-0.517l-2.062-0.731c-1.376-0.488-2.518-1.137-3.422-1.953
		c-0.907-0.812-1.798-1.378-2.673-1.686c-0.208-0.213-0.648-0.652-1.326-1.314c-0.682-0.662-1.399-1.411-2.159-2.243
		c-0.76-0.83-1.513-1.59-2.252-2.275c-0.743-0.687-1.278-1.156-1.609-1.414c-1.573-1.12-3.031-2.164-4.375-3.135
		c-1.345-0.967-2.842-2.096-4.493-3.388c-0.413-0.426-1.233-0.893-2.458-1.399c-1.227-0.506-2.194-0.951-2.898-1.345
		c-1.206-0.567-2.144-0.9-2.812-0.998c-0.671-0.096-1.588-0.281-2.756-0.556c-0.5-0.179-1.314-0.362-2.443-0.549
		c-1.129-0.189-2.283-0.316-3.452-0.382c-1.175-0.064-2.232-0.054-3.177,0.033c-0.948,0.085-1.484,0.318-1.615,0.692
		c-0.09,0.253,0.087,0.739,0.538,1.459c0.446,0.722,1.018,1.488,1.717,2.296c0.694,0.81,1.372,1.578,2.031,2.303
		c0.654,0.727,1.086,1.196,1.294,1.409c0.204,0.214,0.645,0.65,1.327,1.314c0.678,0.662,1.399,1.412,2.158,2.242
		c0.76,0.834,1.449,1.569,2.065,2.21s0.986,0.984,1.113,1.028L100.828,703.203z M129.115,726.952c-0.179,0.5-0.155,0.93,0.07,1.291
		c0.222,0.363,0.413,0.71,0.577,1.049l1.192,0.212c0.133-0.376,0.305-0.662,0.521-0.87l0.64-0.617
		c0.399-1.124,0.098-1.865-0.9-2.218l-0.187-0.068c-0.251-0.089-0.6,0-1.042,0.264c-0.447,0.263-0.712,0.522-0.801,0.77
		L129.115,726.952z M114.757,711.521c-0.038-0.294-0.379-0.625-1.019-0.996c-0.644-0.367-1.37-0.697-2.181-0.984
		c-0.814-0.289-1.625-0.577-2.436-0.865c-0.814-0.288-1.406-0.498-1.78-0.631c0.359,0.971,1.405,1.694,3.135,2.167
		C112.204,710.688,113.632,711.122,114.757,711.521z M114.05,725.407c-0.749-0.266-1.214-0.147-1.39,0.349
		c-0.046,0.128-0.081,0.325-0.106,0.596c-0.029,0.274,0.083,0.451,0.335,0.539c0.376,0.133,0.629,0.014,0.76-0.362l0.066-0.187
		L114.05,725.407z M106.403,707.711c0.212-0.204,0.382-0.389,0.513-0.555c0.128-0.166,0.382-0.18,0.756-0.048l4.311,1.529
		c0.266-0.75-0.059-1.32-0.974-1.717c-0.916-0.393-1.748-0.726-2.497-0.992c-1.001-0.355-1.885-0.737-2.65-1.151
		c-0.77-0.413-1.511-0.606-2.222-0.579c-0.1,0.67,0.213,1.378,0.934,2.126C105.29,707.075,105.901,707.535,106.403,707.711z
		 M111.709,706.431l0.199-0.563c0.222-0.624-0.253-1.073-1.42-1.349c-1.169-0.273-2.007-0.5-2.504-0.677l-5.93-2.316
		c-0.133,0.376-0.131,0.764,0.008,1.164c0.138,0.401,0.334,0.644,0.583,0.733L111.709,706.431z M107.115,696.784
		c-0.876-0.311-1.55-0.195-2.02,0.337l0.937,0.332c0.25,0.089,0.365,0.166,0.342,0.229c-0.023,0.064,0.089,0.135,0.341,0.226
		c0.249,0.087,0.521,0.116,0.816,0.077c0.292-0.033,0.485-0.177,0.573-0.43c0.089-0.249-0.054-0.44-0.43-0.573L107.115,696.784z
		 M102.2,700.526l3.187,1.13l0.133-0.375c0.176-0.498,0.267-0.959,0.278-1.378l1.281-1.233c-0.627-0.223-1.141-0.263-1.54-0.124
		c-0.401,0.141-0.726,0.164-0.975,0.075l-0.376-0.133c-0.127-0.044-0.373-0.342-0.739-0.895c-0.089,0.253-0.236,0.374-0.447,0.37
		c-0.21-0.002-0.338,0.058-0.382,0.18c-0.089,0.253-0.038,0.409,0.149,0.477c0.187,0.066,0.235,0.226,0.148,0.474
		c-0.179,0.5-0.453,0.683-0.828,0.55L102.2,700.526z M90.945,723.329c0.75,0.266,1.659,0.378,2.729,0.336
		c1.071-0.043,1.796-0.208,2.18-0.494c0.808-0.695,1.3-1.19,1.474-1.481c0.172-0.288,0.134-0.481-0.114-0.569
		c-0.251-0.089-0.596-0.104-1.038-0.052c-0.44,0.056-0.81,0.102-1.103,0.137c-0.606,0.912-1.345,1.21-2.218,0.9l-0.187-0.066
		c-0.251-0.089-0.495-0.386-0.737-0.895l0.949-0.295c-0.583-0.346-0.93-0.752-1.046-1.216c-0.12-0.464-0.384-0.906-0.793-1.335
		c-0.251-0.089-0.325-0.676-0.218-1.766l0.158-1.631c0.266-0.75,0.978-1.374,2.142-1.877c1.161-0.501,2.12-0.619,2.869-0.353
		l0.376,0.133c1.997,0.708,3.018,1.988,3.07,3.832c0.117,0.461,0.175,1.294,0.172,2.488c-0.002,1.196-0.239,2.062-0.709,2.596
		c0.376,0.133,1.005,0.039,1.892-0.278c0.885-0.32,1.497-0.558,1.838-0.72c0.471-0.536,1.137-0.826,1.997-0.872
		c0.861-0.044,1.334-0.193,1.424-0.446c0.708-1.995,0.337-4.133-1.103-6.404c-1.447-2.273-3.23-3.784-5.355-4.539l-2.248-0.797
		c-1.874-0.665-3.892-0.326-6.057,1.015c-2.165,1.343-3.623,3.076-4.377,5.2c-0.532,1.499-0.43,3.296,0.307,5.383
		c0.735,2.09,1.789,3.378,3.164,3.867L90.945,723.329z M96.602,716.895l0.938,0.332c0.498,0.179,0.656,0.233,0.469,0.168
		c-0.187-0.065-0.114-0.18,0.226-0.342l-0.108-0.882c-0.627-0.223-1.477-0.593-2.557-1.119c-1.081-0.521-1.754-0.41-2.02,0.338
		L96.602,716.895z M97.316,719.047c0.096-0.668-0.283-1.188-1.134-1.563c-0.853-0.372-1.53-0.648-2.028-0.825l-0.187-0.068
		c-0.253-0.089-0.431-0.079-0.535,0.023c-0.11,0.102-0.247,0.195-0.415,0.276c0.498,0.177,0.954,0.48,1.368,0.905
		c0.407,0.43,0.76,0.624,1.056,0.588L97.316,719.047z M78.176,706.984c-0.5-0.178-1.084-0.417-1.747-0.725
		c-0.666-0.307-0.932-0.646-0.797-1.022c0.667,0.097,1.366,0.31,2.095,0.638c0.726,0.331,1.28,0.349,1.665,0.064
		c-0.75-0.266-1.36-0.727-1.828-1.387c-0.473-0.658-0.77-1.011-0.892-1.055c-0.253-0.089-0.461-0.091-0.629-0.012
		c-0.171,0.081-0.506,0.031-1.003-0.145l-1.685-0.598c-0.253-0.089-0.332-0.255-0.243-0.506l0.561,0.199l2.637,0.301
		c-0.208-0.212-0.359-0.477-0.457-0.794c-0.098-0.316-0.274-0.519-0.523-0.608l-1.499-0.532c-0.376-0.133-0.755-0.058-1.136,0.23
		c-0.384,0.284-0.767,0.571-1.15,0.858c-0.848,0.404-1.353,0.542-1.515,0.411c-0.166-0.128-0.567-0.095-1.198,0.102
		c1.034,0.65,2.116,1.067,3.246,1.257c1.127,0.189,1.785,0.811,1.976,1.862c0.314,1.096,0.959,1.854,1.937,2.27
		C76.967,708.21,77.694,707.939,78.176,706.984z M72.8,682.287c0.376,0.133,1.042,0.231,2.008,0.291
		c0.961,0.06,1.675,0.033,2.14-0.085c-0.081-0.168-0.474-0.448-1.178-0.841c-0.706-0.389-1.498-0.743-2.371-1.051
		c-0.876-0.31-1.698-0.566-2.47-0.77c-0.772-0.202-1.267-0.202-1.478,0.004c-0.01,0.419,0.264,0.833,0.826,1.242
		c0.556,0.409,1.148,0.724,1.773,0.947L72.8,682.287z M75.311,699.003c-0.501-0.178-0.839-0.015-1.015,0.484l-0.199,0.562
		c0.872,0.31,1.378,0.278,1.511-0.097l-0.241-0.506C75.282,699.278,75.266,699.13,75.311,699.003z M70.956,683.323
		c0.75,0.266,1.279-0.037,1.59-0.913l-1.619-0.787l-1.501-0.532c-0.75-0.267-1.214-0.147-1.39,0.351
		c-0.179,0.5-0.019,0.838,0.484,1.015L70.956,683.323z M66.17,703.357c0.872,0.309,1.39,0.635,1.555,0.973l3.56,1.263
		c0.222-0.624,0.019-1.05-0.604-1.27l-4.309-1.529c-0.376-0.133-0.573-0.168-0.594-0.106c-0.025,0.065-0.143,0.197-0.355,0.403
		L66.17,703.357z M51.617,678.359c1.623,0.576,3.337,0.797,5.146,0.666c1.804-0.131,3.537-0.362,5.202-0.687
		c1.662-0.325,3.282-0.631,4.86-0.913c1.578-0.284,3.012-0.267,4.307,0.05c-0.241-0.507-0.893-1.055-1.95-1.641
		c-1.057-0.587-2.265-1.154-3.616-1.704c-1.355-0.55-2.728-1.038-4.124-1.463c-1.399-0.425-2.47-0.77-3.219-1.036
		c-0.627-0.223-1.65-0.407-3.07-0.564c-1.424-0.15-2.84-0.231-4.241-0.237c-1.407-0.005-2.653,0.044-3.745,0.149
		c-1.094,0.106-1.706,0.343-1.839,0.719c-0.177,0.501-0.062,1.069,0.346,1.705c0.406,0.64,0.948,1.287,1.629,1.951
		c0.678,0.661,1.378,1.263,2.104,1.801c0.722,0.539,1.334,0.895,1.835,1.071L51.617,678.359z M67.984,707.164
		c0.872,0.31,1.737,0.056,2.592-0.767l-1.994-0.92c-0.627-0.223-1.044-0.334-1.253-0.337c-0.21-0.002-0.627-0.118-1.251-0.338
		c-0.355,1.001,0.029,1.698,1.154,2.098L67.984,707.164z M68.321,683.02c-0.332-0.257-0.629-0.012-0.895,0.739
		c0.58,0.346,1.108,0.64,1.586,0.879c0.475,0.241,0.911,0.006,1.304-0.698L68.321,683.02z M66.767,701.669l1.312,0.465l-0.309-0.32
		l-1.982-1.547c0.071,0.59,0.12,0.853,0.141,0.789c0.022-0.062,0.112,0.075,0.276,0.413L66.767,701.669z M63.026,709.837
		c-0.376-0.131-0.607-0.074-0.694,0.176c-0.133,0.376-0.012,0.629,0.363,0.762l1.124,0.399c-0.037-0.294-0.054-0.546-0.048-0.756
		c0.002-0.21-0.181-0.382-0.556-0.513L63.026,709.837z M42.181,701.387c0.249,0.089,1.042,0.231,2.382,0.423
		c1.337,0.193,2.3,0.255,2.892,0.181c0.54,0.052,1.29-0.07,2.238-0.367c0.949-0.297,1.592-0.523,1.931-0.687
		c1.264-0.395,2.047-0.818,2.352-1.275c0.298-0.453,0.752-1.137,1.359-2.049c0.826-1.534,1.169-2.503,1.032-2.904
		c-0.141-0.399-0.01-1.163,0.389-2.287c-0.368-0.552-0.6-0.984-0.698-1.304c-0.098-0.316-0.198-0.631-0.297-0.949
		c-0.097-0.315-0.343-0.719-0.731-1.208c-0.389-0.488-1.017-1.1-1.882-1.828c-0.948-0.897-2.021-1.352-3.213-1.353
		c-1.196-0.002-2.261,0.326-3.194,0.976c0.274,0.805,0.677,1.756,1.202,2.854c0.523,1.103,0.608,2.152,0.255,3.15l-0.201,0.563
		c-0.177,0.501-0.596,0.986-1.254,1.453c-0.661,0.471-1.239,0.616-1.737,0.438l-0.563-0.199c-1.001-0.355-1.576-1.011-1.722-1.982
		c-0.153-0.967-0.07-1.886,0.24-2.763l0.199-0.561c0.222-0.625,0.428-1.009,0.62-1.152c0.189-0.145,0.396-0.525,0.62-1.154
		l0.265-0.749c0.267-0.75-0.382-1.403-1.943-1.956c-1.565-0.554-2.739-1.109-3.522-1.671c-0.583-0.343-1.057-0.586-1.433-0.719
		c-0.374-0.131-0.942-0.123-1.698,0.031c-0.172,0.08-0.667,0.185-1.486,0.318c-0.82,0.129-1.273,0.321-1.362,0.571l-0.544,2.128
		l-0.187-0.068c0.153,0.76,0.213,1.482,0.178,2.174c-0.033,0.692,0.127,1.521,0.488,2.493c0.187,1.051,0.351,1.779,0.492,2.18
		c0.137,0.4,0.384,1.086,0.746,2.059c0.484,1.015,1.403,2.291,2.756,3.826c1.353,1.535,2.717,2.545,4.092,3.034L42.181,701.387z
		 M45.415,693.461c0.249,0.089,0.513-0.063,0.795-0.455c0.278-0.393,0.463-0.712,0.552-0.965c0.223-0.624,0.268-1.347,0.137-2.167
		c-0.131-0.818-0.51-1.341-1.134-1.563c-0.127-0.044-0.341,0.164-0.641,0.617c-0.304,0.457-0.552,0.965-0.752,1.526
		c-0.199,0.563-0.266,1.14-0.191,1.726C44.253,692.769,44.665,693.195,45.415,693.461z"/>
</g>
</svg>
