<?xml version="1.0" encoding="utf-8"?>
<!-- Generator: Adobe Illustrator 17.1.0, SVG Export Plug-In . SVG Version: 6.00 Build 0)  -->
<!DOCTYPE svg PUBLIC "-//W3C//DTD SVG 1.1//EN" "http://www.w3.org/Graphics/SVG/1.1/DTD/svg11.dtd">
<svg version="1.1" id="Layer_1" xmlns="http://www.w3.org/2000/svg" xmlns:xlink="http://www.w3.org/1999/xlink" x="0px" y="0px"
	 viewBox="213.503 602.116 185.881 185.881" enable-background="new 213.503 602.116 185.881 185.881" xml:space="preserve">
<pattern  x="0" y="792" width="35.453" height="35.453" patternUnits="userSpaceOnUse" id="SVGID_2_" viewBox="2.659 -38.11 35.453 35.453" overflow="visible">
	<g>
		<polygon fill="none" points="2.659,-2.657 38.112,-2.657 38.112,-38.11 2.659,-38.11 		"/>
		<g>
			<polygon fill="none" points="2.659,-38.11 38.112,-38.11 38.112,-2.657 2.659,-2.657 			"/>
			<g>
				<polygon fill="none" points="2.659,-2.658 38.112,-2.658 38.112,-38.11 2.659,-38.11 				"/>
				<g>
					<polygon fill="none" points="2.659,-2.658 38.112,-2.658 38.112,-38.11 2.659,-38.11 					"/>
					<g>
						<path fill="#F4A460" d="M38.112-40.771c1.466,0,2.657,1.19,2.657,2.659c0,1.469-1.192,2.659-2.657,2.659
							c-1.469,0-2.659-1.19-2.659-2.659C35.453-39.58,36.643-40.771,38.112-40.771z"/>
						<path fill="#F4A460" d="M20.385-40.771c1.467,0,2.659,1.19,2.659,2.659c0,1.469-1.192,2.659-2.659,2.659
							c-1.469,0-2.659-1.19-2.659-2.659C17.726-39.58,18.916-40.771,20.385-40.771z"/>
						<path fill="#F4A460" d="M38.112-23.044c1.466,0,2.657,1.19,2.657,2.659c0,1.469-1.192,2.659-2.657,2.659
							c-1.469,0-2.659-1.19-2.659-2.659C35.453-21.854,36.643-23.044,38.112-23.044z"/>
						<path fill="#F4A460" d="M20.385-23.044c1.467,0,2.659,1.19,2.659,2.659c0,1.469-1.192,2.659-2.659,2.659
							c-1.469,0-2.659-1.19-2.659-2.659C17.726-21.854,18.916-23.044,20.385-23.044z"/>
						<path fill="#F4A460" d="M11.522-31.906c1.467,0,2.659,1.19,2.659,2.659c0,1.466-1.192,2.657-2.659,2.657
							c-1.469,0-2.659-1.19-2.659-2.657C8.863-30.716,10.053-31.906,11.522-31.906z"/>
						<path fill="#F4A460" d="M29.248-31.906c1.466,0,2.659,1.19,2.659,2.659c0,1.466-1.193,2.657-2.659,2.657
							c-1.469,0-2.659-1.19-2.659-2.657C26.589-30.716,27.779-31.906,29.248-31.906z"/>
						<path fill="#F4A460" d="M11.522-14.179c1.467,0,2.659,1.19,2.659,2.657c0,1.469-1.192,2.659-2.659,2.659
							c-1.469,0-2.659-1.19-2.659-2.659C8.863-12.99,10.053-14.179,11.522-14.179z"/>
						<path fill="#F4A460" d="M29.248-14.179c1.466,0,2.659,1.19,2.659,2.657c0,1.469-1.193,2.659-2.659,2.659
							c-1.469,0-2.659-1.19-2.659-2.659C26.589-12.99,27.779-14.179,29.248-14.179z"/>
					</g>
					<g>
						<path fill="#F4A460" d="M2.659-40.771c1.467,0,2.657,1.19,2.657,2.659c0,1.469-1.192,2.659-2.657,2.659
							C1.19-35.453,0-36.642,0-38.112C0-39.58,1.19-40.771,2.659-40.771z"/>
						<path fill="#F4A460" d="M2.659-23.044c1.467,0,2.657,1.19,2.657,2.659c0,1.469-1.192,2.659-2.657,2.659
							C1.19-17.726,0-18.917,0-20.385C0-21.854,1.19-23.044,2.659-23.044z"/>
					</g>
					<g>
						<path fill="#F4A460" d="M38.112-5.318c1.466,0,2.657,1.19,2.657,2.659C40.769-1.19,39.577,0,38.112,0
							c-1.469,0-2.659-1.19-2.659-2.659C35.453-4.128,36.643-5.318,38.112-5.318z"/>
						<path fill="#F4A460" d="M20.385-5.318c1.467,0,2.659,1.19,2.659,2.659C23.044-1.19,21.853,0,20.385,0
							c-1.469,0-2.659-1.19-2.659-2.659S18.916-5.318,20.385-5.318z"/>
					</g>
					<g>
						<path fill="#F4A460" d="M2.659-5.318c1.467,0,2.657,1.19,2.657,2.659C5.316-1.19,4.125,0,2.659,0C1.19,0,0-1.191,0-2.659
							C0-4.128,1.19-5.318,2.659-5.318z"/>
					</g>
				</g>
			</g>
		</g>
	</g>
</pattern>
<g>
	<circle fill="#5E3517" cx="306.444" cy="695.057" r="92.94"/>
</g>
<g opacity="0.55">
	
		<pattern  id="SVGID_1_" xlink:href="#SVGID_2_" patternTransform="matrix(1.231 0 0 -1.231 8779.0283 -40089.332)"  opacity="0.55">
	</pattern>
	<circle fill="url(#SVGID_1_)" cx="306.444" cy="695.057" r="92.94"/>
</g>
<circle fill="#008080" cx="306.444" cy="695.057" r="67.705"/>
<ellipse fill="#8B5E3C" cx="306.637" cy="684.612" rx="43.811" ry="26.081"/>
<ellipse fill="#8B5E3C" cx="284.059" cy="670.169" rx="14.023" ry="13.041"/>
<ellipse fill="#8B5E3C" cx="276.849" cy="679.949" rx="14.023" ry="13.041"/>
<ellipse fill="#8B5E3C" cx="301.282" cy="666.908" rx="14.023" ry="13.041"/>
<ellipse fill="#8B5E3C" cx="319.428" cy="666.908" rx="14.023" ry="13.041"/>
<ellipse fill="#8B5E3C" cx="333.451" cy="673.893" rx="14.023" ry="13.041"/>
<ellipse fill="#603913" cx="294.52" cy="673.545" rx="3.561" ry="3.377"/>
<ellipse fill="#603913" cx="279.254" cy="661.906" rx="3.561" ry="3.377"/>
<ellipse fill="#603913" cx="301.282" cy="658.529" rx="3.561" ry="3.377"/>
<ellipse fill="#603913" cx="344.792" cy="668.455" rx="3.561" ry="3.377"/>
<ellipse fill="#603913" cx="315.865" cy="696.374" rx="3.561" ry="3.377"/>
<ellipse fill="#603913" cx="279.254" cy="695.54" rx="3.561" ry="3.377"/>
<ellipse fill="#603913" cx="348.355" cy="688.339" rx="3.561" ry="3.377"/>
<ellipse fill="#603913" cx="262.826" cy="681.586" rx="3.561" ry="3.377"/>
<ellipse fill="#603913" cx="300.92" cy="689.612" rx="3.561" ry="3.377"/>
<ellipse fill="#603913" cx="333.451" cy="690.311" rx="3.561" ry="3.377"/>
<ellipse fill="#603913" cx="315.305" cy="666.908" rx="3.561" ry="3.377"/>
<ellipse fill="#603913" cx="319.428" cy="653.868" rx="3.561" ry="3.377"/>
<ellipse fill="#603913" cx="329.432" cy="673.545" rx="3.561" ry="3.377"/>
<ellipse fill="#603913" cx="279.254" cy="679.949" rx="3.561" ry="3.377"/>
<path fill="#F4A460" d="M339.536,695.123l-4.406,5.87c-0.002,0-0.002,0-0.004,0l-5.694-5.453l-6.236,6.602c-0.002,0-0.002,0-0.004,0
	l-5.217-5.768l-6.742,6.401c-0.019,0-0.036,0.002-0.054,0.002l-7.056-6.507l-6.037,6.528c-0.002,0-0.005,0-0.008,0l-5.935-6.839
	l-5.746,6.157c-0.002,0-0.002,0-0.004,0l-2.79-6.574l-5.122,5.634c-0.053-0.008-0.106-0.016-0.16-0.025l-3.468-5.61l-4.375,4.106
	l0.056,0.104c-0.166-0.036-0.335-0.066-0.501-0.104l9.708,36.65c0,0,30.583-9.951,53.156,0l11.892-36.65L339.536,695.123z"/>
<polygon fill="#C17236" points="283.126,735.337 286.142,734.599 278.395,701.268 274.854,695.54 272.365,697.877 "/>
<polygon fill="#C17236" points="286.396,702.118 290.423,733.71 295.521,732.871 292.144,695.957 "/>
<polygon fill="#C17236" points="298.081,702.801 299.685,732.365 304.482,731.998 304.121,696.269 "/>
<polygon fill="#C17236" points="311.205,702.801 311.205,731.902 315.222,732.112 317.976,696.374 "/>
<polygon fill="#C17236" points="323.193,702.143 319.428,732.365 323.193,733.237 329.432,695.54 "/>
<polygon fill="#C17236" points="335.128,700.993 326.911,734.153 329.432,734.943 339.536,695.123 "/>
</svg>
