<?xml version="1.0" encoding="utf-8"?>
<!-- Generator: Adobe Illustrator 17.1.0, SVG Export Plug-In . SVG Version: 6.00 Build 0)  -->
<!DOCTYPE svg PUBLIC "-//W3C//DTD SVG 1.1//EN" "http://www.w3.org/Graphics/SVG/1.1/DTD/svg11.dtd">
<svg version="1.1" id="Layer_1" xmlns="http://www.w3.org/2000/svg" xmlns:xlink="http://www.w3.org/1999/xlink" x="0px" y="0px"
	 viewBox="0 371.449 792.002 240.552" enable-background="new 0 371.449 792.002 240.552" xml:space="preserve">
<pattern  y="612" width="45.88" height="45.88" patternUnits="userSpaceOnUse" id="SVGID_1_" viewBox="3.441 -49.323 45.88 45.88" overflow="visible">
	<g>
		<polygon fill="none" points="3.441,-3.443 49.321,-3.443 49.321,-49.323 3.441,-49.323 		"/>
		<g>
			<polygon fill="none" points="3.441,-49.322 49.321,-49.322 49.321,-3.443 3.441,-3.443 			"/>
			<g>
				<polygon fill="none" points="3.441,-49.322 49.322,-49.322 49.322,-3.443 3.441,-3.443 				"/>
				<g>
					<path fill="#F4A460" d="M49.321,0c1.897,0,3.439-1.54,3.439-3.441s-1.542-3.441-3.439-3.441c-1.901,0-3.441,1.54-3.441,3.441
						C45.88-1.541,47.42,0,49.321,0z"/>
					<path fill="#F4A460" d="M26.381,0c1.899,0,3.441-1.54,3.441-3.441s-1.542-3.441-3.441-3.441c-1.901,0-3.441,1.54-3.441,3.441
						C22.94-1.541,24.48,0,26.381,0z"/>
					<path fill="#F4A460" d="M49.321-22.94c1.897,0,3.439-1.54,3.439-3.441c0-1.901-1.542-3.441-3.439-3.441
						c-1.901,0-3.441,1.54-3.441,3.441C45.88-24.48,47.42-22.94,49.321-22.94z"/>
					<path fill="#F4A460" d="M26.381-22.94c1.899,0,3.441-1.54,3.441-3.441c0-1.901-1.542-3.441-3.441-3.441
						c-1.901,0-3.441,1.54-3.441,3.441S24.48-22.94,26.381-22.94z"/>
					<path fill="#F4A460" d="M14.911-11.472c1.899,0,3.441-1.54,3.441-3.441c0-1.897-1.542-3.438-3.441-3.438
						c-1.901,0-3.441,1.54-3.441,3.438C11.47-13.012,13.01-11.472,14.911-11.472z"/>
					<path fill="#F4A460" d="M37.851-11.472c1.897,0,3.441-1.54,3.441-3.441c0-1.897-1.544-3.438-3.441-3.438
						c-1.901,0-3.441,1.54-3.441,3.438C34.41-13.012,35.95-11.472,37.851-11.472z"/>
					<path fill="#F4A460" d="M14.911-34.413c1.899,0,3.441-1.54,3.441-3.438c0-1.901-1.542-3.441-3.441-3.441
						c-1.901,0-3.441,1.54-3.441,3.441C11.47-35.952,13.01-34.413,14.911-34.413z"/>
					<path fill="#F4A460" d="M37.851-34.413c1.897,0,3.441-1.54,3.441-3.438c0-1.901-1.544-3.441-3.441-3.441
						c-1.901,0-3.441,1.54-3.441,3.441C34.41-35.952,35.95-34.413,37.851-34.413z"/>
				</g>
				<g>
					<path fill="#F4A460" d="M3.441,0C5.34,0,6.88-1.54,6.88-3.441S5.338-6.882,3.441-6.882C1.54-6.882,0-5.343,0-3.441
						C0-1.541,1.54,0,3.441,0z"/>
					<path fill="#F4A460" d="M3.441-22.94c1.899,0,3.439-1.54,3.439-3.441c0-1.901-1.542-3.441-3.439-3.441
						C1.54-29.822,0-28.281,0-26.381C0-24.48,1.54-22.94,3.441-22.94z"/>
				</g>
				<g>
					<path fill="#F4A460" d="M49.321-45.88c1.897,0,3.439-1.54,3.439-3.441c0-1.901-1.542-3.441-3.439-3.441
						c-1.901,0-3.441,1.54-3.441,3.441C45.88-47.42,47.42-45.88,49.321-45.88z"/>
					<path fill="#F4A460" d="M26.381-45.88c1.899,0,3.441-1.54,3.441-3.441c0-1.901-1.542-3.441-3.441-3.441
						c-1.901,0-3.441,1.54-3.441,3.441C22.94-47.42,24.48-45.88,26.381-45.88z"/>
				</g>
				<g>
					<path fill="#F4A460" d="M3.441-45.88c1.899,0,3.439-1.54,3.439-3.441c0-1.901-1.542-3.441-3.439-3.441
						C1.54-52.762,0-51.221,0-49.321C0-47.42,1.54-45.88,3.441-45.88z"/>
				</g>
			</g>
		</g>
	</g>
</pattern>
<g>
	<circle fill="#754C29" cx="396.575" cy="491.725" r="120.276"/>
</g>
<g>
	<pattern  id="SVGID_2_" xlink:href="#SVGID_1_" patternTransform="matrix(1.593 0 0 1.593 9072.2119 26826.4395)">
	</pattern>
	<circle fill="url(#SVGID_2_)" cx="396.575" cy="491.725" r="120.276"/>
</g>
<circle fill="#008080" cx="396.575" cy="491.725" r="87.619"/>
<ellipse fill="#8B5E3C" cx="396.825" cy="478.208" rx="56.697" ry="33.752"/>
<ellipse fill="#8B5E3C" cx="367.607" cy="459.517" rx="18.148" ry="16.877"/>
<ellipse fill="#8B5E3C" cx="358.276" cy="472.174" rx="18.148" ry="16.877"/>
<ellipse fill="#8B5E3C" cx="389.895" cy="455.297" rx="18.148" ry="16.877"/>
<ellipse fill="#8B5E3C" cx="413.378" cy="455.297" rx="18.148" ry="16.877"/>
<ellipse fill="#8B5E3C" cx="431.526" cy="464.337" rx="18.148" ry="16.877"/>
<ellipse fill="#603913" cx="381.145" cy="463.886" rx="4.609" ry="4.37"/>
<ellipse fill="#603913" cx="361.388" cy="448.824" rx="4.609" ry="4.37"/>
<ellipse fill="#603913" cx="389.895" cy="444.454" rx="4.609" ry="4.37"/>
<ellipse fill="#603913" cx="446.203" cy="457.299" rx="4.609" ry="4.37"/>
<ellipse fill="#603913" cx="408.768" cy="493.43" rx="4.609" ry="4.37"/>
<ellipse fill="#603913" cx="361.388" cy="492.351" rx="4.609" ry="4.37"/>
<ellipse fill="#603913" cx="450.813" cy="483.032" rx="4.609" ry="4.37"/>
<ellipse fill="#603913" cx="340.128" cy="474.292" rx="4.609" ry="4.37"/>
<ellipse fill="#603913" cx="389.427" cy="484.679" rx="4.609" ry="4.37"/>
<ellipse fill="#603913" cx="431.526" cy="485.584" rx="4.609" ry="4.37"/>
<ellipse fill="#603913" cx="408.043" cy="455.297" rx="4.609" ry="4.37"/>
<ellipse fill="#603913" cx="413.378" cy="438.422" rx="4.609" ry="4.37"/>
<ellipse fill="#603913" cx="426.325" cy="463.886" rx="4.609" ry="4.37"/>
<ellipse fill="#603913" cx="361.388" cy="472.174" rx="4.609" ry="4.37"/>
<path fill="#F4A460" d="M439.401,491.811l-5.702,7.596c-0.002,0-0.003,0-0.005,0l-7.369-7.057l-8.07,8.544c-0.002,0-0.003,0-0.005,0
	l-6.751-7.465l-8.725,8.284c-0.024,0-0.046,0.002-0.07,0.002l-9.131-8.421l-7.812,8.448c-0.003,0-0.006,0-0.01,0l-7.68-8.851
	l-7.436,7.968c-0.002,0-0.003,0-0.005,0l-3.611-8.507l-6.629,7.291c-0.069-0.01-0.137-0.021-0.207-0.032l-4.488-7.26l-5.662,5.314
	l0.073,0.134c-0.215-0.046-0.433-0.086-0.648-0.134l12.564,47.43c0,0,39.578-12.878,68.79,0l15.39-47.43L439.401,491.811z"/>
<polygon fill="#C17236" points="366.399,543.853 370.302,542.898 360.277,499.764 355.694,492.351 352.473,495.375 "/>
<polygon fill="#C17236" points="370.631,500.863 375.843,541.747 382.44,540.662 378.07,492.89 "/>
<polygon fill="#C17236" points="385.753,501.747 387.829,540.007 394.036,539.532 393.57,493.294 "/>
<polygon fill="#C17236" points="402.737,501.747 402.737,539.408 407.935,539.679 411.499,493.43 "/>
<polygon fill="#C17236" points="418.251,500.896 413.378,540.007 418.251,541.135 426.325,492.351 "/>
<polygon fill="#C17236" points="433.696,499.408 423.063,542.32 426.325,543.343 439.401,491.811 "/>
<g>
	<path fill="#F3A460" d="M583.605,423.398c-1.663,0.957-3.087,2.324-4.276,4.11c-1.185,1.786-1.552,3.328-1.093,4.618l0.172,0.486
		c0.572,1.619,1.38,2.472,2.409,2.558c1.034,0.091,2.092,0.123,3.177,0.1l0.344,0.97l-0.962,4.985
		c-0.531,0.554-0.978,1.212-1.346,1.979c-0.365,0.768-0.949,1.292-1.76,1.58l-0.486,0.17c-2.425,0.86-4.339,0.72-5.745-0.419
		c-1.405-1.141-2.613-2.622-3.626-4.448c-0.97,0.344-1.789,1.501-2.456,3.465c-0.668,1.969-1.018,3.412-1.058,4.335
		c1.585,0.352,3.242,1.308,4.98,2.877c1.743,1.564,2.984,3.404,3.728,5.504c0.967,2.21,1.212,4.304,0.731,6.294
		c-0.476,1.99-0.886,4.045-1.225,6.168c2.362,1.529,4.166,3.53,5.407,6.001c1.243,2.472,1.705,5.313,1.384,8.52
		c-0.233,1.904-0.483,3.132-0.746,3.678c-0.258,0.548-0.753,1.59-1.486,3.121c-0.349,1.583-0.973,2.896-1.88,3.944
		c-0.897,1.048-1.478,1.983-1.736,2.802c1.174,1.765,2.589,3.451,4.249,5.045c1.658,1.595,3.557,2.969,5.695,4.123
		c2.141,1.153,4.363,1.912,6.677,2.275c2.311,0.365,4.524,0.169,6.621-0.575c0.97-0.344,1.633-1.168,1.988-2.479
		c0.355-1.311,0.362-2.45,0.016-3.419c0.239-1.904,1.352-3.118,3.35-3.647c1.998-0.526,3.795-0.342,5.381,0.548
		c1.757,0.836,2.931,2.1,3.533,3.799c0.602,1.697,0.349,3.288-0.763,4.776c0.631,1.779,1.176,3.18,1.626,4.202
		c0.457,1.023,0.237,2.329-0.656,3.919l5.748-1.494l1.698-0.602c0.811-0.288,1.83-0.876,3.059-1.767
		c1.233-0.891,2.517-1.893,3.85-3.004c1.338-1.11,2.606-2.154,3.806-3.126c1.204-0.972,2.073-1.733,2.601-2.288
		c1.81-2.096,3.793-3.94,5.958-5.528c2.167-1.588,4.483-3.272,6.944-5.058c1.979-1.612,4.496-3.234,7.557-4.865
		c3.065-1.633,6.082-2.613,9.06-2.942c1.791-0.089,3.253-0.199,4.389-0.33c1.141-0.129,2.55-0.126,4.233,0.002
		c1.305,0.083,2.75,0.299,4.327,0.65c1.583,0.35,2.885,0.433,3.911,0.25c1.437-1.603,3.192-3.317,5.275-5.147
		c2.081-1.83,4.191-3.576,6.329-5.251c1.182-0.781,2.211-1.466,3.094-2.053c0.886-0.585,2.132-1.437,3.737-2.554
		c0.429-0.33,0.954-0.653,1.568-0.965c0.62-0.307,1.305-0.69,2.055-1.139c0.268-0.274,0.534-0.416,0.805-0.422
		c0.272-0.003,0.648-0.094,1.134-0.266c0.757-0.446,1.182-0.781,1.284-1.002c0.105-0.218,0.319-0.385,0.642-0.499
		c2.751-0.975,5.217-1.716,7.405-2.218c2.189-0.503,4.419-0.887,6.692-1.149c1.411-0.134,2.574-0.183,3.497-0.147
		c0.926,0.037,2.01,0.016,3.255-0.064c0.162-0.057,0.527-0.051,1.098,0.021c0.57,0.07,1.241,0.153,1.999,0.247l2.769,0.107
		l1.212-0.43l0.212-1.711c-0.401-1.133-0.524-1.864-0.366-2.192c0.158-0.328,0.12-0.816-0.108-1.462l-0.604-1.698
		c-1.376-3.881-3.893-6.625-7.564-8.239c-3.664-1.609-7.44-1.728-11.319-0.352c-2.1,0.746-4.069,2.125-5.904,4.142
		c-1.832,2.017-2.377,4.078-1.631,6.178c0.172,0.486,0.314,0.754,0.424,0.806c0.112,0.053,0.333,0.29,0.664,0.718
		c0.441,0.21,0.957,0.389,1.558,0.54c0.601,0.155,1.227,0.112,1.87-0.116c1.133-0.401,1.991-0.932,2.573-1.596
		c0.586-0.66,1.142-1.403,1.668-2.229c0.526-0.824,1.043-1.553,1.545-2.187c0.505-0.631,1.239-1.121,2.211-1.466
		c1.133-0.401,2.189-0.503,3.167-0.304c0.983,0.198,1.642,0.782,1.988,1.754c0.231,0.647,0.18,1.531-0.153,2.646
		c-0.33,1.12-0.898,1.822-1.711,2.109l-0.969,0.344c-1.456,0.516-2.441,0.046-2.957-1.41c0.647-0.229,1.07-0.196,1.263,0.099
		c0.199,0.296,0.699,0.299,1.505,0.013l0.242-0.088c0.327-0.115,0.591-0.39,0.798-0.83c0.212-0.438,0.256-0.817,0.142-1.144
		l-0.258-0.726c-0.115-0.322-0.339-0.698-0.674-1.128c-0.331-0.429-0.824-0.526-1.47-0.296l-0.486,0.172
		c-0.97,0.344-1.733,0.887-2.289,1.628c-0.556,0.744-1.055,1.513-1.502,2.308c-0.441,0.797-0.945,1.564-1.501,2.307
		c-0.556,0.744-1.397,1.316-2.53,1.719c-0.97,0.344-2.235,0.245-3.793-0.296c-1.556-0.54-2.448-1.131-2.68-1.779
		c-0.86-2.423-0.529-4.953,0.996-7.588c1.523-2.632,3.58-4.411,6.163-5.329l1.214-0.43c2.423-0.862,4.808-1.204,7.142-1.032
		c2.339,0.172,4.22,0.734,5.649,1.682c2.135,0.883,3.85,2.006,5.15,3.36c1.301,1.36,2.412,3.334,3.328,5.92
		c0.632,1.783,0.805,3.538,0.508,5.279c-0.292,1.743-0.354,2.856-0.18,3.342l3.458,2.05c2.089,1.265,3.408,2.16,3.957,2.689
		c1.488,1.112,2.581,2.136,3.274,3.071c0.701,0.938,1.662,2.372,2.891,4.3c0.785,1.18,1.928,2.093,3.43,2.743
		c1.505,0.65,2.807,1.235,3.9,1.757c0.82,0.255,1.569,0.444,2.248,0.566c0.685,0.124,1.3,0.452,1.851,0.981
		c1.098,0.524,1.835,0.809,2.214,0.854c0.384,0.046,1.063,0.169,2.041,0.368c1.042,0.36,2.472,0.672,4.29,0.934
		c1.826,0.264,3.361,0.358,4.606,0.279c1.411-0.134,3.181-0.534,5.31-1.2c2.132-0.663,3.538-1.571,4.218-2.729
		c0.685-1.15,1.572-2.374,2.657-3.672c1.09-1.294,1.564-2.646,1.427-4.056c0.19-1.523,0.172-3.108-0.051-4.762
		c-0.218-1.649-0.29-3.127-0.207-4.43c-1.714-1.756-3.154-3.25-4.319-4.478c-1.16-1.225-3.258-1.752-6.297-1.587
		c-2.918,0.491-5.354,1.448-7.31,2.867c-1.953,1.423-3.1,3.194-3.439,5.314c-0.198,0.984-0.202,2.12-0.016,3.419
		c0.188,1.298,0.755,2.511,1.698,3.631c1,1.284,1.721,2.03,2.159,2.238c0.44,0.209,1.528,0.459,3.271,0.75
		c2.667,0.33,4.822-0.389,6.469-2.159c1.65-1.767,2.014-3.943,1.096-6.533c-0.4-1.128-1.145-1.958-2.245-2.48
		c-1.094-0.521-2.208-0.581-3.341-0.18c-1.776,0.631-2.71,1.601-2.794,2.903c-0.46,1.257-0.475,1.991-0.038,2.197
		c0.443,0.213,0.859,0.884,1.26,2.012c1.086-0.018,1.791-0.089,2.111-0.202c0.327-0.115,0.529-0.186,0.607-0.217
		c0.084-0.03,0.215-0.166,0.4-0.414c0.185-0.244,0.763-0.545,1.733-0.889c0.172,0.486,0.185,1.028,0.032,1.626
		c-0.151,0.601-0.387,0.957-0.712,1.074c-2.098,0.744-3.768,0.79-5.002,0.137c-1.231-0.656-2.025-1.606-2.375-2.847
		c-0.347-1.241-0.263-2.543,0.25-3.909c0.519-1.365,1.423-2.281,2.715-2.74l1.214-0.43c1.781-0.632,3.533-0.433,5.26,0.591
		c1.73,1.026,2.911,2.426,3.541,4.204l0.172,0.486c0.516,1.456,0.182,3.213-0.997,5.271c-1.182,2.057-2.581,3.372-4.199,3.948
		c-1.128,0.4-2.496,0.66-4.094,0.769c-1.598,0.113-2.864-0.119-3.799-0.701c-0.714-0.472-1.665-1.228-2.852-2.265
		c-1.185-1.032-1.979-2.117-2.382-3.25c-1.204-3.396-1.287-6.323-0.249-8.787c1.037-2.458,2.953-4.367,5.749-5.725
		c1.238-0.62,2.723-1.056,4.451-1.306c1.735-0.247,3.199-0.221,4.398,0.08c0.599,0.153,1.255,0.33,1.961,0.53
		c0.714,0.206,1.365,0.382,1.964,0.534c0.763,0.096,1.421,0.409,1.971,0.938c0.556,0.534,1.05,0.902,1.488,1.112l0.1,1.055
		l1.384,0.054l2.809,6.377c-0.033,0.924,0.072,1.477,0.317,1.663c0.249,0.183,0.328,0.66,0.231,1.419
		c-0.15,0.601-0.277,1.149-0.376,1.636c-0.099,0.492-0.191,1.117-0.29,1.877c-0.196,0.983-0.569,1.979-1.122,2.993
		c-0.55,1.015-0.981,1.851-1.295,2.506c-0.519,1.098-1.231,2.033-2.144,2.809c-0.905,0.781-1.789,1.502-2.644,2.168
		c-1.176,0.784-2.224,1.292-3.145,1.525c-0.916,0.234-2.233,0.75-3.959,1.542c-1.94,0.688-4.229,0.774-6.872,0.253
		c-2.64-0.518-4.778-1.035-6.418-1.547c-1.636-0.511-2.713-0.854-3.234-1.035c-0.516-0.18-1.464-0.663-2.836-1.451
		c-0.494-0.371-1.372-0.922-2.635-1.658c-1.26-0.736-2.296-0.962-3.106-0.674c-0.808,0.287-1.069,0.836-0.782,1.642
		c0.288,0.812,0.387,1.596,0.29,2.356c0.139,1.41,0.026,2.632-0.336,3.67c0.137,1.41-0.033,2.605-0.5,3.589
		c-0.47,0.988-0.962,2.026-1.488,3.122c-0.613,1.856-2.001,3.85-4.158,5.982c-2.155,2.128-4.527,3.653-7.116,4.572
		c-2.098,0.746-4.131,1.056-6.087,0.929c-1.956-0.124-3.75-0.444-5.389-0.954c-1.035-0.358-2.507-1.295-4.41-2.805
		c-1.902-1.51-3.138-3.073-3.712-4.688l-1.118-3.154c-0.344-0.967-0.374-2.093-0.105-3.374c0.276-1.281,0.779-2.552,1.515-3.814
		c0.739-1.262,1.571-2.377,2.5-3.347c0.932-0.965,1.881-1.623,2.85-1.966l1.698-0.602c0.811-0.288,1.596-0.384,2.356-0.29
		c0.763,0.096,1.526,0.188,2.284,0.28c0.819,0.256,1.692,0.405,2.614,0.438c0.162-0.057,0.977-0.707,2.444-1.958
		c1.469-1.247,2.743-2.155,3.815-2.718c1.502-0.897,2.976-1.236,4.416-1.023c1.44,0.218,2.89,0.067,4.344-0.449
		c-0.789-1.721-1.502-2.832-2.138-3.337c-0.631-0.5-1.638-1.419-3.024-2.75c-0.551-0.53-1.599-1.434-3.145-2.708
		c-1.544-1.27-2.718-1.765-3.529-1.478l-0.486,0.172c-0.948,1.427-1.953,2.697-3.02,3.801c-0.897,1.05-1.924,2.006-3.078,2.867
		c-1.15,0.865-2.291,1.494-3.422,1.897c-2.1,0.744-4.319,1.032-6.659,0.859c-2.334-0.169-4.483-0.454-6.447-0.852
		c-1.958-0.397-3.677-0.744-5.146-1.04c-1.469-0.296-2.579-0.221-3.334,0.228c0.46,1.295,0.959,2.437,1.491,3.43
		c0.537,0.996,0.36,2.289-0.537,3.878c-0.626,1.313-1.38,2.265-2.265,2.85c-0.883,0.588-2.296,1.225-4.236,1.913l-0.656-0.312
		c0.048-0.379,0.068-0.707,0.062-0.977c-0.003-0.274-0.121-0.73-0.352-1.378l-0.088-0.242c-0.4-1.129-1.254-1.877-2.565-2.229
		c-1.308-0.355-2.608-0.303-3.903,0.158l-2.426,0.86c-1.292,0.457-2.539,1.172-3.744,2.147c-1.2,0.972-2.089,1.928-2.672,2.859
		c0.714,0.476,1.526,0.961,2.428,1.459c0.905,0.497,1.716,0.986,2.429,1.459c0.935,0.58,1.762,1.243,2.48,1.987
		c0.722,0.747,1.386,1.466,1.995,2.159c0.558,0.534,1.22,1.252,1.995,2.16c0.779,0.908,1.596,1.8,2.453,2.68
		c0.859,0.883,1.741,1.564,2.643,2.066c0.906,0.497,1.763,0.604,2.57,0.315c0.486-0.17,0.862-0.532,1.12-1.078
		c0.263-0.546,0.715-0.938,1.36-1.166c0.97-0.344,2.05,0.003,3.235,1.035c1.187,1.039,1.952,2.039,2.294,3.009l0.088,0.242
		c0.344,0.97,0.339,2.109-0.016,3.419c-0.355,1.313-0.876,2.27-1.572,2.88c-0.529,0.556-1.478,1.345-2.844,2.374
		c-1.362,1.029-1.929,1.872-1.701,2.514l0.172,0.486c0.288,0.812,0.913,1.545,1.873,2.203c0.962,0.661,1.85,0.846,2.656,0.561
		c0.166-0.057,0.271-0.139,0.322-0.25c0.054-0.108,0.212-0.301,0.476-0.578l-0.688-1.94c0.409-1.418,1.258-2.358,2.552-2.817
		c0.647-0.231,1.397-0.04,2.248,0.566c0.855,0.61,1.337,1.075,1.451,1.397l0.258,0.728c0.229,0.647,0.002,1.413-0.69,2.292
		c-0.685,0.881-1.434,1.464-2.245,1.752l-1.214,0.43c-0.808,0.287-1.743,0.346-2.805,0.175c-1.058-0.169-1.807-0.357-2.249-0.567
		c-1.485-1.11-2.759-2.659-3.831-4.647c-0.529,0.554-0.693,1.249-0.491,2.085c0.209,0.84,0.266,1.638,0.167,2.399
		c-0.15,0.599-0.256,1.319-0.323,2.162c-0.064,0.841-0.199,1.483-0.411,1.921c-0.198,0.983-0.347,1.717-0.448,2.206
		c-0.099,0.492-0.432,1.203-1.016,2.135c-0.151,0.601-0.462,1.257-0.94,1.972c-0.471,0.712-0.814,1.292-1.024,1.728
		c-0.519,1.096-0.905,1.687-1.149,1.771c-0.241,0.086-0.761,0.545-1.56,1.372l-1.596,1.66c-0.527,0.553-1.09,1.028-1.682,1.416
		c-0.322,0.113-0.942,0.429-1.854,0.932c-0.911,0.505-1.902,1.04-2.979,1.604c-1.074,0.562-2.026,1.08-2.861,1.56
		c-0.83,0.475-1.407,0.773-1.733,0.889l-3.395,1.204c-0.644,0.231-2.015,0.484-4.096,0.769c-2.084,0.288-3.285,0.484-3.611,0.599
		c-0.486,0.172-1.47,0.206-2.968,0.099c-1.493-0.105-2.57-0.319-3.226-0.631c-0.436-0.209-0.852-0.607-1.244-1.198
		c-0.387-0.586-0.832-1.071-1.33-1.439c-0.115-0.323-0.365-0.642-0.752-0.962c-0.384-0.314-0.824-0.663-1.321-1.032
		c-0.989-0.742-1.889-1.604-2.695-2.592c-0.801-0.989-1.51-1.829-2.124-2.523l-2.55-5.649c-0.609-0.695-1.238-0.929-1.888-0.698
		l-0.969,0.346c-1.615,0.572-2.898,1.574-3.849,3.004c0.334,0.429,0.765,1.005,1.294,1.725c0.53,0.725,0.938,1.491,1.225,2.296
		c0.288,0.812,0.425,1.58,0.411,2.312c-0.013,0.734-0.421,1.241-1.231,1.529l-1.212,0.432c-0.322,0.113-0.758,0.041-1.308-0.221
		c-0.543-0.258-1.035-0.494-1.478-0.703c-0.551-0.529-0.832-1.071-0.844-1.612c-0.008-0.543-0.158-1.215-0.444-2.025
		c0.048-0.379,0.204-0.844,0.46-1.394c0.263-0.545,0.335-0.98,0.22-1.305c-0.287-0.809-1.008-1.05-2.171-0.733
		c-1.157,0.322-2.112,0.707-2.867,1.155c-0.91,0.507-1.576,1.063-2.002,1.668c-0.421,0.604-0.977,1.212-1.674,1.822
		c-0.683,1.155-1.716,2.477-3.099,3.965c-1.381,1.493-2.88,2.523-4.497,3.098l-0.97,0.344c-1.614,0.572-3.14,0.387-4.569-0.564
		c-1.427-0.948-2.458-2.31-3.089-4.091c-0.287-0.806-0.166-1.759,0.352-2.856c0.526-1.094,1.133-1.945,1.824-2.555
		c0.857-0.667,1.832-0.742,2.926-0.22c1.099,0.523,1.944,0.859,2.543,1.01c0.46,1.295,0.847,2.386,1.161,3.275
		c0.315,0.891-0.167,1.832-1.45,2.834c0.44,0.21,0.898,0.228,1.383,0.056l0.728-0.258c0.327-0.115,1.246-0.852,2.764-2.213
		c1.525-1.36,2.308-2.224,2.353-2.608c0.581-0.932,1.254-1.854,2.023-2.766c0.769-0.908,1.883-1.623,3.337-2.139l0.484-0.172
		c1.297-0.459,2.391-0.573,3.29-0.347c0.9,0.228,1.676,0.225,2.319-0.005l0.728-0.258c0.647-0.231,1.104-0.481,1.368-0.758
		c0.269-0.276,0.698-0.61,1.284-1.002c0.37-0.494,0.911-0.774,1.612-0.844c0.706-0.065,1.381-0.218,2.025-0.446
		c1.02-0.723,1.669-1.59,1.945-2.6c0.282-1.012,0.519-2.002,0.717-2.985c0.352-1.58,1.214-3.251,2.589-5.015
		c1.38-1.76,2.899-3.119,4.561-4.075c1.932-1.231,4.05-1.937,6.348-2.116c2.305-0.178,4.304,0.069,5.998,0.739
		c1.857,0.618,3.425,1.698,4.701,3.247c1.281,1.553,2.318,3.457,3.121,5.719c0.459,1.295,0.597,2.839,0.416,4.633
		c-0.182,1.795-0.589,3.076-1.228,3.849c-1.252,2.627-3.492,4.515-6.729,5.663c-1.776,0.631-3.581,0.682-5.41,0.147
		c-1.826-0.535-3.576-1.231-5.249-2.098c-1.671-0.862-3.137-1.66-4.4-2.399c-1.26-0.734-2.216-0.988-2.864-0.758
		c-0.322,0.113-0.408,0.51-0.263,1.185c0.151,0.675,0.309,1.254,0.483,1.74c0.115,0.327,0.701,1.212,1.76,2.654
		c1.058,1.443,1.727,2.299,2.001,2.565c0.773,0.639,1.15,1.051,1.123,1.239c-0.022,0.19,0.457,0.384,1.434,0.583
		c0.985,0.198,1.501,0.379,1.56,0.54c0.056,0.164,0.414,0.398,1.07,0.711c0.497,0.37,1.3,0.589,2.415,0.645
		c1.114,0.062,2.334,0.038,3.661-0.07c1.329-0.104,2.684-0.269,4.059-0.484c1.384-0.218,2.398-0.44,3.041-0.669l1.94-0.688
		l8.7-4.727c1.012-1.266,1.987-1.975,2.931-2.132c0.949-0.153,2.01-0.621,3.188-1.403c0.698-0.612,1.225-1.434,1.58-2.474
		c0.363-1.035,0.86-1.942,1.494-2.713c0.468-1.259,1.08-3.25,1.838-5.979c0.763-2.727,0.828-4.978,0.196-6.759
		c-0.344-0.969-0.9-1.77-1.674-2.409c-0.427,0.335-0.975,0.712-1.646,1.129c-0.671,0.422-1.164,0.687-1.491,0.803l-1.698,0.602
		c-2.262,0.803-4.089,0.269-5.483-1.604c-1.388-1.87-1.834-3.898-1.337-6.077c0.057,0.163,0.507,0.276,1.349,0.339
		c0.843,0.067,1.348,0.069,1.505,0.013c0.97-0.344,1.755-1.212,2.351-2.611c0.599-1.392,0.84-2.249,0.723-2.578
		c-0.285-0.806-0.401-1.4-0.358-1.783c0.048-0.379-0.043-0.894-0.274-1.54c-0.287-0.809-0.983-1.88-2.096-3.218
		c-1.107-1.333-1.94-2.269-2.495-2.801c-0.551-0.53-1.611-1.204-3.173-2.015c-1.56-0.812-2.745-1.075-3.554-0.787
		c-0.969,0.344-2.117,1.346-3.443,2.998c-1.324,1.655-2.821,3.457-4.494,5.415c-1.67,1.958-3.385,3.796-5.144,5.512
		c-1.757,1.714-3.524,2.888-5.306,3.521c0.072,0.704-0.427,1.611-1.494,2.715c-1.062,1.106-2.318,2.186-3.763,3.245
		c-1.442,1.058-2.917,2.038-4.419,2.934c-1.499,0.898-2.74,1.518-3.709,1.862l-6.547,2.323c-0.323,0.115-1.035,0.279-2.149,0.491
		c-1.106,0.213-2.227,0.381-3.368,0.511c-1.134,0.131-2.232,0.245-3.29,0.349c-1.055,0.1-1.77,0.129-2.154,0.081
		c-0.701,0.07-1.434,0.193-2.192,0.366c-0.755,0.178-1.623,0.166-2.606-0.032c-0.919-0.033-1.692-0.033-2.319,0.005
		c-0.621,0.041-1.392,0.04-2.32,0.003c-3.368-0.26-6.562-0.677-9.587-1.239c-3.02-0.567-5.977-1.335-8.875-2.313
		c0.279,0.269,0.54,0.492,0.785,0.677c0.249,0.185,0.457,0.521,0.631,1.007c0.115,0.325,0.266,1.134,0.452,2.431
		c0.186,1.298,0.153,2.09-0.116,2.362c-0.242,1.36-1.36,2.578-3.35,3.645c-1.292,0.459-2.085,0.789-2.382,0.983
		c-0.293,0.198-1.069,0.064-2.327-0.405c-0.599-0.15-1.286-0.542-2.058-1.182c-0.769-0.632-1.243-1.195-1.416-1.681l-0.17-0.486
		c-0.229-0.644-0.252-1.094-0.067-1.343c0.185-0.244,0.384-0.588,0.591-1.029c0.21-0.438,0.325-0.887,0.341-1.348
		c0.019-0.46,0.102-0.994,0.253-1.593c-0.287-0.809-0.797-1.993-1.533-3.551c-0.733-1.56-1.54-2.547-2.418-2.965
		c-0.714-0.475-1.568-1.222-2.566-2.23c-0.996-1.013-1.931-1.725-2.809-2.144c-2.257-1.748-4.346-3.28-6.273-4.601
		c-0.056-0.161-0.36-0.507-0.914-1.039c-0.551-0.532-1.104-1.066-1.658-1.599c-0.551-0.527-1.09-1.021-1.617-1.472
		c-0.521-0.451-0.867-0.65-1.029-0.593l-9.373,3.599l2.652,6.705l0.962,3.482l0.172,0.484c0.229,0.648,1.352,1.117,3.363,1.402
		c2.014,0.288,3.404,0.478,4.163,0.572c1.141,0.139,2.369,0.524,3.683,1.149c1.314,0.628,2.52,1.201,3.615,1.722
		c1.157,0.683,2.144,1.424,2.973,2.224c0.83,0.798,1.8,1.728,2.903,2.793c1.327,1.166,2.302,2.643,2.933,4.419
		c0.631,1.783,1.227,2.936,1.776,3.466l-0.47,0.986c0.497,0.368,0.849,0.973,1.051,1.811c0.209,0.84,0.362,1.783,0.462,2.84
		c0.1,1.055,0.175,2.031,0.22,2.925c0.043,0.897-0.035,1.561-0.247,1.999c-0.033,0.926-0.182,1.662-0.444,2.206
		c-0.26,0.548-0.436,1.203-0.532,1.964c0.08,1.247-0.029,1.966-0.325,2.16c-0.295,0.198-0.65,0.734-1.069,1.609
		c-0.661,2.24-2.205,4.562-4.628,6.968c-2.421,2.407-5.168,4.153-8.242,5.244l-1.697,0.602c-0.486,0.172-1.714,0.292-3.698,0.357
		c-1.975,0.064-3.347,0.051-4.11-0.043c-1.085,0.022-2.2-0.175-3.349-0.586c-1.145-0.416-2.21-0.718-3.192-0.916
		c-2.187-1.04-4.086-2.417-5.694-4.124c-1.604-1.705-2.954-4.091-4.045-7.166c-0.542,0.013-1.258,0.035-2.157,0.083
		c-0.894,0.041-1.665,0.18-2.311,0.409c-0.159,0.057-0.343,0.577-0.539,1.558c-0.199,0.983-0.462,2.033-0.795,3.151
		c-0.33,1.117-0.755,2.224-1.281,3.32c-0.519,1.098-1.346,1.843-2.48,2.246l-1.212,0.43c-0.808,0.287-1.743,0.344-2.805,0.174
		c-1.059-0.169-1.736-0.655-2.023-1.466l-0.432-1.214c-0.344-0.97-0.204-2.111,0.424-3.425c0.626-1.316,1.367-2.302,2.224-2.973
		c0.797-0.83,1.773-1.539,2.93-2.132c1.157-0.591,2.324-1.278,3.502-2.061c-0.172-0.486-0.245-0.824-0.225-1.015
		c0.029-0.188-0.022-0.444-0.137-0.769c-0.113-0.322-0.642-1.042-1.588-2.167c-0.943-1.12-1.662-1.869-2.159-2.237
		c-1.152-0.685-1.905-1.142-2.264-1.381c-0.358-0.236-1.187-0.4-2.492-0.481c-2.017-0.559-3.787-0.932-5.313-1.12
		c-1.52-0.185-3.384,0.202-5.593,1.165c-2.206,0.965-3.723,2.461-4.553,4.483c-0.827,2.025-1.102,3.941-0.827,5.753
		c0.28,1.813,1.027,3.28,2.241,4.394c1.215,1.117,2.793,1.33,4.733,0.642l0.242-0.086c0.647-0.231,1.182-0.647,1.604-1.254
		c0.425-0.604,0.518-1.228,0.29-1.877c-0.287-0.808-0.763-1.642-1.431-2.495c-0.667-0.855-1.404-1.142-2.214-0.852l-0.242,0.086
		c-0.808,0.287-1.356,0.8-1.639,1.537c-0.284,0.741-0.311,1.432-0.083,2.077l-0.969,0.344c-0.486,0.172-0.929-0.304-1.33-1.439
		c0.154-0.601,0.425-1.243,0.819-1.929c0.395-0.688,1.075-1.201,2.045-1.545l0.726-0.258c1.134-0.401,2.367-0.382,3.704,0.051
		c1.341,0.436,2.179,1.139,2.523,2.109l0.69,1.939c0.516,1.456-0.075,2.989-1.784,4.594c-1.705,1.607-3.366,2.694-4.985,3.269
		c-0.97,0.344-2.055,0.231-3.263-0.344c-1.201-0.572-2.139-1.29-2.809-2.146c-0.667-0.854-1.176-2.038-1.533-3.551
		c-0.355-1.512-0.513-2.729-0.479-3.654c0.468-1.257,0.774-2.321,0.916-3.192c0.148-0.871,0.726-1.937,1.728-3.207
		c1.067-1.104,1.889-1.988,2.474-2.652c0.585-0.66,1.818-1.418,3.701-2.268c2.21-0.962,4.808-1.338,7.793-1.126
		c2.99,0.215,5.174,0.988,6.554,2.316c0.992,0.741,1.899,1.236,2.716,1.494c0.82,0.257,1.706,1.219,2.659,2.88
		c0.959,1.666,1.674,2.914,2.147,3.744c0.479,0.833,1.77,0.875,3.87,0.129l0.242-0.086c0.164-0.057,0.351-0.301,0.556-0.742
		c-0.572-1.615-0.351-3.562,0.661-5.834c1.016-2.272,2.251-3.666,3.704-4.18l1.456-0.516c1.779-0.631,3.043,0.107,3.787,2.208
		l0.344,0.967c0.231,0.648,0.137,1.411-0.282,2.288c-0.414,0.876-1.012,1.768-1.779,2.678c-0.768,0.913-1.62,1.714-2.558,2.41
		c-0.934,0.698-1.889,1.217-2.86,1.561l-0.354,2.855c1.109,1.066,1.996,2.159,2.67,3.285c0.672,1.126,1.778,2.057,3.309,2.786
		c1.098,0.523,2.449,0.999,4.056,1.427c1.612,0.432,3.062,0.414,4.352-0.043l3.999,0.494l-2.676-3.693
		c0.19-1.521,0.218-2.85,0.088-3.989c-0.129-1.136,0.559-2.152,2.058-3.051c0.696-0.61,1.38-0.989,2.052-1.139
		c0.679-0.148,1.529-0.311,2.555-0.497c1.896-0.306,2.603-0.241,2.12,0.204c-0.48,0.441-0.575,1.069-0.29,1.878l0.086,0.241
		c0.516,1.456,1.623,2.386,3.309,2.786c1.692,0.403,3.259,0.072,4.701-0.986c1.02-0.723,1.894-1.853,2.622-3.387
		c0.733-1.533,1.279-2.818,1.635-3.857c0.352-1.58,0.523-3.145,0.519-4.69c0-1.545-0.29-3.127-0.863-4.746
		c0.04-0.924-0.019-1.859-0.175-2.805c-0.153-0.945-0.344-1.741-0.573-2.39c-0.444-0.752-0.937-1.485-1.467-2.211
		c-0.529-0.72-0.967-1.568-1.311-2.539c-1.7-1.214-3.151-2.474-4.346-3.784c-1.188-1.305-2.823-2.318-4.9-3.04
		c-1.636-0.51-3.369-1.029-5.2-1.568c-1.827-0.532-3.799-0.699-5.91-0.497c-1.005,1.27-2.028,3.135-3.068,5.595
		c-1.035,2.464-2.362,3.979-3.983,4.553l-0.726,0.257c-1.778,0.631-3.213,0.048-4.306-1.748c-1.091-1.799-0.97-3.385,0.357-4.768
		c1.595-1.658,3.092-2.824,4.489-3.505c1.399-0.677,3.173-1.579,5.321-2.705c-0.287-0.809-0.296-1.353-0.032-1.628
		c0.269-0.276,0.342-0.573,0.228-0.898c-0.287-0.808-0.811-1.896-1.568-3.267c-0.76-1.367-1.333-2.348-1.725-2.938
		c-0.771-0.636-1.829-1.305-3.172-2.015c-1.343-0.706-2.042-1.141-2.1-1.303c-0.172-0.486-0.139-0.769,0.104-0.855
		c0.242-0.088,0.578-0.296,1.007-0.631c0.763,0.097,2.219,0.217,4.36,0.365c2.149,0.151,3.704,0.051,4.676-0.293
		c0.97-0.346,1.861-0.797,2.66-1.356c0.805-0.558,1.555-1.141,2.245-1.752l-0.258-0.728l-7.414-13.206l0.64-0.499l-0.172-0.486
		l-1.118-3.153c-0.771-0.636-1.494-0.879-2.17-0.733c-0.674,0.148-1.472,0.207-2.398,0.167c-0.922-0.035-1.823-0.263-2.7-0.68
		c-0.873-0.417-1.368-0.787-1.485-1.112c-0.862-2.425-0.8-4.174,0.183-5.254c0.983-1.074,2.608-2.017,4.87-2.82l2.184-0.774
		c-0.288-0.808-0.382-1.456-0.284-1.948c0.099-0.489,0.169-1.195,0.204-2.122c-0.132-1.407-0.22-2.286-0.253-2.638
		c-0.032-0.354-0.059-1.072-0.083-2.157l0.986-7.996c-0.229-0.644-0.695-0.8-1.392-0.462c-0.698,0.342-1.128,0.537-1.292,0.594
		c-0.644,0.229-1.056,0.1-1.228-0.382l-3.639,1.29c-1.615,0.573-2.823,1.276-3.621,2.104c-0.798,0.828-2.227,1.158-4.295,0.977
		c0.303-1.2,0.617-1.856,0.938-1.969c0.327-0.116,0.892-0.317,1.698-0.604c0.325-0.115,1.289-0.73,2.893-1.846
		c1.611-1.117,2.517-1.893,2.723-2.331c1.494-1.439,2.243-3.433,2.246-5.985c-1.359-0.244-2.777-0.014-4.26,0.693
		c-1.478,0.707-3.006,0.886-4.59,0.535c-1.464-0.027-2.539-0.233-3.226-0.631c-0.685-0.392-1.166-0.859-1.451-1.397
		c-0.279-0.535-0.508-1.048-0.68-1.533c-0.172-0.486-0.503-0.914-1.002-1.284c0.354-1.58,0.652-2.915,0.898-4.007
		c0.255-1.088,1.348-1.979,3.285-2.667c2.268-0.804,4.577-0.574,6.933,0.68c2.358,1.258,3.909,2.941,4.655,5.039l0.258,0.726
		c2.656-0.212,4.914-1.287,6.777-3.221c1.864-1.934,3.567-3.541,5.115-4.817c1.713-1.333,3.4-2.614,5.055-3.841
		c1.66-1.225,3.486-2.372,5.471-3.443L583.605,423.398z M545.696,553.991c0.382-1.228,0.672-2.603,0.855-4.129
		c-0.378-0.045-0.583-0.107-0.613-0.19c-0.029-0.081-0.202-0.067-0.529,0.049l-0.728,0.258c-1.292,0.457-2.498,1.158-3.621,2.103
		c-1.12,0.945-1.426,2.144-0.908,3.6l0.172,0.486c0.172,0.486,0.451,0.752,0.83,0.798c0.384,0.046,0.734,0.011,1.058-0.102
		C544.15,556.175,545.312,555.216,545.696,553.991z M556.687,439.503c0.671-0.417,0.891-0.953,0.661-1.601l-0.258-0.726
		c-0.459-1.294-1.646-2.463-3.567-3.513c-1.916-1.048-3.282-1.431-4.093-1.144l-1.212,0.43c-0.808,0.287-1.461,0.75-1.967,1.381
		c-0.499,0.634-0.855,1.169-1.067,1.607l0.86,2.426c0.231,0.647,0.879,1.188,1.945,1.63c1.069,0.44,1.821,0.766,2.257,0.973
		c0.969-0.344,1.795-0.454,2.477-0.331c0.683,0.123,1.426,0.038,2.232-0.247C555.438,440.219,556.018,439.922,556.687,439.503z
		 M555.597,546.108c1.512-0.354,3.044-1.168,4.593-2.447c1.553-1.279,2.037-2.724,1.462-4.344c-0.228-0.642-0.656-1.086-1.287-1.317
		c-0.628-0.231-1.158-0.451-1.601-0.661c-1.118,0.943-2.023,1.858-2.713,2.738c-0.687,0.883-0.717,2.213-0.088,3.989l-0.486,0.172
		L555.597,546.108z M559.381,475.957c1.2,0.303,2.256,0.202,3.169-0.306c1.454-0.516,1.818-1.418,1.088-2.705
		s-1.075-2.393-1.042-3.318l-2.367-0.524l-1.182,2.058l-2.096,1.018c-0.207,0.44-0.169,1.061,0.116,1.87
		C557.408,475.017,558.181,475.656,559.381,475.957z M563.849,520.107c0.703-1.615,1.123-2.993,1.263-4.136
		c-0.378-0.043-0.72-0.107-1.021-0.183c-0.299-0.073-0.609-0.057-0.935,0.059l-1.697,0.602c-1.13,0.4-2.16,1.223-3.087,2.46
		c-0.926,1.241-1.187,2.426-0.787,3.556l0.172,0.486c0.231,0.647,0.642,0.91,1.235,0.789c0.599-0.116,1.056-0.236,1.376-0.35
		C561.988,522.817,563.148,521.719,563.849,520.107z M564.443,447.128c0.327-0.116,0.734-0.624,1.233-1.529
		c0.497-0.903,0.994-1.945,1.486-3.122c0.497-1.174,0.961-2.294,1.4-3.365c0.441-1.064,0.876-1.763,1.303-2.1
		c0.269-0.274,0.717-0.937,1.346-1.979c0.632-1.042,1.372-2.167,2.214-3.379c0.953-1.431,1.952-2.966,3.006-4.615
		c-0.75,0.449-1.756,1.215-3.009,2.296c-1.254,1.085-2.226,1.929-2.923,2.538c-0.898,1.05-1.738,1.893-2.515,2.531
		c-0.769,0.642-1.719,1.429-2.844,2.374c-0.957,0.887-2.017,1.628-3.172,2.219c-1.157,0.593-1.719,1.429-1.7,2.515
		c-0.177,2.068-0.516,3.417-1.024,4.048c-0.499,0.634-0.825,1.521-0.964,2.664L564.443,447.128z M572.953,466.497
		c1.134-0.401,1.676-1.822,1.626-4.265c-0.046-2.439-0.357-4.469-0.93-6.085c-0.344-0.97-1.439-2.264-3.29-3.884
		c-1.845-1.619-3.258-2.256-4.226-1.913c-0.645,0.231-1.072,1.337-1.281,3.322c-0.206,1.985-0.166,3.384,0.121,4.19
		c-0.454,1.8-0.701,3.025-0.744,3.678c-0.04,0.653,0.18,2.167,0.656,4.547c0.221,0.104,0.736,0.148,1.55,0.132
		s1.684-0.005,2.606,0.032L572.953,466.497z M569.594,471.649c1.523-1.36,2.139-2.441,1.85-3.251
		c-0.228-0.644-1.179-0.898-2.863-0.76c-1.677,0.143-2.84,0.325-3.489,0.556c-0.043,0.382-0.169,0.927-0.374,1.634
		c-0.201,0.71-0.247,1.228-0.134,1.55l0.602,1.697c0.116,0.327,0.244,0.554,0.379,0.687c0.142,0.132,0.264,0.362,0.379,0.683
		C566.857,473.943,568.074,473.007,569.594,471.649z M579.681,477.764c-1.101-1.063-1.918-2.46-2.439-4.187
		c-0.519-1.727-1.791-2.867-3.811-3.425c-0.75,0.449-1.456,1.02-2.125,1.708c-0.663,0.693-1.313,1.423-1.953,2.195
		c-1.061,1.106-1.73,1.665-2.002,1.666c-0.271,0.006-0.879,0.722-1.83,2.152c0.221,0.105,0.57,0.573,1.043,1.405
		c0.479,0.832,0.93,1.717,1.354,2.659c0.429,0.941,0.811,1.897,1.155,2.869c0.346,0.97,0.573,1.619,0.688,1.939
		c0.116,0.327,0.387,0.956,0.811,1.897c0.429,0.941,0.93,1.854,1.517,2.74c0.588,0.883,1.172,1.631,1.754,2.245
		c0.583,0.613,1.034,0.86,1.357,0.747c0.811-0.288,1.582-1.059,2.316-2.323c0.739-1.262,1.335-2.659,1.792-4.187
		c0.459-1.528,0.714-3.121,0.763-4.776c0.053-1.657-0.154-3.127-0.615-4.424L579.681,477.764z M574.449,438.39l3.068-1.36
		l-1.572-1.354l-3.707,1.862c0.344,0.969,0.841,1.338,1.486,1.109L574.449,438.39z M578.612,443.193
		c2.103-0.747,3.329-1.907,3.678-3.489l-4.273-2.034l-1.11,1.486c-0.379-0.043-0.731-0.013-1.056,0.102l-0.97,0.346
		c-0.484,0.17-1.02,0.454-1.612,0.843l1.33,1.44l0.158-0.33l5.335-1.893l0.258,0.728l-3.067,1.36l-0.241,0.086
		c-0.486,0.17-0.863,0.263-1.136,0.264c-0.271,0.006-0.566,0.065-0.892,0.18c0.623,1.238,1.658,1.596,3.113,1.08L578.612,443.193z
		 M573.433,550.975c0.499,0.368,1.228,0.382,2.2,0.037c0.325-0.115,0.398-0.414,0.226-0.898c-0.378-0.043-0.812,0.018-1.297,0.19
		C574.077,550.475,573.704,550.701,573.433,550.975z M575.913,434.047c-0.172-0.486-0.365-0.642-0.578-0.478
		c-0.214,0.169-0.481,0.306-0.806,0.424l-0.241,0.086l-0.728,0.258l-0.056,1.384c0.486-0.172,0.827-0.247,1.015-0.223
		c0.191,0.025,0.527-0.051,1.013-0.225C576.014,435.103,576.143,434.695,575.913,434.047z M573.653,553.9l1.228,0.384l-0.088-0.242
		L573.653,553.9z M577.581,554.966l-1.854,0.93l0.086,0.241l1.456-0.516l1.783-0.358l-0.172-0.486L577.581,554.966z
		 M576.163,553.284l1.142,0.142c-0.17-0.486-0.499-0.64-0.984-0.47C576.162,553.011,576.108,553.126,576.163,553.284z
		 M610.99,505.976c-0.379-0.045-1.137,0.131-2.27,0.532c-1.13,0.4-1.94,0.69-2.425,0.86c-1.407,0.137-2.084,0.287-2.025,0.446
		c0.057,0.164-0.559,0.472-1.854,0.93c-1.615,0.572-3.084,1.051-4.41,1.427c-1.319,0.378-2.71,0.827-4.166,1.341l0.454-1.8
		l-2.598,0.376c0.451,0.754,0.98,1.474,1.588,2.167c0.613,0.696,1.38,1.059,2.3,1.096c0.032,1.627,0.21,2.519,0.54,2.676
		c0.328,0.156,0.534,0.859,0.61,2.104c-0.045,0.382,0.03,0.854,0.231,1.419c0.201,0.569,0.28,1.04,0.231,1.421
		c0.116,0.327,0.03,0.718-0.263,1.185c-0.287,0.468-0.405,0.784-0.347,0.943c0.115,0.325,0.472,0.425,1.063,0.304
		c0.601-0.118,1.257-0.309,1.985-0.567c0.726-0.258,1.485-0.567,2.26-0.938c0.782-0.368,1.332-0.609,1.655-0.723
		c0.21-0.438,0.285-0.736,0.226-0.898c-0.113-0.322-0.279-0.537-0.5-0.642c-0.056-0.159-0.166-0.213-0.327-0.156l-0.188-1.298
		l-1.972-0.94c0.43-0.33,0.527-0.824,0.299-1.47c-0.229-0.644-0.51-1.184-0.844-1.612l11.797-4.459l-2.315-1.908L610.99,505.976z
		 M605.131,510.241l-5.337,1.893l-3.239,0.878l-0.172-0.486l7.847-2.511l2.824-1.276l0.242-0.086
		c0.325-0.115,0.448-0.159,0.365-0.129c-0.081,0.029,0.099,0.148,0.535,0.357c-0.159,0.057-0.228,0.127-0.199,0.207
		c0.03,0.084-0.035,0.15-0.199,0.207L605.131,510.241z M596.703,524.97c0.172,0.486,0.585,0.75,1.236,0.79
		c0.655,0.041,1.317-0.01,1.991-0.159c0.677-0.148,1.311-0.419,1.896-0.809c0.591-0.389,0.854-0.94,0.782-1.646L596.703,524.97z
		 M596.759,515.124l1.697-0.604c0.07,0.704-0.382,1.228-1.354,1.574L596.759,515.124z M598.582,521.029l-0.97,0.346l-0.172-0.486
		l1.697-0.604l3.239-0.875c-0.205,0.438-0.471,0.712-0.798,0.828L598.582,521.029z M597.792,518.033l-0.016-0.814l0.484-0.172
		l0.728-0.257l1.47,0.298c-0.159,0.056-0.228,0.126-0.199,0.207c0.03,0.084-0.037,0.148-0.199,0.207L597.792,518.033z
		 M608.15,514.904c0.532-0.553,1.461-1.02,2.78-1.396c1.327-0.376,1.842-0.967,1.555-1.779c-0.056-0.159-0.301-0.347-0.744-0.558
		l-6.547,2.324l-0.158,0.33L608.15,514.904z M605.293,506.088c0.763,0.096,2.076-0.19,3.933-0.849
		c1.861-0.66,2.675-1.311,2.445-1.959c-0.287-0.806-1.088-0.886-2.407-0.239c-1.314,0.652-2.219,1.061-2.702,1.233l-0.728,0.258
		L605.293,506.088z M610.724,500.609c-0.172-0.484-0.609-0.693-1.314-0.626c-0.699,0.07-1.216,0.158-1.541,0.272l-0.97,0.346
		c-0.808,0.287-1.313,0.785-1.518,1.494c-0.199,0.712,0.049,1.032,0.752,0.964c0.763,0.096,1.478-0.07,2.147-0.491
		c0.672-0.416,1.411-0.773,2.219-1.059C610.823,501.395,610.898,501.095,610.724,500.609z M662.006,505.081
		c0.166-0.057,0.642-0.499,1.44-1.33c0.798-0.83,1.69-1.781,2.673-2.86c0.983-1.074,1.915-2.044,2.793-2.901
		c0.883-0.86,1.453-1.426,1.717-1.701c0.269-0.276,0.827-0.883,1.674-1.824c0.854-0.938,1.73-1.932,2.629-2.981
		c0.903-1.045,1.644-2.038,2.222-2.971c0.583-0.932,0.812-1.56,0.696-1.888c-0.17-0.484-0.865-0.784-2.09-0.895
		c-1.223-0.113-2.592-0.126-4.112-0.043c-1.513,0.084-3.006,0.247-4.467,0.494c-1.459,0.242-2.514,0.481-3.161,0.711
		c-1.512,0.358-2.699,0.596-3.567,0.72c-0.863,0.126-2.077,0.558-3.638,1.292c-0.911,0.507-2.162,1.085-3.75,1.74
		c-1.585,0.656-2.646,1.26-3.181,1.811c-2.138,1.671-4.077,3.132-5.815,4.384c-1.74,1.257-3.624,2.608-5.662,4.057
		c-0.429,0.335-1.12,0.943-2.082,1.83c-0.957,0.886-1.931,1.87-2.914,2.944c-0.983,1.078-1.912,2.045-2.794,2.903
		c-0.878,0.857-1.446,1.427-1.716,1.701c-1.131,0.4-2.284,1.131-3.458,2.182c-1.169,1.055-2.648,1.894-4.429,2.527l-2.668,0.946
		c-0.484,0.172-1.496,0.395-3.038,0.669c-1.542,0.274-2.421,0.36-2.641,0.253c0.279,0.269,1.493,0.61,3.642,1.029
		c2.157,0.424,3.771,0.623,4.854,0.599c1.413-0.132,2.942-0.175,4.598-0.129c1.657,0.054,3.189,0.01,4.597-0.127
		c1.627-0.032,3.36-0.28,5.193-0.75c1.84-0.47,3.482-1.098,4.93-1.886c1.453-0.787,2.544-1.813,3.279-3.075
		c0.739-1.262,0.787-2.781,0.158-4.561l-0.516-1.456c-0.229-0.644-0.564-1.343-1.018-2.096c-0.444-0.75-0.347-1.241,0.298-1.47
		c1.134-0.403,2.307-0.04,3.522,1.072c1.215,1.118,2.713,1.36,4.489,0.728l0.486-0.17c0.97-0.346,1.254-1.082,0.852-2.216
		l-0.17-0.484c-0.288-0.808-0.745-1.327-1.373-1.56c-0.628-0.231-1.085-0.75-1.373-1.561c-0.113-0.32,0.285-0.873,1.19-1.65
		c0.911-0.774,1.523-1.225,1.846-1.338l0.726-0.258c1.619-0.573,3.302-0.577,5.047-0.014c1.749,0.564,2.852,1.493,3.309,2.785
		c0.46,1.294,0.675,2.539,0.642,3.733c-0.03,1.195-0.147,2.283-0.346,3.263L662.006,505.081z M624.829,535.746
		c-0.115-0.32-0.459-0.655-1.037-0.996c-0.572-0.342-1.024-0.457-1.349-0.342l-0.242,0.088c-1.294,0.457-1.682,1.416-1.164,2.871
		l0.828,0.798c0.279,0.269,0.5,0.64,0.674,1.126l1.542-0.274c0.212-0.436,0.46-0.887,0.747-1.357
		c0.292-0.467,0.32-1.024,0.091-1.671L624.829,535.746z M649.038,514.324c2.24-0.613,3.594-1.548,4.057-2.805
		c-0.486,0.172-1.251,0.443-2.304,0.817c-1.05,0.373-2.1,0.746-3.153,1.12c-1.05,0.371-1.99,0.8-2.823,1.274
		c-0.83,0.479-1.27,0.906-1.319,1.289C644.952,515.501,646.8,514.939,649.038,514.324z M644.841,535.199l0.086,0.242
		c0.17,0.486,0.499,0.64,0.984,0.468c0.327-0.115,0.472-0.344,0.433-0.698c-0.032-0.352-0.078-0.607-0.137-0.771
		c-0.228-0.642-0.83-0.797-1.799-0.452L644.841,535.199z M656.674,509.293c0.934-0.967,1.338-1.885,1.209-2.751
		c-0.921-0.035-1.878,0.213-2.875,0.749c-0.991,0.535-2.135,1.029-3.43,1.49c-0.969,0.344-2.045,0.774-3.231,1.284
		c-1.184,0.513-1.604,1.251-1.26,2.222l5.579-1.979c0.486-0.17,0.812-0.153,0.978,0.062c0.169,0.215,0.39,0.454,0.664,0.718
		C654.957,510.859,655.747,510.263,656.674,509.293z M659.169,505.541c0.323-0.115,0.575-0.43,0.755-0.949
		c0.182-0.518,0.183-1.023,0.011-1.507l-7.674,2.997c-0.644,0.229-1.727,0.523-3.24,0.876c-1.51,0.358-2.124,0.938-1.837,1.746
		l0.258,0.728L659.169,505.541z M652.659,497.202c-0.486,0.172-0.671,0.421-0.556,0.742c0.115,0.327,0.365,0.511,0.742,0.556
		c0.382,0.048,0.734,0.013,1.056-0.1c0.327-0.116,0.472-0.21,0.441-0.293c-0.029-0.081,0.12-0.18,0.443-0.296l1.212-0.43
		c-0.609-0.691-1.48-0.84-2.614-0.436L652.659,497.202z M659.887,500.646c-0.486,0.17-0.841-0.065-1.072-0.712
		c-0.113-0.322-0.051-0.527,0.191-0.613c0.242-0.088,0.307-0.29,0.193-0.617c-0.056-0.159-0.221-0.236-0.494-0.233
		c-0.272,0.005-0.464-0.153-0.578-0.48c-0.473,0.714-0.792,1.099-0.956,1.158l-0.486,0.172c-0.322,0.115-0.742,0.086-1.262-0.097
		c-0.516-0.18-1.18-0.127-1.993,0.161l1.658,1.596c0.014,0.542,0.132,1.139,0.36,1.783l0.172,0.486l4.124-1.462L659.887,500.646z
		 M675.039,531.04c1.779-0.631,3.145-2.297,4.094-5.004c0.953-2.702,1.085-5.026,0.397-6.966c-0.975-2.748-2.863-4.991-5.665-6.729
		c-2.802-1.736-5.413-2.174-7.839-1.314l-2.909,1.031c-2.75,0.975-5.058,2.933-6.93,5.874c-1.865,2.939-2.345,5.705-1.427,8.287
		c0.116,0.327,0.73,0.519,1.843,0.577c1.112,0.061,1.975,0.437,2.584,1.129c0.441,0.21,1.233,0.518,2.378,0.932
		c1.149,0.411,1.963,0.532,2.448,0.36c-0.609-0.693-0.916-1.813-0.918-3.36c-0.003-1.545,0.072-2.622,0.223-3.22
		c0.067-2.386,1.389-4.043,3.973-4.959l0.486-0.172c0.97-0.344,2.211-0.191,3.713,0.457c1.505,0.652,2.428,1.459,2.772,2.429
		l0.204,2.111c0.139,1.411,0.043,2.17-0.282,2.286c-0.529,0.556-0.871,1.128-1.026,1.728c-0.151,0.601-0.599,1.126-1.354,1.574
		l1.228,0.382c-0.312,0.656-0.629,1.042-0.954,1.158l-0.242,0.086c-1.13,0.401-2.087,0.016-2.871-1.165
		c-0.379-0.045-0.857-0.105-1.427-0.177c-0.57-0.068-1.018-0.048-1.343,0.067c-0.322,0.113-0.37,0.363-0.148,0.736
		c0.228,0.376,0.863,1.016,1.909,1.916c0.497,0.37,1.434,0.583,2.821,0.639c1.384,0.053,2.56-0.092,3.532-0.435L675.039,531.04z
		 M670.94,521.026c-0.344-0.969-1.215-1.112-2.614-0.438c-1.397,0.68-2.496,1.161-3.309,1.448l-0.14,1.141
		c0.44,0.212,0.535,0.358,0.293,0.443c-0.242,0.084-0.037,0.014,0.607-0.217l1.214-0.43L670.94,521.026z M668.491,524.899
		c0.384,0.046,0.84-0.206,1.367-0.761c0.535-0.551,1.126-0.943,1.77-1.171c-0.217-0.104-0.395-0.225-0.537-0.357
		c-0.135-0.132-0.365-0.145-0.693-0.03l-0.242,0.088c-0.644,0.229-1.52,0.586-2.624,1.067c-1.099,0.486-1.591,1.158-1.467,2.023
		L668.491,524.899z M693.664,511.189c1.266-0.538,2.101-1.518,2.507-2.938c0.247-1.36,1.099-2.165,2.557-2.41
		c1.462-0.245,2.863-0.785,4.201-1.626c-0.816-0.255-1.335-0.299-1.55-0.132c-0.212,0.169-0.863-0.01-1.961-0.532
		c-0.495-0.371-0.989-0.742-1.488-1.11c-0.494-0.371-0.984-0.47-1.47-0.298l-1.94,0.688c-0.322,0.115-0.55,0.378-0.677,0.787
		c-0.127,0.411-0.322,0.754-0.591,1.027l3.412-0.389l0.726-0.258c0.115,0.325,0.013,0.54-0.314,0.655l-2.181,0.774
		c-0.644,0.229-1.078,0.295-1.298,0.188c-0.217-0.102-0.487-0.099-0.814,0.016c-0.159,0.057-0.543,0.513-1.155,1.365
		c-0.605,0.854-1.396,1.451-2.366,1.795c0.497,0.368,1.216,0.346,2.155-0.083c0.943-0.424,1.848-0.698,2.711-0.825
		c0.172,0.486-0.17,0.926-1.032,1.322c-0.857,0.398-1.614,0.707-2.261,0.938C691.458,511.382,692.401,511.732,693.664,511.189z
		 M698.764,477.842c0.809-0.288,1.574-0.696,2.294-1.225c0.726-0.529,1.082-1.066,1.069-1.607c-0.274-0.266-0.914-0.266-1.913-0.005
		c-0.999,0.264-2.063,0.596-3.196,0.997c-1.13,0.401-2.154,0.857-3.068,1.36c-0.911,0.507-1.419,0.87-1.525,1.088
		c0.601,0.155,1.525,0.188,2.769,0.11c1.249-0.076,2.112-0.204,2.598-0.376L698.764,477.842z M694.474,500.39l-0.312,0.655
		c0.172,0.486,0.828,0.527,1.956,0.126l-0.258-0.728c-0.228-0.644-0.664-0.855-1.313-0.626
		C694.603,499.982,694.581,500.173,694.474,500.39z M703.331,478.407c0.648-0.231,0.855-0.667,0.626-1.314
		c-0.228-0.644-0.828-0.8-1.799-0.454l-1.942,0.688l-2.095,1.018c0.403,1.134,1.088,1.526,2.058,1.182L703.331,478.407z
		 M707.344,505.107c-0.274-0.266-0.429-0.436-0.459-0.521c-0.029-0.08-0.285-0.035-0.769,0.137l-5.577,1.979
		c-0.808,0.287-1.069,0.836-0.782,1.644l4.607-1.634c0.213-0.436,0.883-0.859,2.012-1.259L707.344,505.107z M725.69,472.929
		c0.648-0.229,1.44-0.688,2.375-1.386c0.94-0.696,1.845-1.475,2.723-2.331c0.883-0.86,1.582-1.697,2.108-2.525
		c0.527-0.824,0.677-1.558,0.448-2.206c-0.172-0.486-0.964-0.793-2.38-0.93c-1.413-0.135-3.025-0.199-4.846-0.193
		c-1.815,0.008-3.645,0.113-5.488,0.307c-1.838,0.202-3.162,0.441-3.973,0.73c-0.97,0.344-2.356,0.792-4.166,1.341
		c-1.807,0.551-3.583,1.18-5.337,1.893c-1.748,0.712-3.309,1.446-4.679,2.205c-1.37,0.758-2.211,1.467-2.523,2.124
		c1.676-0.411,3.532-0.433,5.574-0.065c2.042,0.366,4.14,0.763,6.289,1.182c2.155,0.421,4.398,0.718,6.732,0.889
		c2.34,0.17,4.558-0.116,6.659-0.862L725.69,472.929z M704.996,510.035c1.454-0.516,1.955-1.419,1.494-2.715
		c-0.806,0.287-1.346,0.435-1.619,0.438c-0.271,0.006-0.809,0.15-1.622,0.436l-2.581,1.19c1.107,1.066,2.225,1.394,3.355,0.992
		L704.996,510.035z M701.007,480.322c0.507,0.911,1.072,1.217,1.687,0.903c0.62-0.309,1.303-0.69,2.053-1.137
		c-0.344-0.97-0.728-1.289-1.158-0.956L701.007,480.322z M706.326,503.01c0.212-0.438,0.328-0.615,0.357-0.535
		c0.03,0.084,0.092-0.258,0.183-1.021l-2.565,2.002l-0.4,0.414l1.698-0.602L706.326,503.01z M710.199,513.926
		c-0.486,0.17-0.723,0.392-0.72,0.664c0.008,0.271-0.014,0.597-0.062,0.978l1.454-0.516c0.486-0.172,0.642-0.5,0.47-0.986
		c-0.113-0.322-0.414-0.398-0.898-0.228L710.199,513.926z M738.631,502.472c1.779-0.631,3.545-1.94,5.295-3.927
		c1.751-1.987,2.942-3.637,3.567-4.951c0.468-1.259,0.789-2.146,0.965-2.664c0.183-0.518,0.395-1.459,0.637-2.821
		c0.468-1.257,0.675-2.331,0.631-3.226s0.033-1.829,0.231-2.813l-0.242,0.088l-0.704-2.754c-0.115-0.323-0.701-0.57-1.762-0.739
		c-1.059-0.17-1.7-0.306-1.923-0.411c-0.978-0.199-1.713-0.212-2.197-0.04c-0.486,0.172-1.099,0.486-1.854,0.93
		c-1.015,0.728-2.535,1.446-4.558,2.163c-2.02,0.715-2.86,1.56-2.514,2.531l0.342,0.969c0.29,0.812,0.558,1.303,0.803,1.493
		c0.249,0.183,0.516,0.682,0.803,1.491l0.258,0.726c0.401,1.134,0.508,2.323,0.311,3.575c-0.19,1.255-0.933,2.106-2.229,2.565
		l-0.728,0.258c-0.644,0.229-1.392,0.041-2.248-0.567c-0.851-0.605-1.394-1.231-1.623-1.881l-0.26-0.728
		c-0.457-1.292-0.347-2.649,0.33-4.077c0.68-1.423,1.201-2.651,1.556-3.693c-1.208-0.841-2.586-1.265-4.134-1.263
		c-1.544,0.002-2.933,0.588-4.158,1.751c-1.12,0.945-1.932,1.735-2.436,2.366c-0.5,0.632-0.82,1.157-0.946,1.563
		c-0.127,0.413-0.256,0.82-0.384,1.228c-0.127,0.413-0.429,0.97-0.903,1.687c0.516,1.454,0.688,2.444,0.503,2.96
		c-0.178,0.519,0.266,1.773,1.335,3.758c0.784,1.18,1.372,2.066,1.759,2.652c0.395,0.591,1.408,1.139,3.044,1.65
		c0.44,0.212,1.271,0.503,2.5,0.889c1.228,0.384,2.197,0.543,2.896,0.475c0.763,0.096,2.012,0.016,3.742-0.234
		c1.733-0.249,2.759-0.432,3.083-0.548L738.631,502.472z M734.83,490.987c0.097-0.76,0.011-1.505-0.247-2.233
		c-0.258-0.726-0.58-1.384-0.973-1.975c-0.387-0.586-0.666-0.855-0.83-0.798c-0.808,0.287-1.295,0.962-1.467,2.023
		c-0.169,1.063-0.11,1.998,0.177,2.805c0.115,0.327,0.355,0.741,0.714,1.249c0.365,0.508,0.707,0.704,1.029,0.589
		C734.202,492.302,734.736,491.75,734.83,490.987z"/>
</g>
<g>
	<path fill="#F3A460" d="M210.214,419.146c1.983,1.071,3.811,2.219,5.471,3.443c1.655,1.228,3.342,2.507,5.055,3.841
		c1.548,1.278,3.251,2.885,5.115,4.817c1.862,1.936,4.121,3.011,6.777,3.221l0.258-0.726c0.746-2.098,2.296-3.78,4.655-5.039
		c2.356-1.254,4.664-1.485,6.933-0.68c1.939,0.688,3.03,1.579,3.285,2.667c0.247,1.091,0.546,2.425,0.898,4.007
		c-0.497,0.368-0.83,0.798-1.002,1.284c-0.17,0.484-0.401,0.997-0.68,1.533c-0.285,0.538-0.766,1.005-1.451,1.397
		c-0.688,0.397-1.762,0.604-3.226,0.631c-1.583,0.35-3.111,0.172-4.59-0.535c-1.483-0.706-2.901-0.937-4.26-0.693
		c0.003,2.552,0.752,4.547,2.246,5.985c0.206,0.438,1.112,1.214,2.723,2.331c1.606,1.117,2.568,1.732,2.893,1.846
		c0.808,0.287,1.372,0.487,1.698,0.604c0.322,0.113,0.634,0.769,0.938,1.969c-2.068,0.18-3.497-0.148-4.295-0.977
		c-0.798-0.828-2.007-1.531-3.621-2.104l-3.639-1.29c-0.17,0.484-0.583,0.612-1.228,0.382c-0.164-0.057-0.593-0.252-1.292-0.594
		c-0.698-0.338-1.163-0.182-1.392,0.462l0.986,7.996c-0.024,1.085-0.051,1.803-0.083,2.157c-0.033,0.354-0.121,1.231-0.253,2.638
		c0.033,0.927,0.104,1.633,0.204,2.122c0.099,0.492,0.005,1.141-0.284,1.948l2.184,0.774c2.262,0.803,3.885,1.746,4.87,2.82
		c0.983,1.08,1.045,2.828,0.183,5.254c-0.115,0.325-0.612,0.696-1.485,1.112c-0.879,0.417-1.778,0.644-2.7,0.68
		c-0.926,0.038-1.724-0.021-2.398-0.167c-0.677-0.147-1.399,0.097-2.17,0.733l-1.118,3.153l-0.172,0.486l0.64,0.499l-7.414,13.206
		l-0.258,0.728c0.691,0.612,1.44,1.195,2.245,1.752c0.8,0.559,1.69,1.01,2.66,1.356c0.97,0.344,2.527,0.443,4.676,0.293
		c2.143-0.148,3.597-0.268,4.36-0.365c0.429,0.335,0.763,0.543,1.007,0.631c0.242,0.086,0.277,0.37,0.104,0.855
		c-0.057,0.164-0.758,0.597-2.1,1.303c-1.343,0.709-2.401,1.378-3.172,2.015c-0.392,0.589-0.965,1.569-1.725,2.938
		c-0.758,1.37-1.282,2.46-1.568,3.267c-0.115,0.325-0.041,0.624,0.228,0.898c0.264,0.277,0.255,0.82-0.032,1.628
		c2.147,1.126,3.922,2.028,5.321,2.705c1.397,0.68,2.895,1.846,4.489,3.505c1.327,1.383,1.447,2.969,0.357,4.768
		c-1.094,1.795-2.528,2.378-4.306,1.748l-0.726-0.256c-1.62-0.574-2.947-2.09-3.983-4.553c-1.039-2.46-2.063-4.325-3.068-5.595
		c-2.111-0.202-4.081-0.033-5.91,0.497c-1.829,0.538-3.562,1.058-5.2,1.568c-2.077,0.722-3.712,1.735-4.9,3.04
		c-1.195,1.309-2.644,2.57-4.346,3.783c-0.344,0.97-0.782,1.819-1.311,2.539c-0.53,0.726-1.023,1.459-1.467,2.211
		c-0.231,0.648-0.422,1.445-0.573,2.39c-0.158,0.946-0.217,1.881-0.175,2.805c-0.573,1.619-0.863,3.2-0.863,4.746
		c-0.003,1.547,0.167,3.11,0.519,4.69c0.357,1.039,0.902,2.324,1.634,3.857c0.726,1.534,1.603,2.664,2.622,3.387
		c1.442,1.058,3.011,1.389,4.701,0.986c1.687-0.4,2.793-1.33,3.309-2.786l0.086-0.241c0.287-0.809,0.19-1.435-0.29-1.878
		c-0.483-0.444,0.225-0.51,2.12-0.204c1.028,0.185,1.878,0.349,2.555,0.497c0.672,0.15,1.357,0.529,2.052,1.139
		c1.499,0.898,2.187,1.915,2.058,3.051c-0.131,1.139-0.102,2.468,0.088,3.989l-2.676,3.693l3.999-0.494
		c1.292,0.457,2.742,0.475,4.352,0.043c1.607-0.43,2.957-0.905,4.056-1.427c1.531-0.73,2.637-1.66,3.309-2.786
		c0.674-1.126,1.56-2.221,2.67-3.285l-0.354-2.855c-0.97-0.346-1.926-0.863-2.86-1.561c-0.94-0.696-1.791-1.496-2.558-2.41
		c-0.768-0.908-1.365-1.802-1.779-2.678c-0.419-0.876-0.511-1.638-0.282-2.288l0.344-0.967c0.744-2.1,2.007-2.839,3.787-2.208
		l1.456,0.516c1.453,0.515,2.689,1.908,3.704,4.18c1.012,2.272,1.233,4.218,0.661,5.834c0.206,0.44,0.392,0.685,0.556,0.742
		l0.242,0.086c2.098,0.746,3.39,0.704,3.87-0.129c0.473-0.83,1.188-2.077,2.147-3.744c0.953-1.662,1.838-2.622,2.659-2.88
		c0.817-0.257,1.724-0.754,2.716-1.494c1.38-1.329,3.564-2.101,6.554-2.316c2.985-0.212,5.584,0.164,7.793,1.126
		c1.885,0.851,3.116,1.609,3.701,2.268c0.585,0.664,1.407,1.548,2.474,2.652c1.002,1.27,1.58,2.335,1.728,3.207
		c0.142,0.871,0.448,1.936,0.916,3.192c0.033,0.926-0.124,2.143-0.479,3.654c-0.357,1.512-0.865,2.695-1.533,3.551
		c-0.669,0.855-1.607,1.572-2.809,2.146c-1.208,0.573-2.291,0.688-3.263,0.344c-1.619-0.573-3.28-1.662-4.985-3.269
		c-1.709-1.606-2.3-3.138-1.784-4.594l0.69-1.939c0.344-0.97,1.182-1.673,2.523-2.109c1.337-0.433,2.57-0.452,3.704-0.051
		l0.726,0.258c0.97,0.344,1.65,0.857,2.045,1.545c0.393,0.687,0.664,1.329,0.819,1.929c-0.401,1.134-0.844,1.612-1.33,1.439
		l-0.969-0.344c0.229-0.644,0.201-1.337-0.083-2.077c-0.285-0.738-0.832-1.251-1.639-1.537l-0.242-0.086
		c-0.811-0.29-1.547-0.003-2.214,0.852c-0.669,0.852-1.145,1.689-1.431,2.495c-0.229,0.647-0.135,1.273,0.29,1.877
		c0.422,0.607,0.957,1.024,1.604,1.254l0.242,0.086c1.94,0.688,3.517,0.475,4.733-0.642c1.215-1.114,1.961-2.581,2.241-4.394
		c0.277-1.813,0-3.729-0.827-5.753c-0.83-2.023-2.348-3.517-4.553-4.483c-2.21-0.962-4.073-1.351-5.593-1.165
		c-1.526,0.188-3.296,0.562-5.313,1.12c-1.305,0.081-2.135,0.244-2.492,0.481c-0.358,0.239-1.112,0.698-2.264,1.381
		c-0.497,0.368-1.217,1.117-2.159,2.237c-0.946,1.125-1.475,1.845-1.588,2.167c-0.115,0.325-0.166,0.581-0.137,0.769
		c0.022,0.191-0.051,0.529-0.225,1.015c1.177,0.784,2.347,1.47,3.502,2.061c1.157,0.593,2.133,1.302,2.93,2.132
		c0.855,0.671,1.598,1.657,2.224,2.973c0.628,1.314,0.766,2.455,0.424,3.425l-0.432,1.214c-0.287,0.811-0.962,1.295-2.023,1.466
		c-1.063,0.169-1.998,0.112-2.805-0.174l-1.212-0.43c-1.134-0.403-1.959-1.149-2.48-2.246c-0.526-1.096-0.951-2.203-1.281-3.32
		c-0.333-1.117-0.596-2.167-0.795-3.151c-0.196-0.98-0.379-1.499-0.538-1.558c-0.647-0.229-1.419-0.366-2.312-0.409
		c-0.897-0.046-1.615-0.07-2.157-0.083c-1.091,3.075-2.441,5.461-4.045,7.166c-1.607,1.708-3.506,3.084-5.694,4.124
		c-0.983,0.198-2.047,0.5-3.192,0.916c-1.149,0.411-2.264,0.609-3.349,0.586c-0.763,0.096-2.135,0.107-4.11,0.043
		c-1.983-0.065-3.213-0.183-3.697-0.357l-1.697-0.602c-3.075-1.091-5.821-2.837-8.242-5.244c-2.423-2.406-3.967-4.728-4.628-6.968
		c-0.419-0.875-0.774-1.411-1.069-1.609c-0.298-0.194-0.405-0.913-0.325-2.16c-0.096-0.763-0.272-1.418-0.532-1.964
		c-0.263-0.545-0.411-1.281-0.444-2.206c-0.212-0.436-0.292-1.101-0.247-1.999c0.043-0.894,0.118-1.87,0.22-2.925
		c0.1-1.058,0.253-2.001,0.462-2.84c0.202-0.836,0.554-1.442,1.051-1.811l-0.47-0.986c0.551-0.53,1.145-1.684,1.776-3.466
		c0.631-1.776,1.606-3.253,2.933-4.419c1.102-1.064,2.074-1.994,2.903-2.793c0.83-0.8,1.818-1.54,2.973-2.224
		c1.094-0.521,2.299-1.096,3.615-1.722c1.314-0.624,2.544-1.01,3.683-1.149c0.76-0.096,2.151-0.285,4.163-0.572
		c2.012-0.285,3.135-0.754,3.363-1.402l0.172-0.484l0.962-3.482l2.652-6.705l-9.374-3.599c-0.162-0.057-0.507,0.142-1.029,0.593
		c-0.527,0.451-1.066,0.945-1.617,1.472c-0.554,0.534-1.107,1.067-1.658,1.599c-0.556,0.532-0.859,0.879-0.914,1.039
		c-1.929,1.321-4.016,2.853-6.273,4.601c-0.878,0.419-1.813,1.131-2.809,2.144c-0.999,1.01-1.853,1.757-2.566,2.23
		c-0.878,0.419-1.685,1.405-2.418,2.965c-0.736,1.56-1.246,2.743-1.533,3.551c0.151,0.599,0.234,1.133,0.253,1.593
		c0.016,0.46,0.131,0.908,0.341,1.348c0.207,0.44,0.406,0.784,0.591,1.029c0.185,0.249,0.162,0.698-0.067,1.343l-0.17,0.486
		c-0.172,0.486-0.645,1.047-1.416,1.681c-0.773,0.64-1.459,1.032-2.058,1.182c-1.258,0.468-2.034,0.602-2.327,0.405
		c-0.298-0.194-1.091-0.524-2.382-0.983c-1.988-1.067-3.106-2.284-3.35-3.645c-0.269-0.274-0.303-1.064-0.116-2.362
		c0.186-1.297,0.338-2.106,0.452-2.431c0.172-0.486,0.381-0.822,0.631-1.007c0.245-0.185,0.507-0.408,0.785-0.677
		c-2.898,0.978-5.854,1.746-8.875,2.313c-3.024,0.564-6.218,0.98-9.587,1.239c-0.927,0.037-1.698,0.038-2.319-0.003
		c-0.628-0.038-1.4-0.038-2.319-0.005c-0.983,0.198-1.851,0.21-2.606,0.032c-0.758-0.174-1.491-0.298-2.192-0.366
		c-0.382,0.048-1.098,0.021-2.154-0.081c-1.058-0.102-2.157-0.218-3.29-0.349c-1.141-0.131-2.262-0.299-3.368-0.511
		c-1.112-0.212-1.826-0.374-2.149-0.491l-6.547-2.323c-0.969-0.344-2.21-0.962-3.709-1.862c-1.502-0.895-2.977-1.877-4.419-2.934
		c-1.445-1.059-2.7-2.139-3.763-3.245c-1.067-1.104-1.564-2.01-1.494-2.715c-1.783-0.631-3.551-1.807-5.306-3.521
		c-1.759-1.716-3.474-3.552-5.144-5.512c-1.673-1.958-3.17-3.76-4.494-5.415c-1.325-1.652-2.474-2.654-3.443-2.998
		c-0.811-0.288-1.996-0.025-3.554,0.787c-1.563,0.811-2.622,1.485-3.173,2.015c-0.556,0.532-1.388,1.467-2.495,2.801
		c-1.114,1.338-1.811,2.409-2.096,3.218c-0.231,0.647-0.322,1.161-0.274,1.54c0.043,0.382-0.073,0.977-0.358,1.783
		c-0.116,0.328,0.124,1.185,0.723,2.578c0.596,1.399,1.38,2.267,2.351,2.611c0.159,0.056,0.663,0.054,1.505-0.013
		c0.841-0.064,1.292-0.177,1.349-0.339c0.497,2.179,0.051,4.209-1.337,6.077c-1.394,1.873-3.221,2.407-5.483,1.604l-1.698-0.602
		c-0.325-0.116-0.82-0.381-1.491-0.803c-0.671-0.417-1.22-0.795-1.646-1.129c-0.773,0.637-1.33,1.439-1.674,2.409
		c-0.631,1.781-0.567,4.032,0.196,6.759c0.76,2.729,1.37,4.72,1.838,5.979c0.632,0.771,1.131,1.677,1.494,2.713
		c0.357,1.039,0.884,1.862,1.58,2.474c1.177,0.782,2.238,1.251,3.188,1.403c0.945,0.156,1.92,0.865,2.931,2.132l8.7,4.727
		l1.94,0.688c0.644,0.229,1.657,0.451,3.041,0.669c1.375,0.215,2.73,0.379,4.059,0.484c1.327,0.108,2.547,0.132,3.661,0.07
		c1.114-0.056,1.916-0.276,2.415-0.645c0.656-0.312,1.015-0.548,1.071-0.711c0.057-0.161,0.574-0.342,1.56-0.54
		c0.977-0.199,1.456-0.393,1.434-0.583c-0.027-0.188,0.35-0.601,1.123-1.239c0.274-0.266,0.943-1.122,2.001-2.565
		c1.059-1.442,1.646-2.327,1.76-2.654c0.172-0.486,0.331-1.064,0.483-1.74c0.145-0.675,0.059-1.072-0.263-1.185
		c-0.648-0.231-1.604,0.024-2.864,0.758c-1.263,0.739-2.729,1.537-4.4,2.399c-1.673,0.867-3.422,1.563-5.249,2.098
		c-1.829,0.535-3.634,0.486-5.41-0.147c-3.235-1.149-5.477-3.035-6.729-5.663c-0.639-0.773-1.047-2.053-1.228-3.849
		c-0.182-1.794-0.043-3.337,0.416-4.633c0.803-2.262,1.84-4.166,3.121-5.719c1.276-1.548,2.844-2.629,4.701-3.247
		c1.692-0.671,3.691-0.918,5.998-0.739c2.299,0.178,4.416,0.884,6.348,2.116c1.662,0.956,3.181,2.313,4.561,4.075
		c1.375,1.764,2.237,3.435,2.589,5.015c0.198,0.983,0.435,1.974,0.717,2.985c0.276,1.01,0.926,1.877,1.945,2.6
		c0.644,0.229,1.319,0.381,2.025,0.446c0.699,0.07,1.241,0.352,1.612,0.844c0.586,0.392,1.015,0.726,1.284,1.002
		c0.264,0.277,0.722,0.527,1.368,0.758l0.728,0.258c0.644,0.229,1.419,0.233,2.319,0.005c0.898-0.228,1.993-0.112,3.29,0.347
		l0.484,0.172c1.454,0.516,2.566,1.23,3.337,2.139c0.768,0.911,1.44,1.834,2.023,2.766c0.043,0.382,0.828,1.247,2.353,2.608
		c1.518,1.36,2.437,2.096,2.764,2.213l0.728,0.258c0.484,0.17,0.943,0.155,1.383-0.056c-1.282-1.002-1.765-1.945-1.45-2.834
		c0.314-0.889,0.701-1.979,1.161-3.275c0.599-0.151,1.442-0.487,2.543-1.01c1.094-0.523,2.069-0.448,2.926,0.22
		c0.691,0.612,1.297,1.462,1.824,2.555c0.518,1.098,0.637,2.05,0.352,2.856c-0.631,1.781-1.662,3.145-3.089,4.091
		c-1.429,0.953-2.955,1.137-4.569,0.564l-0.97-0.344c-1.619-0.575-3.116-1.607-4.497-3.098c-1.383-1.49-2.417-2.812-3.098-3.965
		c-0.698-0.61-1.254-1.219-1.674-1.822c-0.427-0.605-1.093-1.161-2.002-1.668c-0.755-0.446-1.711-0.832-2.867-1.155
		c-1.163-0.317-1.886-0.076-2.171,0.733c-0.115,0.325-0.043,0.761,0.22,1.305c0.256,0.55,0.413,1.015,0.46,1.394
		c-0.288,0.811-0.436,1.483-0.444,2.025c-0.013,0.542-0.295,1.083-0.844,1.612c-0.441,0.21-0.935,0.444-1.478,0.703
		c-0.551,0.263-0.986,0.335-1.308,0.221l-1.212-0.432c-0.812-0.288-1.22-0.795-1.231-1.529c-0.014-0.731,0.123-1.499,0.411-2.311
		c0.287-0.806,0.695-1.571,1.225-2.296c0.529-0.72,0.961-1.297,1.294-1.725c-0.951-1.429-2.233-2.431-3.849-3.004l-0.969-0.346
		c-0.648-0.231-1.279,0.005-1.888,0.698l-2.55,5.649c-0.613,0.695-1.322,1.534-2.124,2.523c-0.808,0.988-1.706,1.85-2.695,2.592
		c-0.497,0.37-0.937,0.718-1.321,1.032c-0.387,0.32-0.636,0.639-0.752,0.962c-0.497,0.368-0.943,0.852-1.33,1.439
		c-0.392,0.591-0.808,0.989-1.244,1.198c-0.656,0.311-1.735,0.524-3.226,0.631c-1.497,0.107-2.484,0.075-2.968-0.099
		c-0.327-0.115-1.528-0.311-3.611-0.599c-2.082-0.287-3.452-0.54-4.096-0.769l-3.395-1.204c-0.327-0.115-0.902-0.414-1.733-0.889
		c-0.833-0.48-1.787-0.997-2.861-1.56c-1.077-0.564-2.068-1.098-2.979-1.604c-0.913-0.503-1.533-0.819-1.854-0.932
		c-0.593-0.389-1.155-0.863-1.682-1.416l-1.603-1.657c-0.8-0.828-1.319-1.287-1.56-1.372c-0.242-0.086-0.629-0.675-1.149-1.771
		c-0.21-0.436-0.553-1.016-1.024-1.728c-0.478-0.715-0.789-1.372-0.94-1.972c-0.583-0.932-0.918-1.642-1.016-2.135
		c-0.1-0.489-0.25-1.223-0.448-2.206c-0.212-0.438-0.347-1.08-0.411-1.921c-0.067-0.843-0.174-1.563-0.323-2.162
		c-0.099-0.761-0.04-1.56,0.167-2.399c0.202-0.835,0.038-1.531-0.491-2.085c-1.072,1.988-2.348,3.537-3.831,4.647
		c-0.443,0.212-1.192,0.398-2.249,0.567c-1.063,0.169-1.998,0.11-2.805-0.175l-1.214-0.43c-0.811-0.288-1.56-0.871-2.245-1.752
		c-0.691-0.881-0.918-1.646-0.69-2.292l0.258-0.728c0.115-0.322,0.596-0.787,1.451-1.397c0.851-0.607,1.601-0.797,2.248-0.566
		c1.294,0.457,2.143,1.399,2.552,2.816l-0.688,1.94c0.264,0.277,0.422,0.47,0.476,0.578c0.051,0.112,0.158,0.193,0.322,0.25
		c0.806,0.287,1.692,0.1,2.656-0.561c0.961-0.658,1.585-1.391,1.873-2.203l0.172-0.486c0.228-0.642-0.339-1.485-1.701-2.514
		c-1.365-1.029-2.315-1.819-2.844-2.374c-0.698-0.61-1.219-1.566-1.572-2.88c-0.355-1.308-0.36-2.447-0.016-3.419l0.088-0.242
		c0.344-0.969,1.107-1.969,2.294-3.009c1.185-1.032,2.265-1.38,3.235-1.035c0.644,0.229,1.096,0.621,1.36,1.166
		c0.258,0.546,0.634,0.906,1.12,1.078c0.806,0.288,1.663,0.182,2.57-0.315c0.902-0.5,1.784-1.184,2.643-2.066
		c0.857-0.879,1.674-1.77,2.453-2.68c0.774-0.908,1.437-1.626,1.994-2.16c0.609-0.695,1.273-1.413,1.994-2.159
		c0.717-0.744,1.545-1.407,2.48-1.987c0.714-0.473,1.525-0.962,2.429-1.459c0.902-0.499,1.714-0.983,2.428-1.459
		c-0.583-0.932-1.472-1.888-2.672-2.86c-1.204-0.973-2.452-1.69-3.744-2.147l-2.426-0.86c-1.295-0.46-2.595-0.511-3.903-0.158
		c-1.311,0.354-2.165,1.099-2.565,2.229l-0.088,0.242c-0.231,0.648-0.349,1.104-0.352,1.378c-0.006,0.269,0.014,0.597,0.062,0.977
		l-0.656,0.312c-1.94-0.69-3.353-1.325-4.236-1.913c-0.886-0.585-1.639-1.537-2.265-2.85c-0.895-1.588-1.074-2.882-0.537-3.877
		c0.532-0.992,1.029-2.135,1.491-3.43c-0.755-0.448-1.864-0.524-3.334-0.228s-3.188,0.644-5.146,1.04
		c-1.963,0.398-4.113,0.683-6.447,0.852c-2.34,0.174-4.558-0.115-6.659-0.859c-1.133-0.403-2.273-1.032-3.422-1.897
		c-1.153-0.862-2.179-1.818-3.078-2.867c-1.069-1.102-2.074-2.372-3.02-3.801l-0.486-0.172c-0.811-0.288-1.985,0.209-3.529,1.478
		c-1.545,1.274-2.593,2.178-3.145,2.708c-1.386,1.33-2.394,2.248-3.024,2.75c-0.634,0.503-1.349,1.617-2.138,3.337
		c1.453,0.516,2.903,0.668,4.344,0.449c1.44-0.215,2.914,0.124,4.416,1.023c1.072,0.564,2.347,1.47,3.815,2.718
		c1.467,1.251,2.283,1.901,2.444,1.958c0.922-0.033,1.795-0.182,2.614-0.438c0.758-0.092,1.521-0.185,2.284-0.28
		c0.76-0.096,1.545,0.002,2.356,0.29l1.698,0.602c0.969,0.344,1.918,1,2.85,1.966c0.929,0.969,1.76,2.085,2.499,3.347
		c0.736,1.262,1.239,2.533,1.515,3.814c0.269,1.281,0.237,2.407-0.105,3.374l-1.118,3.154c-0.574,1.617-1.811,3.18-3.712,4.688
		c-1.901,1.509-3.372,2.447-4.41,2.805c-1.639,0.508-3.433,0.83-5.389,0.954c-1.958,0.127-3.989-0.183-6.087-0.929
		c-2.589-0.919-4.961-2.444-7.116-4.572c-2.157-2.132-3.546-4.126-4.158-5.982c-0.524-1.096-1.018-2.135-1.488-3.122
		c-0.468-0.984-0.637-2.179-0.5-3.589c-0.362-1.037-0.475-2.261-0.336-3.67c-0.099-0.76,0.002-1.544,0.29-2.356
		c0.287-0.806,0.025-1.357-0.782-1.642c-0.811-0.288-1.846-0.062-3.106,0.674c-1.263,0.736-2.143,1.287-2.635,1.658
		c-1.372,0.789-2.319,1.271-2.836,1.451c-0.521,0.182-1.598,0.524-3.234,1.035c-1.641,0.51-3.779,1.029-6.418,1.547
		c-2.643,0.521-4.934,0.433-6.872-0.253c-1.725-0.792-3.043-1.306-3.959-1.542c-0.919-0.233-1.967-0.741-3.145-1.525
		c-0.855-0.666-1.74-1.388-2.644-2.168c-0.911-0.774-1.625-1.709-2.144-2.809c-0.314-0.655-0.747-1.493-1.295-2.506
		c-0.553-1.015-0.926-2.01-1.122-2.993c-0.099-0.76-0.191-1.384-0.29-1.877c-0.099-0.489-0.228-1.035-0.376-1.636
		c-0.099-0.76-0.019-1.235,0.231-1.419c0.245-0.186,0.352-0.739,0.317-1.663l2.809-6.377l1.384-0.054l0.1-1.055
		c0.436-0.21,0.932-0.578,1.488-1.112c0.551-0.529,1.208-0.843,1.971-0.938c0.599-0.151,1.251-0.328,1.964-0.534
		c0.706-0.201,1.362-0.378,1.961-0.53c1.2-0.299,2.664-0.327,4.398-0.08c1.728,0.25,3.213,0.688,4.451,1.306
		c2.796,1.359,4.712,3.267,5.749,5.725c1.037,2.464,0.956,5.391-0.249,8.787c-0.403,1.133-1.196,2.218-2.382,3.25
		c-1.187,1.037-2.138,1.794-2.852,2.265c-0.935,0.581-2.202,0.816-3.799,0.701c-1.598-0.11-2.966-0.37-4.094-0.769
		c-1.619-0.573-3.017-1.891-4.199-3.948c-1.179-2.058-1.513-3.815-0.997-5.271l0.172-0.486c0.631-1.776,1.811-3.178,3.541-4.204
		c1.727-1.026,3.479-1.225,5.26-0.591l1.214,0.43c1.294,0.459,2.195,1.373,2.715,2.74c0.513,1.367,0.597,2.668,0.25,3.909
		c-0.35,1.241-1.144,2.19-2.375,2.847c-1.233,0.653-2.903,0.607-5.002-0.137c-0.325-0.116-0.562-0.473-0.712-1.074
		c-0.155-0.601-0.142-1.142,0.032-1.626c0.97,0.344,1.548,0.644,1.733,0.889c0.185,0.249,0.315,0.384,0.4,0.414
		c0.078,0.03,0.28,0.1,0.607,0.217c0.32,0.113,1.026,0.185,2.111,0.202c0.401-1.128,0.817-1.799,1.26-2.012
		c0.435-0.206,0.422-0.94-0.038-2.197c-0.084-1.302-1.018-2.273-2.794-2.903c-1.133-0.401-2.246-0.341-3.341,0.18
		c-1.099,0.522-1.845,1.352-2.245,2.48c-0.918,2.59-0.556,4.765,1.096,6.533c1.646,1.77,3.803,2.488,6.469,2.159
		c1.743-0.292,2.829-0.542,3.271-0.75c0.438-0.209,1.16-0.956,2.159-2.238c0.945-1.12,1.51-2.332,1.698-3.631
		c0.186-1.298,0.182-2.434-0.016-3.419c-0.339-2.12-1.488-3.892-3.439-5.314c-1.956-1.419-4.392-2.377-7.311-2.867
		c-3.04-0.166-5.139,0.363-6.297,1.587c-1.163,1.228-2.605,2.723-4.319,4.478c0.083,1.303,0.011,2.781-0.207,4.43
		c-0.225,1.654-0.241,3.239-0.051,4.762c-0.137,1.41,0.339,2.761,1.427,4.056c1.085,1.297,1.972,2.522,2.657,3.672
		c0.682,1.158,2.088,2.066,4.218,2.729c2.128,0.666,3.898,1.066,5.31,1.2c1.243,0.08,2.778-0.014,4.606-0.279
		c1.819-0.261,3.248-0.574,4.29-0.934c0.978-0.199,1.657-0.322,2.041-0.368c0.378-0.045,1.115-0.33,2.214-0.854
		c0.551-0.529,1.166-0.857,1.851-0.981c0.679-0.121,1.427-0.311,2.248-0.566c1.094-0.521,2.394-1.106,3.9-1.757
		c1.502-0.648,2.644-1.561,3.43-2.743c1.23-1.928,2.19-3.361,2.891-4.3c0.693-0.935,1.786-1.958,3.274-3.071
		c0.551-0.529,1.87-1.426,3.957-2.689l3.459-2.05c0.172-0.486,0.11-1.599-0.18-3.342c-0.296-1.743-0.124-3.497,0.508-5.279
		c0.916-2.586,2.025-4.558,3.328-5.92c1.3-1.356,3.017-2.479,5.15-3.36c1.427-0.948,3.31-1.509,5.649-1.682
		c2.335-0.17,4.719,0.17,7.142,1.032l1.214,0.43c2.584,0.918,4.641,2.695,6.164,5.329c1.525,2.633,1.856,5.163,0.996,7.588
		c-0.231,0.648-1.123,1.239-2.68,1.779c-1.558,0.542-2.821,0.639-3.793,0.296c-1.133-0.403-1.974-0.975-2.53-1.719
		c-0.558-0.742-1.059-1.51-1.501-2.307c-0.448-0.795-0.948-1.564-1.502-2.308c-0.556-0.742-1.317-1.286-2.289-1.628l-0.486-0.172
		c-0.647-0.231-1.139-0.132-1.47,0.296c-0.335,0.43-0.559,0.806-0.674,1.128l-0.258,0.726c-0.115,0.327-0.07,0.704,0.142,1.144
		c0.207,0.438,0.472,0.714,0.798,0.83l0.242,0.088c0.806,0.287,1.306,0.284,1.505-0.013c0.193-0.296,0.617-0.328,1.263-0.099
		c-0.516,1.456-1.501,1.926-2.957,1.41l-0.969-0.344c-0.812-0.288-1.381-0.989-1.711-2.109c-0.333-1.115-0.382-1.999-0.153-2.646
		c0.346-0.97,1.005-1.556,1.988-1.754c0.978-0.199,2.034-0.097,3.167,0.304c0.97,0.344,1.705,0.835,2.211,1.466
		c0.5,0.634,1.02,1.364,1.545,2.187c0.526,0.827,1.082,1.569,1.668,2.229c0.581,0.664,1.44,1.195,2.573,1.596
		c0.644,0.229,1.27,0.271,1.87,0.116c0.601-0.151,1.115-0.33,1.558-0.54c0.331-0.43,0.553-0.666,0.664-0.718
		c0.108-0.053,0.25-0.32,0.424-0.806c0.746-2.1,0.201-4.161-1.631-6.178c-1.835-2.017-3.804-3.396-5.904-4.142
		c-3.881-1.376-7.656-1.257-11.319,0.352c-3.67,1.614-6.187,4.359-7.564,8.239l-0.604,1.698c-0.229,0.647-0.266,1.134-0.108,1.462
		s0.033,1.059-0.366,2.192l0.212,1.711l1.212,0.43l2.769-0.107c0.758-0.096,1.427-0.177,1.999-0.247
		c0.57-0.072,0.937-0.078,1.098-0.021c1.244,0.08,2.329,0.1,3.255,0.064c0.922-0.037,2.087,0.013,3.497,0.147
		c2.273,0.261,4.504,0.644,6.692,1.149c2.187,0.5,4.655,1.241,7.404,2.218c0.323,0.113,0.537,0.282,0.642,0.499
		c0.1,0.221,0.527,0.556,1.284,1.002c0.486,0.172,0.862,0.263,1.134,0.266c0.271,0.006,0.537,0.148,0.804,0.422
		c0.75,0.449,1.435,0.83,2.055,1.139c0.615,0.312,1.141,0.636,1.568,0.965c1.606,1.115,2.852,1.967,3.737,2.554
		c0.884,0.588,1.912,1.273,3.094,2.053c2.138,1.674,4.249,3.419,6.329,5.251c2.082,1.83,3.836,3.546,5.275,5.147
		c1.028,0.183,2.327,0.099,3.911-0.25c1.577-0.35,3.02-0.567,4.327-0.65c1.684-0.127,3.092-0.131,4.233-0.002
		c1.136,0.131,2.598,0.241,4.389,0.33c2.976,0.33,5.995,1.308,9.06,2.942c3.062,1.63,5.579,3.253,7.557,4.865
		c2.461,1.786,4.778,3.47,6.944,5.058c2.165,1.588,4.148,3.43,5.958,5.528c0.529,0.554,1.397,1.314,2.601,2.288
		c1.2,0.972,2.468,2.015,3.806,3.126c1.333,1.112,2.617,2.114,3.85,3.004c1.228,0.892,2.248,1.48,3.059,1.767l1.698,0.602
		l5.748,1.494c-0.895-1.59-1.114-2.896-0.656-3.919c0.451-1.023,0.996-2.423,1.627-4.202c-1.112-1.488-1.365-3.079-0.763-4.776
		c0.602-1.698,1.776-2.961,3.533-3.799c1.587-0.891,3.384-1.074,5.381-0.548c1.998,0.529,3.11,1.743,3.35,3.647
		c-0.346,0.969-0.339,2.109,0.016,3.419c0.355,1.31,1.018,2.135,1.988,2.479c2.096,0.746,4.309,0.94,6.621,0.575
		c2.313-0.363,4.537-1.122,6.676-2.275c2.138-1.153,4.037-2.528,5.695-4.123c1.66-1.595,3.075-3.28,4.249-5.045
		c-0.258-0.819-0.838-1.754-1.736-2.802c-0.905-1.047-1.531-2.359-1.88-3.944c-0.733-1.531-1.228-2.573-1.486-3.121
		c-0.263-0.546-0.511-1.773-0.746-3.678c-0.32-3.207,0.142-6.047,1.384-8.52c1.239-2.471,3.043-4.472,5.407-6.001
		c-0.339-2.124-0.749-4.179-1.225-6.168c-0.481-1.99-0.236-4.085,0.731-6.294c0.744-2.1,1.985-3.94,3.728-5.504
		c1.738-1.568,3.395-2.525,4.98-2.877c-0.04-0.922-0.39-2.364-1.058-4.335c-0.667-1.963-1.486-3.121-2.456-3.465
		c-1.015,1.826-2.222,3.307-3.626,4.448c-1.407,1.139-3.32,1.279-5.745,0.419l-0.486-0.17c-0.812-0.29-1.397-0.812-1.76-1.58
		c-0.366-0.766-0.816-1.426-1.346-1.979l-0.962-4.985l0.344-0.97c1.085,0.022,2.143-0.011,3.177-0.1
		c1.029-0.088,1.835-0.941,2.409-2.558l0.172-0.486c0.459-1.292,0.094-2.832-1.093-4.618c-1.187-1.786-2.613-3.153-4.276-4.11
		L210.214,419.146z M249.794,553.879c0.323,0.113,0.674,0.15,1.058,0.102c0.378-0.046,0.656-0.312,0.83-0.798l0.172-0.486
		c0.516-1.456,0.212-2.656-0.908-3.6c-1.123-0.946-2.331-1.646-3.621-2.103l-0.728-0.258c-0.327-0.116-0.5-0.131-0.529-0.049
		c-0.03,0.083-0.234,0.145-0.613,0.19c0.183,1.526,0.473,2.899,0.855,4.129C246.694,552.232,247.855,553.19,249.794,553.879z
		 M237.051,437.405c0.808,0.287,1.55,0.37,2.232,0.247c0.682-0.123,1.507-0.013,2.477,0.331c0.436-0.207,1.188-0.534,2.257-0.973
		c1.066-0.441,1.714-0.983,1.945-1.63l0.86-2.426c-0.212-0.436-0.567-0.972-1.067-1.607c-0.507-0.631-1.161-1.096-1.967-1.381
		l-1.212-0.43c-0.812-0.288-2.176,0.096-4.093,1.144c-1.921,1.05-3.108,2.221-3.567,3.513l-0.258,0.726
		c-0.229,0.648-0.01,1.184,0.661,1.601C235.988,436.938,236.567,437.233,237.051,437.405z M236.527,541.253l-0.486-0.172
		c0.631-1.776,0.599-3.106-0.088-3.989c-0.691-0.881-1.595-1.795-2.713-2.738c-0.443,0.21-0.973,0.432-1.601,0.661
		c-0.631,0.233-1.059,0.675-1.287,1.317c-0.575,1.62-0.091,3.065,1.462,4.344c1.548,1.279,3.081,2.093,4.593,2.447L236.527,541.253z
		 M234.942,471.062c0.287-0.809,0.323-1.429,0.116-1.87l-2.096-1.018l-1.182-2.058l-2.367,0.524
		c0.033,0.926-0.312,2.031-1.042,3.318c-0.73,1.289-0.366,2.189,1.088,2.705c0.913,0.508,1.969,0.61,3.169,0.306
		C233.825,472.671,234.597,472.032,234.942,471.062z M231.636,520.405c0.32,0.113,0.777,0.233,1.376,0.35
		c0.593,0.121,1.005-0.142,1.235-0.789l0.172-0.486c0.4-1.129,0.139-2.315-0.787-3.556c-0.926-1.236-1.958-2.06-3.087-2.46
		l-1.697-0.602c-0.327-0.116-0.636-0.132-0.935-0.059c-0.299,0.076-0.642,0.14-1.021,0.183c0.14,1.142,0.561,2.52,1.263,4.136
		C228.856,518.734,230.017,519.831,231.636,520.405z M233.726,445.237c-0.14-1.142-0.465-2.028-0.964-2.664
		c-0.507-0.631-0.846-1.98-1.024-4.048c0.019-1.086-0.545-1.923-1.7-2.515c-1.157-0.589-2.216-1.332-3.172-2.219
		c-1.125-0.945-2.074-1.732-2.844-2.374c-0.777-0.637-1.617-1.482-2.515-2.531c-0.698-0.609-1.67-1.453-2.923-2.538
		c-1.254-1.082-2.259-1.846-3.009-2.296c1.055,1.649,2.053,3.185,3.006,4.615c0.841,1.212,1.58,2.337,2.214,3.379
		c0.629,1.042,1.077,1.705,1.346,1.979c0.429,0.336,0.862,1.035,1.303,2.1c0.44,1.071,0.903,2.19,1.4,3.365
		c0.492,1.177,0.988,2.219,1.486,3.122c0.499,0.905,0.906,1.413,1.233,1.529L233.726,445.237z M222.962,463.262
		c0.922-0.035,1.792-0.046,2.606-0.032c0.814,0.014,1.329-0.029,1.55-0.132c0.476-2.378,0.698-3.892,0.656-4.547
		c-0.041-0.652-0.29-1.878-0.744-3.678c0.287-0.806,0.327-2.205,0.121-4.19c-0.209-1.985-0.634-3.091-1.281-3.322
		c-0.969-0.342-2.382,0.296-4.226,1.913c-1.851,1.622-2.947,2.914-3.29,3.884c-0.574,1.619-0.884,3.647-0.93,6.085
		c-0.048,2.442,0.494,3.863,1.626,4.265L222.962,463.262z M226.062,471.46c0.115-0.322,0.237-0.551,0.379-0.683
		c0.135-0.132,0.263-0.36,0.379-0.687l0.602-1.697c0.113-0.322,0.067-0.838-0.134-1.55c-0.206-0.707-0.331-1.252-0.374-1.634
		c-0.648-0.231-1.813-0.413-3.489-0.556c-1.684-0.14-2.635,0.115-2.863,0.76c-0.29,0.811,0.327,1.893,1.85,3.251
		C223.932,470.021,225.148,470.958,226.062,471.46z M212.551,475.678c-0.46,1.297-0.668,2.767-0.615,4.424
		c0.048,1.655,0.303,3.248,0.763,4.776c0.457,1.528,1.053,2.925,1.792,4.187c0.734,1.263,1.505,2.034,2.316,2.323
		c0.322,0.113,0.773-0.134,1.357-0.747c0.58-0.613,1.165-1.362,1.754-2.245c0.586-0.886,1.09-1.799,1.517-2.74
		c0.424-0.943,0.695-1.571,0.811-1.897c0.113-0.32,0.342-0.967,0.688-1.939c0.344-0.97,0.726-1.928,1.155-2.869
		c0.424-0.941,0.875-1.826,1.354-2.659c0.473-0.83,0.824-1.298,1.043-1.405c-0.953-1.429-1.56-2.146-1.83-2.152
		c-0.272-0.002-0.941-0.561-2.002-1.666c-0.639-0.773-1.29-1.502-1.953-2.195c-0.669-0.69-1.375-1.259-2.125-1.708
		c-2.02,0.559-3.29,1.698-3.811,3.425c-0.521,1.727-1.338,3.124-2.439,4.187L212.551,475.678z M218.283,435.661
		c0.644,0.229,1.142-0.14,1.486-1.109l-3.707-1.862l-1.572,1.354l3.068,1.36L218.283,435.661z M213.878,440.379
		c1.454,0.516,2.49,0.159,3.113-1.08c-0.325-0.115-0.621-0.174-0.892-0.18c-0.272-0.002-0.65-0.094-1.136-0.264l-0.241-0.086
		l-3.067-1.36l0.258-0.728l5.335,1.893l0.158,0.33l1.33-1.44c-0.593-0.389-1.128-0.672-1.612-0.843l-0.97-0.346
		c-0.325-0.115-0.677-0.147-1.056-0.102l-1.11-1.486l-4.273,2.034c0.349,1.582,1.574,2.743,3.678,3.489L213.878,440.379z
		 M217.444,547.319c-0.486-0.172-0.919-0.233-1.297-0.19c-0.172,0.486-0.099,0.784,0.226,0.898c0.97,0.346,1.7,0.331,2.2-0.037
		C218.301,547.716,217.929,547.49,217.444,547.319z M216.475,432.29c0.486,0.172,0.822,0.249,1.013,0.225
		c0.188-0.025,0.529,0.049,1.015,0.223l-0.056-1.384l-0.728-0.258l-0.241-0.086c-0.325-0.116-0.593-0.253-0.806-0.424
		c-0.215-0.166-0.406-0.008-0.578,0.478C215.862,431.71,215.991,432.118,216.475,432.29z M217.211,551.057l-0.088,0.242l1.228-0.384
		L217.211,551.057z M213.126,551.792l-0.172,0.486l1.783,0.358l1.456,0.516l0.086-0.241l-1.854-0.93L213.126,551.792z
		 M215.685,549.97c-0.486-0.17-0.814-0.016-0.984,0.47l1.142-0.142C215.898,550.14,215.843,550.026,215.685,549.97z
		 M182.282,504.807l-2.315,1.908l11.797,4.459c-0.335,0.429-0.617,0.967-0.844,1.612c-0.229,0.647-0.131,1.141,0.299,1.47
		l-1.972,0.94l-0.188,1.298c-0.162-0.057-0.271-0.003-0.327,0.156c-0.223,0.105-0.387,0.32-0.5,0.642
		c-0.059,0.164,0.016,0.46,0.226,0.898c0.323,0.115,0.873,0.355,1.655,0.723c0.776,0.37,1.534,0.68,2.261,0.938
		c0.728,0.258,1.384,0.449,1.985,0.567c0.591,0.119,0.948,0.021,1.063-0.304c0.057-0.159-0.061-0.475-0.347-0.943
		c-0.293-0.467-0.379-0.859-0.263-1.185c-0.049-0.379,0.03-0.851,0.231-1.421c0.201-0.564,0.276-1.035,0.231-1.419
		c0.076-1.246,0.282-1.95,0.61-2.104c0.33-0.158,0.508-1.048,0.54-2.676c0.921-0.035,1.689-0.4,2.3-1.096
		c0.609-0.695,1.137-1.415,1.588-2.167l-2.598-0.376l0.454,1.8c-1.456-0.515-2.847-0.962-4.166-1.341
		c-1.325-0.376-2.794-0.855-4.41-1.427c-1.295-0.459-1.912-0.766-1.854-0.93c0.057-0.161-0.62-0.309-2.025-0.446
		c-0.486-0.17-1.295-0.46-2.425-0.86c-1.133-0.401-1.891-0.577-2.27-0.532L182.282,504.807z M184.207,506.308
		c-0.164-0.057-0.229-0.123-0.199-0.207c0.029-0.08-0.04-0.15-0.199-0.207c0.435-0.209,0.617-0.328,0.535-0.357
		c-0.084-0.03,0.038,0.014,0.365,0.129l0.242,0.086l2.824,1.276l7.847,2.511l-0.172,0.486l-3.239-0.878l-5.337-1.893
		L184.207,506.308z M189.395,520.163c-0.072,0.706,0.191,1.257,0.782,1.646c0.585,0.39,1.22,0.661,1.896,0.809
		c0.674,0.15,1.337,0.201,1.991,0.159c0.652-0.04,1.064-0.304,1.236-0.79L189.395,520.163z M194.903,513.108
		c-0.97-0.346-1.424-0.87-1.354-1.574l1.697,0.604L194.903,513.108z M190.428,517.254c-0.327-0.115-0.593-0.389-0.798-0.828
		l3.239,0.875l1.697,0.604l-0.172,0.486l-0.97-0.346L190.428,517.254z M191.944,514.515c-0.162-0.059-0.229-0.123-0.199-0.207
		c0.029-0.081-0.04-0.151-0.199-0.207l1.47-0.298l0.728,0.257l0.484,0.172l-0.016,0.814L191.944,514.515z M186.969,510.84
		l-0.158-0.33l-6.547-2.324c-0.441,0.21-0.688,0.398-0.744,0.558c-0.288,0.812,0.228,1.403,1.555,1.779
		c1.319,0.376,2.248,0.843,2.78,1.396L186.969,510.84z M186.169,501.545l-0.728-0.258c-0.484-0.172-1.388-0.581-2.702-1.233
		c-1.319-0.645-2.12-0.566-2.407,0.239c-0.229,0.648,0.585,1.3,2.445,1.959c1.857,0.66,3.169,0.945,3.933,0.849L186.169,501.545z
		 M181.508,498.526c0.808,0.287,1.547,0.644,2.219,1.059c0.669,0.421,1.383,0.585,2.147,0.491c0.701,0.069,0.951-0.252,0.752-0.964
		c-0.205-0.707-0.71-1.208-1.518-1.494l-0.97-0.346c-0.325-0.115-0.84-0.202-1.54-0.272c-0.706-0.067-1.142,0.142-1.314,0.626
		C181.108,498.11,181.183,498.409,181.508,498.526z M130.483,502.268c-0.199-0.98-0.315-2.068-0.346-3.263
		c-0.033-1.193,0.182-2.437,0.642-3.733c0.457-1.294,1.56-2.222,3.309-2.785c1.744-0.564,3.428-0.561,5.047,0.014l0.726,0.258
		c0.323,0.113,0.935,0.564,1.846,1.338c0.905,0.777,1.303,1.33,1.19,1.65c-0.29,0.812-0.747,1.332-1.373,1.561
		c-0.629,0.233-1.086,0.754-1.373,1.56l-0.17,0.484c-0.401,1.134-0.118,1.87,0.852,2.216l0.486,0.17
		c1.776,0.631,3.275,0.39,4.489-0.728c1.215-1.112,2.388-1.475,3.522-1.072c0.644,0.229,0.742,0.72,0.298,1.47
		c-0.452,0.755-0.789,1.453-1.018,2.096l-0.516,1.456c-0.631,1.779-0.581,3.299,0.158,4.561c0.734,1.262,1.826,2.288,3.279,3.075
		c1.448,0.787,3.089,1.416,4.93,1.886c1.832,0.47,3.565,0.718,5.193,0.75c1.408,0.137,2.941,0.182,4.598,0.127
		c1.655-0.046,3.185-0.003,4.598,0.129c1.083,0.024,2.697-0.175,4.854-0.599c2.151-0.419,3.363-0.76,3.642-1.029
		c-0.221,0.105-1.099,0.021-2.641-0.253s-2.555-0.497-3.038-0.669l-2.668-0.946c-1.781-0.631-3.259-1.472-4.429-2.527
		c-1.174-1.051-2.327-1.783-3.459-2.182c-0.269-0.276-0.838-0.844-1.716-1.701c-0.883-0.857-1.811-1.826-2.794-2.903
		c-0.983-1.074-1.958-2.058-2.914-2.944c-0.962-0.889-1.654-1.496-2.082-1.83c-2.036-1.45-3.922-2.801-5.662-4.057
		c-1.74-1.252-3.678-2.713-5.815-4.384c-0.535-0.551-1.596-1.155-3.181-1.811c-1.588-0.655-2.839-1.231-3.75-1.74
		c-1.561-0.734-2.775-1.165-3.639-1.292c-0.868-0.124-2.055-0.363-3.567-0.72c-0.647-0.231-1.701-0.468-3.161-0.71
		c-1.461-0.245-2.954-0.409-4.467-0.494c-1.52-0.083-2.888-0.07-4.112,0.043c-1.227,0.11-1.92,0.411-2.09,0.895
		c-0.116,0.327,0.112,0.956,0.696,1.888c0.577,0.934,1.317,1.926,2.222,2.971c0.898,1.048,1.775,2.042,2.629,2.981
		c0.847,0.941,1.405,1.548,1.674,1.824c0.264,0.277,0.835,0.841,1.717,1.701c0.878,0.857,1.81,1.827,2.793,2.901
		c0.983,1.079,1.875,2.03,2.673,2.86c0.798,0.83,1.276,1.273,1.44,1.33L130.483,502.268z M167.091,533.002
		c-0.231,0.647-0.201,1.204,0.091,1.671c0.287,0.47,0.535,0.919,0.747,1.357l1.542,0.274c0.172-0.486,0.395-0.857,0.674-1.126
		l0.828-0.798c0.516-1.454,0.127-2.413-1.165-2.871l-0.242-0.088c-0.325-0.115-0.776,0-1.349,0.342
		c-0.578,0.341-0.922,0.675-1.037,0.996L167.091,533.002z M148.51,513.032c-0.049-0.381-0.491-0.809-1.319-1.289
		c-0.833-0.475-1.773-0.902-2.823-1.274c-1.053-0.374-2.103-0.747-3.153-1.12c-1.053-0.373-1.819-0.644-2.304-0.817
		c0.464,1.257,1.818,2.192,4.057,2.805C145.206,511.954,147.054,512.516,148.51,513.032z M147.595,531.002
		c-0.969-0.344-1.571-0.19-1.799,0.452c-0.059,0.166-0.105,0.421-0.137,0.771c-0.037,0.355,0.107,0.583,0.433,0.698
		c0.486,0.172,0.814,0.018,0.984-0.468l0.086-0.242L147.595,531.002z M137.698,508.102c0.274-0.264,0.495-0.503,0.664-0.718
		c0.166-0.215,0.494-0.233,0.978-0.062l5.579,1.979c0.344-0.97-0.076-1.708-1.26-2.222c-1.185-0.508-2.262-0.94-3.231-1.284
		c-1.295-0.459-2.439-0.954-3.43-1.49c-0.997-0.535-1.955-0.784-2.875-0.749c-0.129,0.867,0.276,1.783,1.209,2.751
		C136.258,507.278,137.049,507.874,137.698,508.102z M144.565,506.445l0.258-0.728c0.287-0.808-0.327-1.388-1.837-1.746
		c-1.513-0.354-2.597-0.647-3.24-0.876l-7.674-2.997c-0.172,0.486-0.17,0.989,0.011,1.507c0.178,0.519,0.432,0.833,0.755,0.949
		L144.565,506.445z M138.62,493.96c-1.134-0.403-2.006-0.253-2.614,0.436l1.212,0.43c0.323,0.115,0.472,0.215,0.443,0.296
		c-0.03,0.083,0.115,0.175,0.441,0.293c0.322,0.113,0.674,0.15,1.056,0.1c0.378-0.043,0.628-0.229,0.742-0.556
		c0.115-0.322-0.07-0.569-0.556-0.742L138.62,493.96z M132.259,498.803l4.124,1.462l0.172-0.486c0.228-0.644,0.346-1.241,0.36-1.783
		l1.658-1.596c-0.812-0.288-1.477-0.341-1.993-0.161c-0.519,0.182-0.94,0.212-1.262,0.097l-0.486-0.172
		c-0.164-0.057-0.483-0.443-0.956-1.158c-0.115,0.327-0.306,0.484-0.578,0.479c-0.272-0.003-0.437,0.075-0.494,0.233
		c-0.115,0.327-0.049,0.529,0.193,0.617c0.242,0.086,0.304,0.292,0.191,0.613c-0.231,0.647-0.586,0.884-1.072,0.712L132.259,498.803
		z M117.694,528.313c0.97,0.344,2.147,0.489,3.532,0.435c1.386-0.056,2.324-0.269,2.821-0.639c1.045-0.9,1.682-1.54,1.908-1.916
		c0.223-0.373,0.174-0.623-0.148-0.736c-0.325-0.115-0.771-0.135-1.343-0.067c-0.57,0.072-1.048,0.132-1.427,0.177
		c-0.784,1.18-1.741,1.566-2.871,1.165l-0.242-0.086c-0.325-0.115-0.64-0.5-0.954-1.158l1.228-0.382
		c-0.755-0.448-1.203-0.973-1.354-1.574c-0.155-0.601-0.497-1.172-1.026-1.728c-0.325-0.115-0.421-0.875-0.282-2.286l0.204-2.111
		c0.344-0.97,1.266-1.778,2.772-2.429c1.502-0.648,2.743-0.801,3.713-0.457l0.486,0.172c2.584,0.916,3.906,2.573,3.973,4.959
		c0.151,0.597,0.226,1.674,0.223,3.22c-0.002,1.548-0.309,2.668-0.918,3.36c0.486,0.172,1.3,0.051,2.449-0.36
		c1.145-0.414,1.937-0.722,2.378-0.932c0.609-0.693,1.472-1.069,2.584-1.129c1.114-0.057,1.727-0.25,1.843-0.577
		c0.916-2.582,0.436-5.348-1.427-8.287c-1.872-2.941-4.18-4.897-6.93-5.874l-2.909-1.031c-2.425-0.86-5.037-0.422-7.839,1.314
		c-2.802,1.738-4.688,3.981-5.665,6.729c-0.688,1.94-0.556,4.265,0.397,6.966c0.951,2.705,2.315,4.371,4.094,5.004L117.694,528.313z
		 M125.015,519.987l1.214,0.43c0.644,0.231,0.849,0.301,0.607,0.217c-0.242-0.084-0.148-0.233,0.293-0.443l-0.14-1.141
		c-0.812-0.288-1.912-0.768-3.309-1.448c-1.399-0.674-2.27-0.53-2.614,0.438L125.015,519.987z M125.939,522.772
		c0.124-0.865-0.366-1.537-1.467-2.023c-1.104-0.481-1.98-0.838-2.624-1.067l-0.242-0.088c-0.327-0.115-0.558-0.102-0.693,0.03
		c-0.142,0.132-0.32,0.252-0.537,0.357c0.644,0.229,1.235,0.621,1.77,1.171c0.527,0.556,0.983,0.808,1.367,0.761L125.939,522.772z
		 M101.169,507.16c-0.647-0.231-1.403-0.54-2.261-0.938c-0.862-0.397-1.206-0.836-1.032-1.322c0.863,0.126,1.768,0.401,2.711,0.825
		c0.94,0.429,1.657,0.451,2.155,0.083c-0.97-0.344-1.76-0.941-2.366-1.795c-0.612-0.852-0.996-1.308-1.155-1.365
		c-0.327-0.115-0.597-0.118-0.814-0.016c-0.221,0.105-0.655,0.04-1.298-0.188l-2.181-0.774c-0.327-0.115-0.43-0.33-0.314-0.655
		l0.726,0.258l3.412,0.389c-0.269-0.274-0.464-0.617-0.591-1.028c-0.127-0.409-0.355-0.672-0.677-0.787l-1.94-0.688
		c-0.486-0.172-0.977-0.075-1.47,0.298c-0.497,0.368-0.992,0.739-1.488,1.11c-1.098,0.523-1.751,0.701-1.961,0.532
		c-0.215-0.166-0.734-0.123-1.55,0.132c1.338,0.841,2.738,1.381,4.201,1.627c1.458,0.244,2.31,1.05,2.557,2.41
		c0.406,1.419,1.241,2.399,2.507,2.938C99.605,508.747,100.546,508.396,101.169,507.16z M94.212,475.2
		c0.486,0.172,1.349,0.299,2.598,0.376c1.244,0.078,2.168,0.043,2.769-0.11c-0.105-0.218-0.613-0.58-1.525-1.088
		c-0.914-0.503-1.939-0.961-3.068-1.36c-1.133-0.401-2.197-0.733-3.196-0.997c-0.999-0.261-1.639-0.261-1.913,0.005
		c-0.013,0.542,0.342,1.078,1.069,1.607c0.72,0.529,1.486,0.937,2.294,1.225L94.212,475.2z M97.461,496.832
		c-0.648-0.231-1.086-0.019-1.313,0.626l-0.258,0.728c1.128,0.401,1.783,0.36,1.956-0.126l-0.312-0.655
		C97.424,497.188,97.403,496.996,97.461,496.832z M91.826,476.54c0.97,0.344,1.655-0.048,2.058-1.182l-2.095-1.018l-1.942-0.688
		c-0.97-0.346-1.571-0.19-1.799,0.454c-0.231,0.647-0.024,1.085,0.626,1.314L91.826,476.54z M85.632,502.467
		c1.129,0.4,1.799,0.822,2.012,1.259l4.607,1.634c0.287-0.808,0.025-1.359-0.782-1.644l-5.577-1.979
		c-0.486-0.172-0.742-0.217-0.769-0.137c-0.032,0.084-0.185,0.255-0.459,0.521L85.632,502.467z M66.799,470.117
		c2.1,0.746,4.319,1.032,6.659,0.862c2.334-0.169,4.577-0.468,6.732-0.889c2.151-0.421,4.247-0.816,6.289-1.182
		c2.042-0.368,3.898-0.346,5.574,0.065c-0.312-0.656-1.155-1.365-2.523-2.124c-1.368-0.759-2.931-1.493-4.679-2.205
		c-1.754-0.712-3.53-1.343-5.337-1.893c-1.81-0.55-3.196-0.997-4.166-1.341c-0.811-0.288-2.135-0.527-3.973-0.73
		c-1.843-0.194-3.675-0.299-5.488-0.307c-1.821-0.006-3.433,0.057-4.846,0.193c-1.416,0.137-2.208,0.444-2.38,0.93
		c-0.229,0.648-0.08,1.383,0.448,2.206c0.526,0.828,1.227,1.665,2.108,2.525c0.878,0.855,1.783,1.634,2.723,2.331
		c0.935,0.698,1.727,1.158,2.375,1.386L66.799,470.117z M87.98,507.394c1.129,0.401,2.248,0.073,3.355-0.992l-2.581-1.19
		c-0.812-0.288-1.351-0.432-1.622-0.436c-0.272-0.003-0.812-0.153-1.619-0.438c-0.46,1.295,0.038,2.198,1.494,2.715L87.98,507.394z
		 M88.415,476.148c-0.43-0.333-0.814-0.016-1.158,0.956c0.75,0.448,1.434,0.828,2.053,1.137c0.615,0.312,1.179,0.008,1.687-0.903
		L88.415,476.148z M86.405,500.283l1.698,0.602l-0.4-0.414l-2.565-2.002c0.092,0.763,0.155,1.104,0.183,1.021
		c0.029-0.08,0.145,0.097,0.357,0.535L86.405,500.283z M81.563,510.853c-0.486-0.17-0.785-0.096-0.898,0.228
		c-0.172,0.486-0.016,0.814,0.47,0.986l1.454,0.516c-0.048-0.381-0.07-0.707-0.062-0.978c0.003-0.272-0.234-0.494-0.72-0.664
		L81.563,510.853z M54.587,499.918c0.322,0.115,1.349,0.299,3.083,0.548c1.73,0.25,2.977,0.33,3.742,0.234
		c0.699,0.068,1.67-0.091,2.896-0.475c1.228-0.384,2.06-0.677,2.499-0.889c1.636-0.511,2.649-1.059,3.044-1.65
		c0.386-0.586,0.973-1.472,1.759-2.652c1.069-1.985,1.513-3.239,1.335-3.758c-0.183-0.516-0.013-1.505,0.503-2.96
		c-0.476-0.715-0.776-1.274-0.903-1.687c-0.127-0.409-0.256-0.817-0.384-1.228c-0.126-0.408-0.444-0.93-0.946-1.563
		c-0.503-0.631-1.316-1.423-2.436-2.366c-1.227-1.161-2.616-1.749-4.158-1.751c-1.548-0.002-2.926,0.422-4.134,1.263
		c0.355,1.042,0.876,2.272,1.556,3.693c0.677,1.427,0.787,2.785,0.33,4.077l-0.26,0.728c-0.229,0.648-0.771,1.276-1.623,1.881
		c-0.855,0.61-1.604,0.797-2.248,0.567l-0.728-0.258c-1.295-0.459-2.039-1.309-2.229-2.565c-0.198-1.252-0.091-2.441,0.311-3.575
		l0.258-0.726c0.287-0.809,0.554-1.306,0.803-1.491c0.245-0.188,0.513-0.68,0.803-1.493l0.343-0.969
		c0.346-0.97-0.495-1.816-2.514-2.531c-2.025-0.717-3.545-1.435-4.558-2.163c-0.755-0.444-1.368-0.758-1.854-0.93
		c-0.484-0.17-1.219-0.159-2.197,0.04c-0.223,0.104-0.863,0.239-1.923,0.411c-1.061,0.167-1.647,0.416-1.762,0.739l-0.704,2.754
		l-0.242-0.088c0.198,0.983,0.276,1.918,0.231,2.813c-0.043,0.895,0.164,1.969,0.631,3.226c0.242,1.36,0.454,2.302,0.637,2.821
		c0.177,0.518,0.497,1.405,0.965,2.664c0.626,1.314,1.816,2.965,3.567,4.951c1.751,1.987,3.516,3.294,5.295,3.927L54.587,499.918z
		 M58.772,489.66c0.322,0.115,0.664-0.081,1.029-0.589c0.36-0.508,0.599-0.922,0.714-1.249c0.288-0.808,0.347-1.743,0.177-2.805
		c-0.17-1.059-0.66-1.736-1.467-2.023c-0.164-0.057-0.441,0.212-0.83,0.798c-0.393,0.591-0.715,1.249-0.973,1.975
		c-0.258,0.728-0.344,1.475-0.247,2.233C57.269,488.765,57.802,489.316,58.772,489.66z"/>
</g>
</svg>
