<?xml version="1.0" encoding="utf-8"?>
<!-- Generator: Adobe Illustrator 17.1.0, SVG Export Plug-In . SVG Version: 6.00 Build 0)  -->
<!DOCTYPE svg PUBLIC "-//W3C//DTD SVG 1.1//EN" "http://www.w3.org/Graphics/SVG/1.1/DTD/svg11.dtd">
<svg version="1.1" id="Layer_1" xmlns="http://www.w3.org/2000/svg" xmlns:xlink="http://www.w3.org/1999/xlink" x="0px" y="0px"
	 viewBox="0 0 151 151" enable-background="new 0 0 151 151" xml:space="preserve">
<pattern  x="-276" y="-173" width="28.8" height="28.8" patternUnits="userSpaceOnUse" id="_x31_0_dpi_30_x25_" viewBox="2.16 -30.961 28.8 28.8" overflow="visible">
	<g>
		<polygon fill="none" points="2.16,-30.961 30.961,-30.961 30.961,-2.161 2.16,-2.161 		"/>
		<g>
			<path fill="#F4A460" d="M30.96,0c1.191,0,2.159-0.967,2.159-2.16c0-1.193-0.968-2.16-2.159-2.16c-1.193,0-2.16,0.967-2.16,2.16
				C28.8-0.967,29.767,0,30.96,0z"/>
			<path fill="#F4A460" d="M16.56,0c1.192,0,2.16-0.967,2.16-2.16c0-1.193-0.968-2.16-2.16-2.16c-1.193,0-2.16,0.967-2.16,2.16
				C14.4-0.967,15.367,0,16.56,0z"/>
			<path fill="#F4A460" d="M30.96-14.4c1.191,0,2.159-0.967,2.159-2.16c0-1.193-0.968-2.16-2.159-2.16
				c-1.193,0-2.16,0.967-2.16,2.16C28.8-15.367,29.767-14.4,30.96-14.4z"/>
			<path fill="#F4A460" d="M16.56-14.4c1.192,0,2.16-0.967,2.16-2.16c0-1.193-0.968-2.16-2.16-2.16c-1.193,0-2.16,0.967-2.16,2.16
				C14.4-15.367,15.367-14.4,16.56-14.4z"/>
			<path fill="#F4A460" d="M9.36-7.201c1.192,0,2.16-0.967,2.16-2.16c0-1.191-0.968-2.158-2.16-2.158
				c-1.193,0-2.16,0.967-2.16,2.158C7.2-8.168,8.167-7.201,9.36-7.201z"/>
			<path fill="#F4A460" d="M23.76-7.201c1.191,0,2.16-0.967,2.16-2.16c0-1.191-0.969-2.158-2.16-2.158
				c-1.193,0-2.16,0.967-2.16,2.158C21.6-8.168,22.567-7.201,23.76-7.201z"/>
			<path fill="#F4A460" d="M9.36-21.602c1.192,0,2.16-0.967,2.16-2.158c0-1.193-0.968-2.16-2.16-2.16c-1.193,0-2.16,0.967-2.16,2.16
				C7.2-22.568,8.167-21.602,9.36-21.602z"/>
			<path fill="#F4A460" d="M23.76-21.602c1.191,0,2.16-0.967,2.16-2.158c0-1.193-0.969-2.16-2.16-2.16
				c-1.193,0-2.16,0.967-2.16,2.16C21.6-22.568,22.567-21.602,23.76-21.602z"/>
		</g>
		<g>
			<path fill="#F4A460" d="M2.16,0c1.192,0,2.159-0.967,2.159-2.16c0-1.193-0.968-2.16-2.159-2.16C0.967-4.32,0-3.354,0-2.16
				C0-0.967,0.967,0,2.16,0z"/>
			<path fill="#F4A460" d="M2.16-14.4c1.192,0,2.159-0.967,2.159-2.16c0-1.193-0.968-2.16-2.159-2.16c-1.193,0-2.16,0.967-2.16,2.16
				C0-15.367,0.967-14.4,2.16-14.4z"/>
		</g>
		<g>
			<path fill="#F4A460" d="M30.96-28.8c1.191,0,2.159-0.967,2.159-2.16c0-1.193-0.968-2.16-2.159-2.16
				c-1.193,0-2.16,0.967-2.16,2.16C28.8-29.767,29.767-28.8,30.96-28.8z"/>
			<path fill="#F4A460" d="M16.56-28.8c1.192,0,2.16-0.967,2.16-2.16c0-1.193-0.968-2.16-2.16-2.16c-1.193,0-2.16,0.967-2.16,2.16
				C14.4-29.767,15.367-28.8,16.56-28.8z"/>
		</g>
		<g>
			<path fill="#F4A460" d="M2.16-28.8c1.192,0,2.159-0.967,2.159-2.16c0-1.193-0.968-2.16-2.159-2.16C0.967-33.12,0-32.153,0-30.96
				C0-29.767,0.967-28.8,2.16-28.8z"/>
		</g>
	</g>
</pattern>
<g>
	<circle fill="#754C29" cx="75.5" cy="75.5" r="75.5"/>
</g>
<g>
	<circle fill="url(#_x31_0_dpi_30_x25_)" cx="75.5" cy="75.5" r="75.5"/>
</g>
<circle fill="#008080" cx="75.5" cy="75.5" r="55"/>
<ellipse fill="#8B5E3C" cx="75.658" cy="67.015" rx="35.59" ry="21.187"/>
<ellipse fill="#8B5E3C" cx="57.316" cy="55.282" rx="11.392" ry="10.594"/>
<ellipse fill="#8B5E3C" cx="51.46" cy="63.227" rx="11.392" ry="10.594"/>
<ellipse fill="#8B5E3C" cx="71.307" cy="52.633" rx="11.392" ry="10.594"/>
<ellipse fill="#8B5E3C" cx="86.048" cy="52.633" rx="11.392" ry="10.594"/>
<ellipse fill="#8B5E3C" cx="97.44" cy="58.308" rx="11.392" ry="10.594"/>
<ellipse fill="#603913" cx="65.814" cy="58.025" rx="2.893" ry="2.743"/>
<ellipse fill="#603913" cx="53.412" cy="48.57" rx="2.893" ry="2.743"/>
<ellipse fill="#603913" cx="71.307" cy="45.827" rx="2.893" ry="2.743"/>
<ellipse fill="#603913" cx="106.653" cy="53.89" rx="2.893" ry="2.743"/>
<ellipse fill="#603913" cx="83.154" cy="76.57" rx="2.893" ry="2.743"/>
<ellipse fill="#603913" cx="53.412" cy="75.893" rx="2.893" ry="2.743"/>
<ellipse fill="#603913" cx="109.547" cy="70.043" rx="2.893" ry="2.743"/>
<ellipse fill="#603913" cx="40.068" cy="64.557" rx="2.893" ry="2.743"/>
<ellipse fill="#603913" cx="71.013" cy="71.077" rx="2.893" ry="2.743"/>
<ellipse fill="#603913" cx="97.44" cy="71.645" rx="2.893" ry="2.743"/>
<ellipse fill="#603913" cx="82.699" cy="52.633" rx="2.893" ry="2.743"/>
<ellipse fill="#603913" cx="86.048" cy="42.04" rx="2.893" ry="2.743"/>
<ellipse fill="#603913" cx="94.175" cy="58.025" rx="2.893" ry="2.743"/>
<ellipse fill="#603913" cx="53.412" cy="63.227" rx="2.893" ry="2.743"/>
<path fill="#F4A460" d="M102.383,75.554l-3.579,4.768c-0.001,0-0.002,0-0.003,0l-4.626-4.43l-5.066,5.363c-0.001,0-0.002,0-0.003,0
	l-4.238-4.686l-5.477,5.2c-0.015,0-0.029,0.001-0.044,0.001l-5.732-5.286l-4.904,5.303c-0.002,0-0.004,0-0.006,0l-4.821-5.556
	l-4.668,5.002c-0.001,0-0.002,0-0.003,0l-2.267-5.34l-4.161,4.577c-0.043-0.006-0.086-0.013-0.13-0.02l-2.817-4.557l-3.554,3.336
	l0.046,0.084c-0.135-0.029-0.272-0.054-0.407-0.084l7.887,29.773c0,0,24.844-8.084,43.181,0l9.661-29.773L102.383,75.554z"/>
<polygon fill="#C17236" points="56.559,108.222 59.008,107.623 52.715,80.546 49.839,75.893 47.816,77.791 "/>
<polygon fill="#C17236" points="59.214,81.236 62.486,106.9 66.628,106.219 63.884,76.231 "/>
<polygon fill="#C17236" points="68.708,81.791 70.01,105.808 73.906,105.51 73.615,76.485 "/>
<polygon fill="#C17236" points="79.368,81.791 79.368,105.432 82.631,105.602 84.868,76.57 "/>
<polygon fill="#C17236" points="89.108,81.257 86.048,105.808 89.108,106.516 94.175,75.893 "/>
<polygon fill="#C17236" points="98.803,80.323 92.127,107.26 94.175,107.902 102.383,75.554 "/>
</svg>
